<mxfile host="app.diagrams.net" modified="2023-11-19T14:12:48.348Z" agent="Mozilla/5.0 (X11; Ubuntu; Linux x86_64; rv:109.0) Gecko/20100101 Firefox/113.0" etag="HWCJdz0C7dxz1poBltvf" version="22.1.3" type="github">
  <diagram name="Page-1" id="olmid4qgtVcLOlkuCZ0g">
    <mxGraphModel dx="1367" dy="763" grid="1" gridSize="10" guides="1" tooltips="1" connect="1" arrows="1" fold="1" page="1" pageScale="1" pageWidth="850" pageHeight="1100" math="0" shadow="0">
      <root>
        <mxCell id="0" />
        <mxCell id="1" parent="0" />
        <mxCell id="I8u54NmZ8nvwyBFgocyv-1" value="" style="shape=image;verticalLabelPosition=bottom;labelBackgroundColor=default;verticalAlign=top;aspect=fixed;imageAspect=0;image=data:image/png,iVBORw0KGgoAAAANSUhEUgAAASYAAADzCAYAAAArQLvyAAAABHNCSVQICAgIfAhkiAAAIABJREFUeF7sfQeAVNX1/tmZ7X3pHRYQRECqBUXF3nvDXmNsMVWN/8SfRlNMsSUmMSaaaOzG3hW7iAKKiqIiIL0tsL3vzv6/79x3Zh/DbGHZXbbMW4Z5c98t5557znfPPbe8uPLy8jqJuJKTkyODmvU7FAoJP7W1tVJVVYVPtVRUVMjAgQOalb7JSKC0Dn8oQgIBkb88s15enV8if75igAzvn+KFx4ngH6IxJm7iJMDf3vX4O1vk/lcL5K4fDJRh/ZKlDlHqpBb5BWTNlkq54o41cuw+GXLxkX3khTn58rfnNsntVwyWUQOTpQYFxyPedxtL5Qd3rpZLjuopx0/vLTW1NfLoG3nyxLulUlFZK72yArLr4GTZc3Sa7DshXdKSghIXCMo/X9wAekvlnh8PkpyMBFm5sVzueGKdfLGiTpIT6mRIn3gZPzxV9h+fKrvlpoKPdRIIBuX6f6+VLUXVcueVg7X82Yvy5U+PbpLsjESJj6tCBZC/q7KE6khfpZyyX45ccUJfefOTQvn9o+vlj5f2l/G5GaC1TuKDcbJ+S4VcfsdqOemAbDnnkF7y2vx8uf2JPPnDJYNk3PAUqa1D2XHIld9gIHlUVxevv6++ewVoi5NbwRfy9up/rJC4uID8/pIheB6HezK7TsPcHX/yd1yYh3O/LpBf3rtRfnxKbzlyrxytK9OxrG/XlcqP/rxWLjm2pxw3Dc/A94DXjnWBkMz5slQ+/qZE1m2ulc0FtVJaUSXldQnSPzNBbvl+H0lPSZKXPtwif3tmk9x65SAZPShV5n9dKNf9e5386tz+Mm23TC0PrJWCshq59LYVcuCELLn0uN5a7x//dbWkJMfJ7y8epPTf9tg6+XRZufztx0O1LWtDSAs6Zy0Azx7Pkz9dNkh2G5qKdCsQOyB/unygposLoUJxtfjE49kq6ZkVkv87Z6jKqeMRviGnGg38qq6u1TYZOigg1585RCqgP5ffvkp2HZIk15wxSPlQWRWSv0Lu3/q0AjwNSd+eQRk3JFX2Hpsse+2WDrpQKZWGaBfDqe78oG3qaiGXro0cP9w9KJIS8GXp6lL53+wimf1llVxweJqcfcgAeffzLZDZfMlJj4dsVrusUB5zrkW65etDcsqMdLn8uIHyItrgrmfyILeDZNSgNJWha+9ZIzXVdXLr5eRtQB55czPyL5X0JHAAmZSV18rpB2ULJK3zXAQlh6L4Hy27S/8keaG8SJavKwcwpUL2CUQQYQhXiHHR4sFgnfz7lY0Qkjo5B2BDZdPnKhmUCCgEG4kXlQdKbs1Tx7jIh8pHpYqD0vM7QOUjFz0BCKJxzz6sn8yYUCafLCmXhcvK5OsVNfLWlxtlr89L5Lqz+klmWhCg4dJRFuJQ7tC+KRDiofLJ4lL5fGmpfLG8Co1ZLM99VCg/OK4nFDaLROGPdHjChq8Aql9THSdTRiXJ8D6ZUs18PaLZoPHxcTIYAsu0LIv1IL+0DqRa6458UV+rQx0UFeoW5ouWiOdhnkoCFKoGwhiQAyZmyd+fzZNVeZWSgLIWraiUK0/sq+BRjTQJIMZ1Cci+JRc7FfAniLyVPtfcUoUO745HN8hbCypkxJCAjOyXKBNHpgHMk+Sxdwpl+YYqCWrdrM5Mar/Zto5JrD+bj1ED5AHCQ0QI5XLIOO3KtrxUDhwPHT2UGkqHSaXLp4YlQg4heVoHygmlEeLHnJQ2/6V0ICCECImJ8bL/7uny3PuFUlpZLYtXV8razQCnE3pRNPGJk9TkeLl65kB0niXy2ZIK+ey7Mvnw6xJ55eNiOX6fMrns+D7ID1LATCnPaAuPJUop6dG2YYZgx7ufFQDgq+SE/XsAWVx9WK/01KBMGJUNPqfKzwDUc76qkHMORacGZaiqqZPJYxJkaJ8MALnr+ClL8SiI8jCgJ/mMzkTlvL62vNWf4bA6dJTVml8lOuZAKCjAYuAl8qpP1gnu2IjKVSqNyMRdEiQTyP32Z1Vy8JSQ9oC1tRAKPEfdJBFMWrOpXJ4C6g/pmSjnHRknvTPjpKJGZFNBlYzomyTVjIgGSwAn8ooqYfFUoWfLdMzwhMEJN5pVhZdC7+6dYotsKa6SLYU1ssvgFBnUN1WO2zdHtpTUyNPvFsqjbxfJgiUlcsCEHgBKywP04X7lhlL0wImyx66Z+GRICLQvXlMuf3osX56bUygHTc6SpATWFTDLMkkP6t8zK15qcDO8X0CO3hsChZ5IoAjuqoWgVQMI65tWhZCfsBIxpkIP/lydcrIIPHWSDx5A/NXq5ZMgyn957kZYJiKnHthTksDkaeid//NSHEC4VJLjA7D24mXvMegY8BdEA0HEvHx9UulR15wvCrMqNAgggIco9GjLTxaVy2sfl8iFR2XJmQf1xkPrQsDP6i0KMhQPvbS+9Tqg+XntRz7YcwIDf7uORu88jmhyvVwtnNIqD00OGBvEEjCo5QN718GSq5RiWM2ZyUG1ThMA5LToNkPe+vdMQDzSFckXVpgk1QH00+SJt7dAZsrli2UlMjAnQcbCimY6ZCXr8yukvLIGVlQ6PmlyWqiHrM2vkn+9VCCz5hfJ0ftkSm5fyBLkg9YnL5NTbW2CJZhEPgXxN/frInnxowqVweEDEqQaIAF8Aj8JwnWSnpwoWRlJUlAMyAV9vbJgMWKEMKJ/ghy5J2XPf4VkXX6lZKa4TtHxJiKK91OfwQI855A+cu5h1o2xPcFfGBTWstFTd8RQtqECTwgNnSZH7J0C075IHpm1yRPggAIUOh8pKK2Ue57dItWVcXL24ZloFgyxhiZLdprIyx8WopeskkQoXiLkhY3wKqyVBCQcn5uk8kO596O+NizDNSfeEyzqIBCFcuWfV8PiKQPHKAxx0iM9SSaOTgSTYS4jIxUOpd1ZYBTam+7Lk9ueXqeNwYeBYLwKWx+0dwjSQbmi0Mez92WPijoFYC4NgaU1tF+KPP1+mRSVwqRXUGLj1mFIuVnOuHmZLFhcrLSy3DhkZEJCpVdSlBZ+XJ12GRSUXtlBmQXFr4urUb7EJwQwvKiTB18rlU++rYCSARABnr2zkmUKgPTdT4vljU+KZM9dU6UHhJcAEhcHWvmtfNj6MgUJK4oXxX5rbBKHy0+bKj4+awsBmhiq7IahJodH2uXj+nploXyzukpSEsknr84+Coz3ZvFY/ZmvtqUW5tKxfFMKpuMfL5fW451XN/LOVcHJwX4TMmVzcUheRqfCdk6MxxAb38+hY9xSBDnz+g6XIzJ1IqFxmD/pGYJ23W1EirwwuwDDz0rZZ1K6pAD4a2ooR3Vy30vr5Of/2IDOkO0OstG2A3umyJjB8VINWTO5rEL8wrJKKYdLxfHUqwtlAvnohfodvEeWpCXXyT9fygOolKrFkwA6E6AT8fF18t6iQvliaaVMGBmP8kMyqE8SZC9ZnnqvSIrKyl0+LjN5YNZGOfvG7+TTbyFDGHnQSiRrXVHkkbJZP4630AvKi8o3ClWLljwLdC6Lifyk8OvQCn/s4c84qKesywvJP18uREOWydSxaZIDMzRvS528ubBY1uRVyTmHZaNH74HGxZg8J0XOP6iH3P7cBrn533FyxF5AKfoLoJDvfFIuFx6b7YaFHvMqq1yPTcXgsMZAphIKq0MzcH7fCRny7JxS+f0jeXLGgZXaM26E7+O/rxfILoPiZfcR6PEQj7RXoSdir0SL5vBpGfA70V+0TvadmK4C8eEX5TIP/pPLj+0NIWFDhSQzo1bmfothzJPr4bdKkX3G9ZDzDsuUXz+4QX5x7wY5ab9MyUoLyHyY9v97J18OmZghU8fA6vOEXevgSYlTSgeqWgcNF/gMUuTcQzPl9sc2ya8fWCtH7JEJq6xOnoYAlmLcf9E5fVUx1L8CATpwcqr88ZFyCcHnM/PAdFUq8oimrIKdtpG7qBJsOyoRe0miPcutAF3Mz4Gjs3Xq+AzlVoA2exYHMKYqjUGnkgyF+c/zhXLGobRK4uGfq5CX5xVJcmKiFJeEoIghSUtxFqlrI2qCkxWWx3INjEkU+cF47CgYTqo5tAjAqmY60s1nlQir5x3RL6D0Ma3Gw2fqqCw5Zlq53PtSPvwzVTJqQBLoq5aleWXwB9I35TGEtaE8Ka/Yablw1pu8PQhgdOsTmyUrBXzeHb4ZPvdoPQJWygdf5MlND2yUE6ZlokMIyddrKWuFst/YLBnYK4nkyOewuH7zwBrtkE89YIBa2DbMpXXIOGyKSbmZcvaBFfLv14vkJ3dtlKm7BmVA71Tl05JVVfIhrNSR8HnNPLAPwuIAYhh5HJENGdkov/xXHoaA6Sp7CxZXyv/eLpYZU9PU+mL+BB+MSL0Oi7yF/IOPlH9tA1YbcVw35trYBQIUjVWd4Vvbx6uQE646DIUS5Nqz+sqEEfny+mfFOnyqrgXixtfCB5Ek3zuyr+wznsMkVB+KUYte5Zj9cyQlQ+Spd7fIbU/AygFzaKJec2ZvOWRKjvZO8bCbMzAHMKwvejr0Ik6IHLNhOGh4JjCNzB/UMwlOzd7ywGtwrL+eD1MZvhj0luOHpaARe0p2KhIgXg+UORQjkCB6IgrbKTOyYJ6jh4VizfumVOuWkRYnV53QR46m0xcjNFpsx0zLko2ba+SdhaUQ3EoMpbJkn7EApgtFHn4zX/7xfJ72TimJcTJzeqacfgiHXJRl8CclBNM+TjBixG8Cq5Ki9RvaJ6jWoykfhT4ZltLjbxfIrY9vhIyE0Bsnyw0X9JOxQ9PV+ZoAgujEnDQiXfr12gypC8BZ7oYamjf+AjQ1WYiHTGpXcIjHIESiSCbDKB3eV+CodiCp4YyGSIlwzvNZBnpy8pcKxe8xg9Pkx6f2kMfgML3tsUoMc0OwTOPl0mP7waleKf96oUDyMKzplZ0oqSn04cFyhu+CeSYnBpBnvKQkuTwJslRQWqBsk54ZLpw16N8jAH6h5wa/CLA94eob1Iu0M45zFVAe0pLBw76Iq80LxYd8XXVSf0yqJMk7n5fK6wuLMNxOlJsA6r99OA/Sy45GueHkiZwAbSbLarmh/D1Hp8v4oQUyACAztB99p+ABhgGcWJq8S4b84syQPPbWJvnb85uQZa2kQD6P3SsTYN0DJdBiRb3R/hnpyfBbkduurtYe4W+QQ7mZeWhvGTIgUV76qFjmfwt3xkJYx8gpC26PU2ekouPrIdnpbqhPwNpnbIbcdJHI42/kyz3PbVYrNQl8PWVGhpxxSA50jzSEMAxkGwd1RMI6sO79cwD0NV69FXRABGTD+eJc/Rka16lm5bQiTubZgKwGGRuHxqGzMYRZhsLSGsxcQBEh+DlwOBN7XS/pJfa+KAyhumqY2HRM1kH4MOKGWelmTMi4kPYylEw6/Khs7PCorHSk60wRCOBsHjtXKiyfFsC3VIFeIg2NkpHicJ+zeQH8UbCcACMuhiR0YrNdKuAALC5WrYXlEgRoODOYpFKMaUKzvLIK+CygaEm0PFDfABSY/qX8YsyCgoh04AN9VrzIF1pbdfAHqAcKddMhnXLNCUYtZ2UcZXgWjzxBDh7XkC/Ik3F7ZcKExx9n+1RsPHArrw7J9/+0UmZMSpOLjuznZhDJAu8if+2iYlAuTeyo8DWkDXUKgq/qC+GMnyq+U37GJyhoFUm795vKW1ldLfmlBEmABmbieLGNySO2ZSIsTf2NNHTIkq8c+rN+nNpgm/EiXdQqdlaME0/rBc9ryBc8CqDcADoO+i3pzta8SKvyDHxCGXV1aloBOAKyDv7MSsQd3i+dFKmVlQRaStE4F/x2FTq9dPneMX2VNvP/GJ+c4npUgSbKGsugXCsxetG6cr4j1qYAvs0qDPkzU+EV5Dgfz1l/lk1BZp1Jqc6qom6u7bWquBxgWbu4sJAUl9XCh4WOGTxKRzUSg+Qv+UeJc45z5s1JEHAAvlTUE1ZjdmoAoE8a0LacdAJ9lKM6zJbGg4fWhrXotGtRWAI+boKAEsi2IF1KmF6dymKidLsKUEGsMrhBvSkkcWBWDnw7ZCQVlqa263GtuvXf9JUEAA694EjWRkKGbsramOME1QkiG9E1pTYnGKizsio0YCLToiwKb3Y6gYF5wGSlAOKbDUoY1cakGa1sB33MAoKVjMZPznbNQ0Enbex97XJDAFhTGKIyX2SrDFCLCrRw6YETY4aBCgUgRkKeASwpgABRMDWIF7KmDMRD8ZiZztq5YJ0MCACk+ngKT98Wy2NyAmuAlgZ+vIyp4EI4RA+dkqG8U2uCddSMXP0dHzRr5Yj7phUCwYQPos6hjvJELVKLgxsHHi5PF87nUBDUj8DTD/4w5qpLVLR8WMlolDqdHQEV+KYj3rWRs+JMMb1itDzyJQg6nHOcLOKMEPLWivCCQqMHIWx7tdNQ5S57FgAq254gNh9+vb8+XSC/+95AmTI6E6CkLSyvwXdZUFwNJ3aiYw0K1tkxKGwkTZY5AdsxRBubpblv8I48INjQr8eLT1V2QY+1ZB14EVS+muxqVL2oOy5Vfbu4oSw609QEfCjDrButG5bF+vGno5auIKcrAbVYmQulH6sd1LoNai+C9oiDj5V11GUm+KftGq/Sr5Rqmzv6lDDf1bmACZXWarCG/HaShW80ggKFdhSuwgQANC47R+WTv9ZIqIBv8QkpyFstEI3ItO67PpnXKIQZ5anXk2k8ig1BiJYFfrDlEa49rPc0DBQaxEhQCBZHhaYAab2YDGrhtFvrqjE1H2cF8FZFlD2gu3F1Rkx9phX2isC3K46GuRuWeCGIwCdMUN83kwBahyzU9byeMgZpeSE2Ht3zwjpZtLJGvl1RJUdPz8DaqxTtFBRj6ot1P7z/lXPMVjXCwbRzwHqN5h4rPSyDUG6VMK6bRjtjh4DkMmcb15dNetkuyl1k5O41321ocwQTUDkcdSSyDQlupNOjQPNyiqWZ+C4CFeNyuQgtmX12zwZgl8pv4fvbZ3yp9EirxZqykMyDn+bgPeF7AViFfVxsL8qxL09PutmIXul4TH5oPDx1iIJ2d8LrZJ0E1VtgSl44Lq1dFSptUy8zx0o+sfxwH/TMdwZpuEcXcMTR6aTOC6ZeUTYpk8yXiTiy0MJdcXyuVrYnj1o8iaCmWBpnxWmnpDpdf3XKoVyYfGX2VvXZ9pHjWUS0BhKGg+uf+++sx3CFeE8ayCoaVS5qtLwRe5t8/NYCH9eX7ifTL9v+cCcdxp+t86qnzV+ony6vJ6Ml4pFGhSL4P/nOJiwsLJG9xiTL6TN66+wdwYZQovqNbPwmOcsKg64CbPQyHU2Rz4xSa+TI5xGN73/slevUJAp7jY5G0ljprg7bihqHU1zTxvq5IZbIxsIqLO7Ml0XL4Kuphp8mPSD7YcHsQZOylX+cMPFbH5FDXqPXylaMULahDAKO9yCCbD+p4cqGW90ihzOLjB5FtsIE4EYLdZmEs7LgrbPSXxonGoH+MO9eaSQPCU4+Le20wBRGdVawicvUoT7atiFbZxHtebQwtgA+zaChCRKjPI7MOPJ3lCQWtB1RG+VJlHxcr8chCgY3VBZFRp9Q8adPwFz+jkFeB91ywp350Ej67XkUpXLbk9wfVy0GZ2W6IbizaBCCWCzHDYPV1jVeObZ5qEPc8TqDCGEKV9mzgpolapFVs99eZpF+LWepuZwjk0aypKnnjK9xmhPRF9cBmeMV8+hcQzkfl8I9TX1dInm41e9to20bsnUG0Z5HC/O422jpLX0YWV7k70by3Y6o9blEJCLwEGYgNQ5U3FAVHiLPr8NnTI3/+I/66Tfhwhm7fF3cRmjWR00Q3rxMmirEe95EWU3mQv6w3t5AHaYQh/JqPal145zRGoduBXw7GxTlGm+NEq9e24J6GLv0ptkUR0a03z7++a21rayVJuodmXW06BqnOREtWkTcTgtM0ZgRC2tdDtiWHF2IqILjLAN+0/m6lbnOR4jj/CDNlMjWJbfdc1PQtnp77DGgJmQprCPA7Kd6zFaocvxsrva2e+12boExYNq5/O/Qpav3REHJLCYjF0qlPg9PtxisoERw2o5evUPXvmnilD9aX48/fn5ocu+ZZWW47jEr0vnddIndJ0YMmLpPW7egpmYp2bc/C88q8htHBKcWlNJ5kxgI+/izDQMaAupux6ztamazMrcrUSxyjAMxDsQ40JYciAFTW3I3lneMAzEOtIgDMWBqEdtiiWIciHGgLTkQA6a25G4s7xgHYhxoEQdiwNQitsUSxTgQ40BbciAGTG3J3VjeMQ7EONAiDsSAqUVsiyWKcSDGgbbkQAyY2pK7sbxjHIhxoEUciAFTi9gWSxTjQIwDbcmBGDC1JXdjecc4EONAizgQA6YWsS2WKMaBGAfakgMxYGpL7sbyjnEgxoEWcSAGTC1iWyxRjAMxDrQlB2KnC7Qld2N5tykH7MzqNi2kBZlHHi3cgiy6fZIYMHV7Eei8DPAfEct7vjFlZ1wsmx/3tphtzj3ZGSR1+jJjwNTpm7B7V8DAgN/2vridwRE/HTGLacdbIAZMO87DWA47iQM2lLPvlStXyqZNm/AmWPeihLYCCP8QkmA4cuRISU5OVospdrUOB2LA1Dp8jOWyEzjgHzrx/vXXX5eBAwfitdh40SLfOuIO4G51ypg3PwSjr776SoeQu+++u37bsK7VC+1mGcaAqZs1eFeqrvl1aLUQFLKzs2X69OntYjERmFJTUxWIDJDI27YCw67Ubs2pSwyYmsOlWJwOywG/07kW70wvLS1tN2AiUyoqKiQtLa1NLbQOy/w2JCwGTG3I3FjW7cMBPzjReuLHhnLm97E4for8YQ3dW/xoz60sxomWf/vUvmuWEgOmrtmusVp5HPAPrfz3fsDygw/voz1juKW35zEmtx0HYsDUdryN5dwBOOAHET8wBYNB4dCvoYszezU1NTFLqCEGtXF4bEtKGzM4lv3O5wABKCMjQ2666SbZa6+9ZNq0afLcc89pmIGTgZbFveWWW2TvvfeW/fbbT1atWiVJSUmx5QDt2JQxi6kdmR0rqv05QIuJH1pIXOf07bffKhEPPfSQzJw5M0yQxaOllJ+fL/fff7+sXbtWn9PB7fdbtX8tul+JMYup+7V5t6oxLSFzTHN9E+979eols2fPlu+++26rhZGc9k9PT9dnBCXOtkU60/3DwUhGGrhFfjOehUWmif2OzoEYMEXnSyy0i3GAgMJhGgHixBNPlJKSEnnrrbcUfGyPHZ/RYnrkkUekX79+MmXKFH3m3+rCOM25LJ6BYnPSxOLUcyAGTDFp6FQciLRGIn+zMg2BhwHMoYceqoD0xBNPhH1MTEOLauPGjfLSSy8pePXt21d5Y1aX3RvDrBx+E8Dsw/gsy0DJ0jdmbXWqRmgHYmPA1A5MjhXRcg5EAo8fJJirgUHkkCtaiQZMQ4cOFYLTO++8IytWrNDhHK0pDuMYxkWaZ5xxhlRWVmo2DQGdAY+VnZCQoBZXWVmZfPLJJzoc9INWZF3sdzRau3tYDJi6uwR0oPr7LRBT2mhAZEMyAgKBgI5tgkh5eXnYSR2tWpY/45922mm6HMCGc8yT4Q8//LD06NFD9txzTwUoXg1ZOsyPz+gcp6X17rvvyl/+8he5+uqrFfCYD+MYcBmIWjrL21/vaHR3x7DYrFx3bPUOXGdTUiORv80HRODwgwRPEvj888/l008/lcWLF8ugQYN0Wr+qqqpBMGG+BJyDDz5YQe3xxx+X888/X60mWjivvvqqnHPOOZoPgauxi7TRSmL5Dz74oHzxxReSkpIiPXv2lIKCAs2D9JIe5sW9df56mcXFMAMrP2g1VnZXfxYDpq7ewh24fpEgZIrKcFNQWhsEJF60ajjdz2HSokWLdFqfVsm4cePkmGOOkQULFqj1YvEjq26gxjh9+vSRAw88UN5++21ZtmyZ7LLLLrq2ic9oTTUHIAx09tlnH03zxhtv6Ke4uFhGjRoVHgKuXr1abrvtNnWoM3yPPfYQDift8vPBD1Z87gfiyPp05d8xYOrKrbsT6hYJNkZCpMKZ0ll8fhN4aMX4lXHLli1qiRB0OL3PeLm5uXLIIYfI+PHj1Tqx67PPPtvK8mis+szn9NNP16NSOJwbPXq0/Pe//9VjUwgctHDMJ9VQPqSTH8bNycmRU045RY466ijNk3RXV1erRTVkyBD5xS9+oWA6Z84cKSoqkosuuig842flsP68N151V1Aiv2PA1JDUxcK3mwN+K8PuOQzzK5gpHZ/bM1NGfjN86dKlahURkDhco9KPHTtWDjvsMLU4/BYRlZkX01mZ/G7sYjkse8aMGToTR0uJFg+tpx/+8Ie6IpyWU1PAEFmmDdeOP/54XY7A5+Zf6t+/v/DDISQvAyGWTUCls51Wm9XF+BRZj6ZoiozfWX/HgKmztlwHpdsPCuZQNmUzMDJltSoUFhaGrSKCEtNxqHPAAQfoAWy9e/feqrZ8bgrKb37MD8WIDSm1ZcLndJbTkjnooIN0QeU999yj5Z588snqRCf4NQVwVrYBogEef3OGz+pt5RoQM52BMK0zgu/vf/97rfMll1yi9WVc5tPQsHQrhnTBHzFg6oKNujOqZMppykzFolLRv8KLjml/b0+/Dp3GCxcu1BktWim77babDnFoFdGSscuU1ICASu2/LNyffyQPSBfTRTrQaSm98sorwr1xEyZMUCDkdH9WVpbGNWBoDKQiyzXQiaTBT7elGTBggNb51FNPlRdeeGErK5Lp/WDG38bnyLy72u8YMHW1Fm3n+pjCUtF4b7+p0B999JHceuutcsIJJ+iHM2j0FS1ZskRnqghW3ChLMOAwx3/ZEC0SdPwg0BhYWF5GE0GBTmnmyyEX6eNwixYTrRtabVxUyYWXjMdyGMb4ZqE1VV4krY01heVloJuZmSlnnnmmJuGzb775RtasWaP08YoEqMby7grPYsDUFVpxJ9bBgMIPAFTk//znP/L888+rlcJFi/PmzVNH8JgxY+Tcc89VZzOn6O06O34fAAAgAElEQVSKZhX587Z4ptB+gGqs+oxHGugz4syd+XoITvxw2PTrX/9avv76a7VauJSAdBI46RyfNGmS+rgYt7llNkYPn7EOlpe/juQBL9LLz6OPPqpW5Q9+8AOlyZ5b/kzrz6upcjvT8ziMp7fxFPoFZnsqQ8bxQ8Fkw1ZVVatADBw4YHuyicXtRBwwoLBvKvjf//53VXRaAVQwysMNN9ygQyX/ZWBkQ5xoQMT4DQGCH6SY15NPPikz4NCO9pYUPqdlxLVFnBUzoGE46aTi+8OZN4eXDDfLyU8fn9O64iwbgWvixInbbdUY/ZHNzXDyhH6w22+/XdatW6dHtpCeaPxoiD+R+Xam3zGLqTO1Vgel1XptKjaHb7RK6DvhkIgdE6fO+c14nELnMIqKR4XyK5UfaFqrqpYnyyM9pNH8TAYABB7e+8NJV0PhrUVbNEAxXhIwCaI///nPdUW58czPI4vbWvR0pHxiwNSRWqOT0mIKRofxBRdcsFUtqGAGSnxAC4RXNKVsafWpoNE+/vwMhCzMFLwl4ZFltZTuyHQGNEaTlbP//vtrVKOZvCNfCbYWxuetydNI2tr7d2yvXHtzvIuVZ1YPv6kkVBj7mIJxKwaHPZFxW5MVlrdfUVszf39eVoa/rNYql/kYL61OHHYynM7666+/Xod2BCXymVdXAiTjc8xiaivp7Sb5RipkpJJEPje2RMZrCbssb1NSKiqXGUTzMbUk/4bSsFx+ONQyHxrrw/J3pF6W1g9OpIHDOOZNHxlXu//mN7/RLS60Po0HO1JuQ/XcmeEx5/fO5H4blN0QEPiLohCb8LcBCVGzbIyuliqV5Wnfjz32mCowAWNHQSJqJXyBLJPAsH79et0ew9eEGx3mzG8qj+Y+99eTeXMxJicU6H/iM395LeVlc2lpr3gxYGovTu+Ecii0VFAT7EjnLsN3hiAbPTtatuVjrOWQh4sjzfeyo/k31GTGN36Tp/4XXrYFT5mnv6504HN/H5c/+K3DtqpvQ3xoy/AYMLUld9s5b7/C856gRMXxXwzzO03NerI4Jtx+RYgM86ex+8h8/Pn582J4ZH4WFlmmKXlkvfx5bFW5Lvwjkjf+qjbE387MjpiPqTO3XgO0U1D5IShxkSOn8Hk8yMUXX6xrdsyZSoBgHFtlzewMyPyrnf1hjMN0Nnzwg0dkPnxmYby33p3LB2yNkw25otFh6Q30GMdfN3seCb4NsKXdgg14W6tAP4+ZJ3lmF5+19tCxtejekXxis3I7wr0OltYUwqyiH/3oR/K3v/1N955t2LAh/I40AgT9I3bECL/twzz44W8qvMWxMAu3eAYa/ucGQFQYy5flMU5eXp7u4Odv5t8YHZbeTwfDDKCsTD8tO+0esgDOoY71Jx0YiEb7BsIyYrM+yDI8lLO8WE+uqL/vvvuUrzZk531z8/XHi0ZjZBjjk+T2uGIWU3twuZ3KoCDZ8I0rknloGTfJ2sXD0eis5blGfM73rHFlMbc+cIc9d9v/7Gc/U+fxP//5T/n4449l8ODB8tOf/lR33HPfG4GFR3fw7CFbPU1l4P0f/vAH3bTLdTdnn322fPjhh/Lll1/qh3RxNokWHBcMcuMsT3t877339MA3OnS5w59HgBBIWSb3i9GXwhdOsnyufuZ+O9Jw3HHH6fYRvh/uvPPOU5pZf16qnO18wVuHggk0HjiJhoQV2WgzsnZEvw0wePDc//73P10hbjN0Zum2TvVdXYynpBnTJluBU1vxOmYxtU4LdohcDJj4TYXfd999VVm5wJErrqnsPGaDysxXFB1xxBFy9913a6/LYR6Pp/3Vr34ls2bNUmC69tprdec/z0X6v//7P91mxLCXX35Zj47l1LxZPD/5yU8UPPj8gQcekDfffFNBhPvQCGI8tpZT3Ny0y8PduGfur3/9qx5ly3OWfve73+nbSUjH+++/ryBHK480E4Q4FL3yyit1W8bNN9+s4MMymIY0EBjb/aKmqtHDSQQHSgQnBY5adhJucoG00tJrrQ+tUOZFHhKQuULdLElak61VTiBgK/Pdq6+kjhMphFsXznop4Lp/rcr+mMXUquzcuZn5ey8qq/kirLdmz8o4BBQq+bHHHqtKf9111ylg0WrhMSAEB67i5mK+I488Uve40Qq68847tXe+9NJLVfgJRgQEHoxG64oH+BP0mD+tJb7+iAeg8ehZLgok4OXi9EmCDM8eYrxrrrlGDj/8cC2bYDR16lS1rEjTrrvuqivJ+Vpvbqbl+UxURm534V485sfnpMV8Ve3dAnUKSGYZAZA4uRCH7TZB1+eXl5ViS04+OodydA7urSuOxpZbdShFrbE4lMP85837SEaMGIGycWge2pd/LbvMJsIJksF4bR/6AnPQXubHo0VGfrf1kC4GTC1rwQ6bikJD8KES//vf/9Z7Dpl4UYl5tActFgIKhYwCxx6XF6faGcbp73/84x861OM5RV999ZVcfvnlMnnyZJk/f76cj8P7CSI8VZJWEjexshwe0UHgIIhwWMghG+lhnsybvbsdwsbyWLbRwfScBufFb7MAuNqZl1l9THPSSSepJcY0HFYSeJ2yULHabyjnQMkNd2gdEaECAdQJ1umCzz6Vrxcvl/JKHLGSmApfW4oE8cxdBC0d6HnfXnCzvlwdLer+h50lBeUhmb9woxe09fP6LK28RgoxcuL4YlBsxq/BETGVWH4hVTKgfw+ZMmmi9O7j3rVnHYFaTQRKTdtSQNyWphgwbcuTTh1iQEAQIVDwwH1aLbRoOLTi64V4IBlfk824BBn6bjjU4xCMR33wEDcetUHLhdYN/Uz/wTEmtFJ4ZAmBjRt1aXHZRauH1hLzM+uHgEQ/EMth/hz+cfUy/V4cwvE5AYfP6ZPiudi05Di85EmOLIdHz/Is7tdeey18NhEtNC4upOXG/AhuBshmHbZdI0ID3T/PMvF8LgRHWEkLF34q73/wiaRkDZbBI/cGaPeS+MRkBdGt9bYloBStVq2XD+0wwgyvGi41gUVGcCorK5b1q7+Tx5+dJUMH5shhWFBKa6qW1iHiairPocZ6tsYVW8fUGlzsQHmYYpoVQR8MQYlWDUGDiszlAwSm4cOHq8J88MEHOsNDa4cHuvF6G+df0yHOFc0EK4IIX1FERzR9UxxyEWycwrllB3yzLf1U9G3NwPEj9E2xZ+U2iuXLl6vPiD6mZ555RmfrOCQjHQQ+5sOh2dy5c/UIER7q/9RTT+nrlZgXFcE2CDMuaaDV5H+Nd2spRePN6QZSTg+pxPQl0foLyCuvvSrffpcvU/c9FEPhnlKFoVtNTTWGWIin+uq3WkyBHRBsXWbks8jflhe/I9NHxvX/jnxmpSKcYzPvKxAXlOQUWLdlFQjjuregJCaloB418vXCj2XT6kUy87TjpQc6Dp0BBoDB+4Rvy3/r2rTkVwyYWsK1DprGOWHrhUOFBtaI/2oqDp8bqFm6yDQMj8w7Mk7k88byipYf0xPoOHvHISkvlsFh51VXXaXARqe9+TzaB5S8wRd55FWIQziC0uuYAf1uTaXsd8hRUlZeIbXVVWpx1NGBjMjU+xB8QC4lgdwNuZme9XI+HOcwV/7zuaahwxnIp0pPqwsf5BmqJSDwuSOE+YUQz4ZYBBOTBFo2dFxresQjgLAMc86TLl5ByEoc0lXCiv3q849l7MQ9Ye3hNAg6vUMut7SMNFm7crl8u/AdOe+skwFg7l15xv/WaoduM5RjQzR1tRZTmyqnrZ6Tfn89+ZuKa2F+B6YKuPexOPxtQ6LIdMyDYRR8m/lhmL9MmxmzfBiXl8UxBbRlBvbMT4cpFsvgUJT+KlpmTEuHPj+0lmhRWfnMx3/fVvxVej1ocWU64F++fJl8u2yjHHDUGVJSVIr6Ihz0m8iFFHjiJatHGvjrwKS4qAK+qJCkJidJECBbAic2EyTiVE+Cbhl8a0yXnp4BH6HA+nIfIlFlZYWkZaRLqCYkaenY4AtcKSwok7RUxAVO8M3mxSWgA+MrglV6ZoakJmF4hnjFRWWw4mrBR8yoIlDLSMVyDzzL31Ii2Zmp8sn82fLbG38kb8/9UjbmkS6cqknZCtQhfZEMGDxMh3cvv/I6Xt5wosoF27A1r24DTH7GUYhNwVqTmR0pLwODSIuJNFpYc+L460SF4WVAF3lvwGdp/Dw38DFw8ufrp8NPL4+95ccPgHTM+8/Gbm2F8NMV7V67NyKOdgLkZZzMnYe1V+OmSTXRA6AEs0OVWaPCskkC2JQDaO596O+wNr6T/gOGyrEnnCNZ/XJk0YJPsY4rT/beF058KP6SRZ/Kpo15suf0gzF8jZc5778h78x6TnYbNwUTCrkSCibIbmMnyjuvv4ih8BB58blHsYQiS8654EqZ99Gb8uYrL8iEqdPk0MNOlPKqSklPS5d3Xn1ePnj/NTiwB8oJMy+RDADVWgzJV363WNKysuWVZx+XAQMHywmnXyilxWUy64UnpbSwQB594EE56IgTXceigIzV+wDYkpJCGTZyjLz/yud4w0sefIFso/pOKBrftjdsazt/e1N3ovgUbvtQmKlE/jC/snWiam1DqgEAH9h9Q9/NjWO84WuG6J/ixV7SZtQMOAj2DOfHLvttYQYkfpoaooP5mgXlByez5iLzChfaxjd1tA4UlODUh/IXl9VKVq/esIC4HAMqhcdxKm8YHiXES1HhZjnlyL1k7ruzAEr95flnHpKrLjlBemQlyKyXn5W77/wNrKJESU1LkjdffVH+cusN0n9gojz58D1y9RVnwT+YCWCZJeeedhAA6QWclZ4gv/zJhXLNVWfjxZDV8vxTD8v5px8oD953tyQn1cn/+/EF8tz/7sfLHtLkrj9dL7/6xRXSB0s35s+fKxefcQRor5INeevkyotPlD/fcr1kpMfLg/++S66/+iJJSOTJnfnqH9u0aT04WT/SoAXGn9p2GPJl9x6iC2q5hsthdetZTd3GYqKsmnBzrxanwKdNm6YibAJOJbDhB4WOn8gwxmWYKWtjVkIb60e7ZG/gQGuJzmzOuNGhbtaTERHNAmXayHh+gDG++ytifLUwxokMM6vKwi3P9mCIqp7qJ529mEjHMJP+HC4FqOULC1SROUvlfEscwlHeTj3/YvnptddguCUyceoBctGZh0PxqzEkS5OUtGSpBa8CMDoSkxIx9MqC47lO/n7nLfL/brpNzv/emTgWWGTxos/VAZ0QHwQg1sh5l/xIrgZA3f/QwXLZecfKn//5jOwxdYBs3Fwgcz96V446+TT51z/+JA8+9absfyAsOhh0M6aMlUf/+x/Z74DDlK83/OYvsveMXWWv/Y6SKy88GRZRipx0xgWybOkiuQq7ADZsKNV4rKvaTAChuDp26jj7KjnFO52UTHH1bq026FbAROWhonCrAxcHsve38bEy3wMjYy7jR4YxXiQYtVZjdMR8zLJhvck7vqiCYdw6wlk6/uYaJy4f4BonnonE4db3vvc9fd02V5jzDSlcLMmtI/QRNXZFAyt//KaeN5Z3azzjlDqVUqfIkWF8AgAJFohadmoq1ZdCw4qO5FGjd5OCzRvkvJNPgi9osw6FUpNTddTHvOjIVsXGPyejCbJxbbH6ksaMmyzfLS2VnJ5JMmHS3ghjWXUAs1QZljtKVufVKEgNHjICIJclazfUSBKWJ4SCIVmOrUdxyP+WG6+Vm6+r1LaqqiiTLRg6csFnTo++ktO7n6xYQbBLkuTUFKnE6v7SEr6soVo2b8KsHIhSntMkwlBTQgQo+pTwsoSqUgCpe0FCa/DWn0e3ASa/ghFYOG1uPa319lxQyIWF/M3Vz1xNy31eXEdDheKLCYcNG6b7vTi9npubKxdeeOFWryHa2YrT2gJi+bFe5AsXSXLa/6yzzpIbb7wRQr1CzjnnHLn//vuVP1yDxOUHnFEbN26crptiGLejcHkCF0SqEtOioMB3ssssIpIdwpCVIJCWFJCigi0Aj96YjaOfydWrFl7p9Mw0mfXKc/L/fniOXHXtzTJ17wMALqVy2bknwPrgbBcAn47o+ABkDJkCSNhZpqQlwiGNNw0BSDKyaVUJLK886T9oMCJxKIVhLjtJWE8Ew9o6zvhhwSyA0m0bgfUFsAki71/cdAf8VThtE/6pEgBjLyzT2LBmgzroQ3UAJaSBgwsfTH4wbywXSIhPBFAlw9kN5zcvxSY857CNyx/wL3/TWhm494HhtmxNy7Vb+ZiUv57QUDl4GTO5+I/vFSPw8J1nM2fOVKWjsh166KHhRYbs/amQXBDIhYIc1vBifsyrK1+sI7cocHEk1ypxDxz3stGq5MZgLurkthUuyuRCTG5JYZp7771X10JxNbpZpp0RlFzbOkANKyGUdcrE8fLN5x9ICpSfs2CqtdBkKnBKYlAWYeo9MztbLr78Ktl13O7y5CP/wQxYHhYo1knf/kPkywUfy3q83HLF8lXy3NMPApiqEJ4sU/faX353489kc94qef5/L8rbs16UdOwVrIWFpZYT5Y0dBsqsqsSaMu8vhOFecVGBjJ2wC/xHOfLGS09h6n+sJMOZftWlM2XZN19LSlK8VJSXKZ38AA5hAVUqWAaCcbIpb6OsW7VCMdb6D8Z0oJkpq+A475EWL3379VV6Wruj6TbAFAkYFCwymRtTqTzcPsEFfxyCcCFibm6uLkzkgkBuNiXjOWThgkBaDVS2o48+Wk8R7PzKFsmd6L/Jg0j/DmMaL7kRlyu2uU+OPORQjtYmfXncwvKnP/1J+eh3jkcvqWOH0tdiisg1QqNG7yoDeyfLRx+8gYWVmSCevknsKYNFUlhYKaechWHtkJFy3IFT5aJTDwNYZMnkqdPhM1ooR554nEyYsrecc8oMueaK82XSlH1lWO5ozNTVyh1/fwSKP1AuOO0IOLgfkLHjJ0hNFcoGcAwanIthVJKCQkpyGjrOoaAKMo0lBD179sOnrwTi4+SOex6Vt998SU4+bJpcet7RcuQxJ8v+hxyMGbsqGTpsFwdsqEMiLL8hw0ZIeUWl7D5hqvTq3Ud+8P3T4JdyK/PZxtSTNCxfKNi8Xr794n056ghYvw4btcFas7PpVkM5E3cymfvH6DMx5ywVzm/xkMncsPrLX/5SFi1apMdL0H9Cnwl9K5988omedcTV0VRIKltX9D2RJ8YX1tFWfhNoeFwKrUryikDOfXjcxsLNvFwYSYD64x//qMelcNMu+elvg9YU5PaEMlomBAFeXORIcDj22GPk6aefk7dee072mHYQZtgyYMVg4y6WEOT06C33/PdFrH5fIqmp6TI0dxgsJr5+HNZVKFH+cu9TsnLFUsnA1H2PHn1g7eRjHVOlPPKfv8vVv7xFBg4dCDATOXjPPWB5ZUJmRe554AWJT0qWzZvLZPykPeSu+54CNXHwH5XJhZf+RGlbv7pUxk3YSx55djb8TUskKztH+g0YhL2IpTISfq+7H3gW4JUg5aVlMnT4LvJP0Mi6ZeX0lQeffl+KsWQgPpgIyw/AhbLoyF+6eKF8t2i2nHLysZKd08MbltO+cXLSWm3abYDJr2AEoQULFuiwg8pG/xF31VOpeCYQtz9wCwWtJQ7vrr76al3sx+0WdPpyb9kdd9yh5wZxc6pdLKO1Giac6U6+YX3MSqID+/vf/77wXCeCNK0h+uq4R47rjWhZMpygT98SzwviXjmCOU8YoN+OPOoKAE6+KGCTP1BKWg4nnXSCzP5gjrw/63HpM3CUDM4dgzVDmVgBDr8P2nHXseOwrkkw41aDIVmWtqy6FPBwF1hd1XhWi0WXaRk9JDMrTtasXS7nnX6wzDz7Alkw/xMMtwJy+tnfhxUTJ5kAu/qLw0tnuTLMZJD0Mf9gQrKM2X08rCks0oSjPAWOdybwp7F0liYBOpAO66+6uk6qsJJ9DYBz5dLPJCcjIBeef5YeP0PdoWzokS8Ea/Kjla5usyXFgImM5PQttznYznUqCn0lDKcVxDh0atMK4BQ5LSSGcZjHMG4s5XlHgwYN0o2kBDYThq4GTNHkjMJuYGXPmxtmwtvZ+eQ6IWKKIoKyQZ3RkJMSzGrNm78Afrc1UgNQSkztgfVBKbp6OrzOSVPQgYMvJFf5hIIH4ISuw+5+jNcAIMlY1/S8fP4xjpDp11+OPvFMScvM1tk68o9/9ZcDB5efBxBEHl7M2wNRTeOVqQWHf9dbPLQG6djnOrWa8hJYfcXSKycNpwuMl2G5wzVLtrfSgE9btGm3ASbXQtv3f3OVbfty7Vyx/ULHe+2BOZuDb+3tcble0wloZBh/Wx5M5+/NdxScLN+OxFHS5AftzVgZvXnzZu/YFry4UsGAcOAHlYgaGFghbkZGpg6jCBRFRYU6ja/5e9jD8naUj650owy/CLAYL9KXmolV4rSGk7CJl1e9leRq0Xrlb82DbjWUU1Z6CG/7uiyMSmOKxzBTNjaEKUC0sMhhSesIydaNtDN/+evDe1M63vvrbvEiLanI38bL1uBTa+TRGrw15TRQMjli3XtiRTg/nf1yM29OL1gXtyShtUBxW+50G2AyQDIWRK5IZrgpm8W136ZMljZS2SxtZLxt2d35Q/y8MYVkrey+uWDhT9tSrkTym2XX0pHSmDXS0sIaSMcyKQ9Gi9XLOjr+jqSzgayaHWz5sXOlT5TLNuj3s/Bo8tnszCMiWntyTyAv1/78Zr0asfpaWqCXbhtgaq5g7WC5OyW51a2xOtrQg3HoAOdhZXTw2tVY2sae7ZQKt1Ghfj6aMjCMjm4eoctjeakcBH8qKD/8zUmFtrgMDP773wdlDcrnsMNtKvX8Ka1dqA6jOGQL6ikAM2eeqr7HhgAomlxEC2sOmX7woY+UPlBuarbhNfNtSd7Gw4bqQNqYr8XTwWjb4RL2AMYu5YBfwYz5Dz/8sJ4Aydk5c/YZu1rS+F2R1cYr4w9fVMC3s9hxuwQnDoc5m8dD3RifIOW3MsiXlvDT32ZMv7mgUFKwoDAZs06OHs25DdhOawErq3FWUX5BEfaxFSv9LJP1akldmkNkJHjQd8VOkx2BPWtp2ZauqfRNPW9OPZoTZxtgak0zsDkEdJQ4xnBTMB5IxiUF2Vix69/sy3imEB2F9p1JB/lhPElNTdUjebk6nFtSqDS2HIPbUcwnRR7XO1EdcETytDkKYHEsbSJmR0MBvi+PzvmWWQ7N4iWHZ4jIdT2ckbVhW3Noblb+jURiXe3z7bffYl0UzxN34G/ltwcdjZDYKo9iwOSx0YSbSkNB4xGvXKPEc7JpMtv76VuF610oEwMlftswmJt12YvzDHEqDbeocI0YX17A7T1cbGkXAYppo3WI1iZNKRqfaxzOAOpxkVwbxBnDFlpLlsybTVda7Z7fNJc0zJ0uyZ/GB38SF6l1/vcDt/GKW4B4HDKfReNf65S8c3KJAVME380U5wshuRub71XjokruDYsczu2cJutYpUaCBxWUTlmeHU7LiRt4uUaMvOPmZ66S5x46bublENn8TgQoXn4FM2Vvbo31qBGACtcW6foivfDNozrwRxp0fxmuIJ25Gtk9d9PvTLN1XKZTx68+8vJkMuKfB4hugaFm21IodIkb+d/PCwNqTuPzYhs0Bd6NZN0hH20FTLQUuloFt4fr1vNwQyr3ydFM5quE+IYOrlzuzrxpiI/GE1MOflOOCDRcLZ+bm6sLUTnk4SvLyU/uS+SbWviiAb7UgCDFFxLYZW894e9o4NRQO4RhhTjifQg0nD2iMzw5BcfWYoc94YPHkVTrmiAijCtZrS0PwLiGh8fP8nd5eSlADZadI8jF97DKpfQAy/1ok/+tA7BvBVnPujceNcSXNiGojTMNAxMrFW0KvY3L71DZs9H5WYOd3nyzB09s5EZUDuPo4KQFELOaojdZJIDQ8iGvCEzkqQ3zyENufOaHR8oQ9DnM43lOh+C1QHy5pcmh34qKVDpT0OjUuFC1fXS4hfPCMSM4D3v31uAgfR59O3nPaTJw0ECsaq5yHY5aT1T2OhyFmyiLFn4mi7/5SveS7TfjIMnEQkc9qxxZtz0MNVwr1oW85Ztm6GrgKRfkLcP4LJJPDefUsZ+EgYnC0FUq1VKW2zCC1tH06dP13WU8QWC//fYLH4jf3XnUFG/9/OG9Abnx1gCKv+lz4odHzvB1UXxdEzcGcxMwrSie9sCLCme+KMs/Egij0UUXtR7ID2uHQ8YPZr+Lg/bnatSC4gK5+JLL1XLiG0loNXHYpsM+pHnisUewpWSpxp0waQomQXKkzntdVbSy2jrMgNjqzfPAeA5WV5VHBSabWWhr5nbk/K2BTQCoQDNmzNCe3Exm0t9VBaE12iYaWETy1QDKwIblcuaTPil+ONlAK+pXv/qVDu9oRfH15TajZwDFdGGrib6eKBUIAw2e21CO5XO/2sJPP8Pu+SK1ziwffnMItwonJqyEZeXiYoW7WiPITfPhtzf2i1JmWwWxbJPDN998U3WWw2CzllhuV5LN+BgoOVEKC7mvgfmaIF58FqlgXUkIWlOZmuKLn89+kDLLavfddxd+uKH6rbfeUj8U15PRUU6fFU8ssDYJKyXah1Dhz3vbOrlV4UwzbvxY+QKH/C1bukTG7T4Ru/3xqiOAD5/xpMd58z5E8jh0SgMxrF+pWdGdrt/tCErR6sOwpUuX6lDYwMrR5V/8qKR26iveeqJOXYtWIL4xhfI/ayxeK5DR5bOI5J8pX+RQj0sMTj75ZP1wPdnrr78uN9xwgy414JIDWgvmi/I7y8nAaArtnOHuXMQpe+6lwPTx3A9lwkRYHcAcHkzCg92qcWbUnNnv4XVJ4/HGkRQFJncigNlk/G57i6mxzpCnXFg9bQ0Vf0fytjMLU7c9wbKhRqNA2IcHndERzt/sTaMJfEP5xMKb5oBf+UyxqFxUNvKbwzbG4Usvr7nmGnWS85XlPP/pxz/+sZ79lJeXpwBlwy4kaFBBTXGHDM3FaY3DZR6AiUeUcKEkj9NGgdkAACAASURBVMFNgrW0YsV3krdxg0zf7wBquqtEO1pJxjXSanLIe7MO/eH+uF0JlFivGDBF6I+BEBv66aefFq6uNcGIAVPTYLM9MUyZ+G0KZ98EGr8VRZDiscY80I+H9HE2atmyZXrC6C233CKffvqpO2/bU+hodFh5KbCEpk3bV4qKi2TpssVYr+aOqKWDfO5Hc7TciRMm67lHerW9gbQNuX5ZY90J1pyJ45toeFlHaeDV1WSzSwKTv7G2994khOl4Sh99cP5G3978uqrgbKNJrRDgByryzf+bYMEwDtv4zaHcddddJzfffLMO7+677z755mscsp+S1KBla+3IV45PQnpeH380X53b9DFVlpfLR5i523XMWD3zmksJ9DLLqRXquL1ZEIAISnzxBWctuTjVkeTA3EDdeLW9+XfU+F0SmPwCbYxvScNxKwpfVtDSyy80LSm/peV2hXT+NjQ+sl7mE6XC1tTU6nEfZ5xxhlpRw3JzcSAb34YbbY6uHl949viQwcPhSB8AR/dsrFErwlq1FFhP38ombIydvv+BOMaW7u72NZWsE7P2428CMs9Z54scrrzySp2pZN0bqmNXaHvWoUsCk/W29h1NyCNBw37bEIK/uX5pyJAhKgTmw2goXbRwE7RIgesqwtOe9TBrJ7KdHEDVaPukpvBUgYZ9TJxb48U0PBVy2r7T8fruQlmyZDE2HGfA6f2+Wsh8G0mFHl/r1KM94ClSVvnblkbwaJPDDz9c13dFropvzzZoz7K22SvXnoW3ZVnWq7C3mTVrVnjV9vaUyUP1ua6Gb0Rp7kXFoZXF1eLHHXecDisYZt/NzScWb2sOkIe8DKDcUwcZNszTNscri7aOsy0nmVVVdSVelTRVnn7ycfnk43kyZepeMvfDObL7xEk4g6sHtqtgRbgdjrZtFm0S4qeb9TU3wpFHHqnlma/JCu/KMtVlgYmNRoHlthKufeEmXB5kxrDmXgZuphRNpTNBoQBxEZz5B7qD6d0Ub1rreUNt4Swp+qnrO4KGyqQlVIXh3MDBQ2TAwEFYbLlAFi74BEO6Qtln+gHabrziIEPtcfk7L5MZyhA7Ra7psjqb1d6VAcn43SWByd/Q9EnwlACu6I1c79LaQucHJpZpPWBDytTa5cfyo1UV3b9kbUEe0WLS4RyWB+y9z3R56olH5ZGHH8B73bJk113H6YsDKC9+p7c/fWvw2S+jZlEzzHxov/3tb3UZxIQJE7YqLjJda9DSEfNovvnQEalvgCYDAvumEO6MjwlcA2TGgtuYA2rvQNn9HYYLctZ0NV6rPWnyHmpFc1/cJLw4Mjs7y23WhVVFq8Xi14PHjhMdCS78bcDHdVlcs8Xr2muvDRfml2lLv+OUdNwcuiQwRbKbjer/2HNrbAogP2bCR6bn72hxLcyeRyvHHydavrGwtuOA2k5e23MBJR3cWXjbra4Yp58Jb8kdNHAwVn9P1k2602A91YZwggCeUfl5EgLj2+pq176tQ68fnCh3/E2ApKObx8Rcf/31WlB3lakuOZRrSnQMLCgMFDpuIuVFcLLzmyPzMEHiVgkKEB3c9FnFgCeSUx3vN9uLw7NTTjtTTjr5dMEGUaxRqsQWFJEaANGlV/xQavB2FQ7tuNyAK8Gr8Pz8i76vr8fmkSm1OLtpR9varCLmw3tzZtvwjWE8Y54fkzfjpj9tx+Nw61PULYHJGpkCwYPLuFGU/ieuLOY+rGiWE4WJcbgdguubeIY1HeoEKOvVWr95YjnuCAfCFhMyYZtzlgv/6b0pPr+5Ry4JVhTb3d9p2ema/vhKTzN94iZnVgd/3gyj/HFN1Z///GeVJR63Y8PH7uTojtbG3RKYyAgKIR3UGzZskEsuuUR5Q2HgClsuYjPAYTiFhWY9z8Dheda8jjrqKAWxcqwWpoDtaG+qmcauVuAAUcN9+L8eAc5vdCz+DsesFvv2g4iBVrT4JNBOGtCcCXIRVFt6PxBZOYzK58ybp6Ryxfouu+wCp/uuYWBk3Ej6upt8dQsfU4TchC0cCghBhT0pPxQWrnniGiTruUyQ2Hs+++yzmhXT8A0gkQIYWU7sd/twwCwa961YoR/FDY8EP/AwyH5vb7hLW1+Ggp4vP6uxnyaGUZ4McPjNZSw8FO+ss86Sn/3sZ/rCBv9zky37tny7y3e3tJhMGE0QuHeKJymuXLlSXzt06aWXhtc7MS5Bi+/w4mH6udj2wDPB9ZhVeklj107jgGtHm9hwFm88OhD6hNjJBBppHwMUEu9AhOmb2Z60eJAuEWeC018VeZm1Y3nTEmdnRp+kWd90G3CbCcMZZkM3S2Oy1V1lrFsCk19wrOHpM9ptt93kySef1F3rnBnh+J8Czs28r776qu5Z4m72X//612FrKVIoY7/bjwPWjmodYXdVGRS/YP1GScZLJNRf1MCaJqVQzRzeYEGmBxzsoBpNowmZBMM3pE/Aiw02rl+vb14hLTb081s7BBzm++KLL2rHdv755+uxzYzPZwqg+K7PurEtNeFoXf6mWwKTv1XNemLYqaeeqhYT3yR72WWXqf+IzzmMe+SRR9Q5fsABBygwsafzp+3yktJBK1hvUdThaN7jMURy5zNp2zRiMSm4oE5Mz/1y7HTGjhuns3BM16ilognxH4/Zxd8IdGomC/ymbCgwIp+vceLB7bffrrLzwx/+UC1zxjEwYpx6gFWkjF3gQLcHJpMCmtmcpuWKXx5AZqcEEpT4bjn2dtzFzt3svEygYlK08zjgcMeZPlT2ESOG62d7Lzqh33///fDExvamZ3wDJN7zWGBOlnC9FL8vuugi3YBrF+P6gS/yd0vK72ppuj0wmYBw2MZejW/n4LCNwzm+iIAbebnvjUsEZs6cqWY5L+shu5pAdKb60CjyxmNq5dBKce1i47QGfEYIZjxaRwQPti/BaT2GZb3R8TCcwzvX0NE4wlk1WmSwfNTicUMyzui+9NJL6ti+8cYbFZT4phd+bJhn8mbyE+vgovG3ix57Er2qTYdSWE4//XR1RnI4xxde0uTmYfhchDlt2jR1YMaujsIBBzyq3Pr2EjiZsWqSb9mt/+b91h+CCT8JACVaN4sWLdI2nzdvXthhbnE0LV7vFAwyf9bbZnLjkT5By2T5d911l9xzzz26vo2v/bJZWwKSzchFDt86Chc7Ih3d3mKyRjFHJH1ItJI4lcvZOfai7AU5jGO4WUx+U7wjNmx3oMm9scQbyuHL7KT6u+gWEy0idToDmObOnavvtWPb8tjaY489dmtntGKR8/0YsLADe++993A8Sk+dMGFep5xyip4uqYs4NYlL47eQbMhm3zEZalhKY8Dk8YZCwuEczW6+tolrlrj4cs6cOeoEpyVlAtUwO2NP2pcDBjx0QburHoqigxJjETLooOYiWs6W8Zu+RQ7nlixZoi88MCvHDyIcor3yyivy0Ucf6XKRc889N1xdzuLyijb1z3A/CMUAKcy2Bm9iwOSxxt+z8cB7vojgbbwd9uWXX5bevXur85IC7J/abZCrsQcdngNsbw7L+Upy+hI5wcETS7lX0nxVBC9eBlKcueM73bj6n2eO82Jc/yyc36ri8xgIKZu2++rWwGTmtnGNQkVh5TqTLJzNw3Ok2YPyjRx0ZNJy8gtaZPrt5n4swU7hANuQbcc25Wu2+c46WkFXXHFFmB7KAt+8ws6Js2pcy8bXSPHDi+n9QzM/IFn+MVBqefN2W2DyCxXZpz4HCCOtIvagPM6UfiZe9B8QlPjcwIjxTQAtr5Y3Qyxle3LADxy0hkaNGqVWsa3m55lI3MPGFf6UA9uuRBqtrZmHfQyk+NzAKAZKO9ai3RaY/MLJtUr0MfhBh2DE93hNnDhRP2VlZdprEpwYnx+/kO5YM8RStycH/O3Ge77+iR8CE4dlnJGlPNx55506M8vLZCMScGKdUtu0XLcGJlpHdHbT6UlBpFXE3pFrlmbMmKHTxzbtS4HlmT6jR4/W+BRY+iPMD9E2zRPLtS044AcX/z3XNBFozjzzzLDlY85sPx2R4NQWNHb3PLs1MFEIKYy5ubk6lNO9Up7/gZYRwymYZuIzDgEsMn53F6LOWH+2vVk7X331lfB18HR+c0aOlwGSbT0yMDLLqTPWuTPR3C2PPWEDmVDym5aQnb8UGW6gZOEEJ8b3g1j3EFa3LsftMHNKrff8xzU7+s+FK391Ur5jX+Yn5Cp/Lo5cvny5dkzmbzQ5sW+TgZ1dKz/f3b3Hd68twmHhNmBbdPz28PO1W1hMFCgKGz/+KxJQ7Lk/nPf2u6HwSMFlPtHS7GyBbmn5pgi2Migs4h4Yaf3557GXu+3d1bGVgWTWYmtJNXxLkyZNxnakQ2Apoe2wKsqqsE0NwnVrKTdbKx2pVMa79aReG2ju2i72bTWwlesao8NfXRqYDBzoqObKXn9P2JyWsfTN9SkwPuNyGOAfAvgBrTnldrQ43O7Bi19uKSNhyE25E4ww6vVmqDoa5Y3Tw20rrFFFaaGM3mUY6rHtMs3Gc+g4Tylj7Hf58mDKIA8/8P7ziPQhWMchu0FKuiwwsaHoJyJIrFixQjfocmbN1ps0yBHfA/qfCGbMg1dTAGXAxOEftzmYv2p7Aa45tLVHHIUf9r6evvKe9gQD6oBIuv4Q+8jYP5eWV8mWoloprazBwf7UkPagcAfKYDXYkQCM4nNGS9+MEfLF8kJYfd7O/w5PP/yjeGlCWlJAcjLiJT01QffzsYVqIbPsQKwT2ZpLW59ssAMcbNOkXRaYbM0RN1Vyo+a6deuazUgDGAIa90NxZq65F8GI/qfJkyeH1z01BWjNzbu949FSUlDyhi+0kkKhWigEwSggqzeWyuyFW2T+4lJZu6lKikprMCyiYmgifLbV7m1D2q5WNohpqART3MSkdFXiireX6LcOXT3qm8rD4jVURmuG19Pi7oJcuhKP11KlBKVfz2TZc3Sq7DM+R4b0c/LKN78EA/UqrnsLrZdpTcLaIC+8Bbn1Bs3mx6GFQWcy39tFR/HAgQPagPSmszSAaTpm9Bi33nqrHoPCdUwtuXa0/JaU2ZppwhYTMmVdCEzcbb8mr1gee3OjvLOgSAoBRnGwLBMh/1QUVXYOJTzlDptcOrbg1ZGgydFjvsVtj9Y1gG2Kq+1QJ8V5P7C4oTQde/ST0UqtrqmTrNSATJ+QIWcc3FcG983UZ2wL1zmybfi7HehtimVNPO+SFpN/6MT7SKd3YzwxMOFQbPbs2bqcgO+Pj7aepbF8KAj+leKqAgjr8BcBSPXR0Up9cMM3HvcRJy/MWSP/eW6z5JVWSVpygmSmc2FqLUTfDenUUlIl8mqq/R5+GC7V33QQVvBMJT+tfrLCRDdBa3PjNZFNU4+Nl4yHIpVssD0eHUJCfAB+VLyrriYgL3xUIHMWlsgFR/eW46YPVHDS+Nqu/Ofo1fQdVCa7JDA5fns9CtuO3lltAxcWDSAMzAyAeAQGTxvgWT3cP+d/K4rlpZn6LgM1yysSICPjd8jfnqDS7KdjWx3eEGz6if/1/HJ56JXNkpSWIFnpeKsMXG81AKVACPwNUOI9MGMaVM7Z4qb1HbK2nYwox0vlrcdj1wmg82UAXaFot5zURFhPIn98bIOs2VQtlx4/GJ0zz41y1TX5Jzx11NbpksBkjI8GQNHC/NJJEGMcHnfCmTzum+JmTi6+M8uroTx2pNyOoiEKrhR8/Thw4kFp/wQo3f/KJsnJTKQJBQvSxXB+KA+UvOGajjgo9B1V6jsKs3eADuOxayxrMWYYwtuFIcPBkPRID8qDszZLJXyePzx1BDoSDOJ8baK3HbSRnCmxAwzqSkltOQFPFOC2E25PoY+MR+3yGYGnIVDqKnxwbgzXl3KIRlB69v018uCrmyU7C/sDIdy60sdDHudTcvLN+7CPSQU+9mkzHniyqBw3Nuu9AynOy3ESokdmgjz5Vok8PGuVDsXdGjM2nus8OqrcxoApomVoMfBsHp7Tw+N0J0yYoDvPuX8u0mfUURt1R+gy/1II47gAZnRWri+Vf72QJylp3EdGSPKEGvJv1pKtc9qRcmNpd4wD7mhhN0HBnMyiCoVqJD0zgCF4vixejb2dGBHQ5UTArPMs3B0ruW1Sx4DJx1fzRfFsb74/jsB0zDHH6Gt3OKwzH1LbNMXOy1XBRv8Z7DjBpZ/pv6+uk+LyWkmih7gW4BRgX+wuCnZ4KLfzyI+VDA6wLerQq2CaXfnh7Cbch/CWafwoqw5hKL7GxyvXdtbuXn/TYXgZAyavKfzDNAIQneCHHHJI+A0XnJ3TBu+Cwzm1eBRkXE9Lcz+Iei5Zg3VKXxRIBmbfatjNxmFpAOI6x6sN26gEBlUdRq67HSH1Qzo3nKujnKq8cjmBSEZKvHz8VZl8tbIQbUuriUDGCM6n2NEYFgMmr0UIRmYR0XLih2uYcnNzw2BEULJ4Ha0hd4Qes5QozAQd9ryU6rc+ycdRMHCkYsZNhwbqv8Cl4OR65h0pN5a2bTigs8H4sLWslWj9VlSKvIk25QNG8dxRiMP27ljtGQMmTzbMEmoMeAy4upwDXOXSSSuFmasruGDv08X5mABwzm7PqHI9rFpXHki1jW7Fct0BDpj1FAYctBUN3sQkkc++KcYsHSY1MDRXADOU6mDtGQOmKALgGkzk3XfflZUrV2qM7VmkGSXLDh2k1pDXt7LudCdtLCiXdZt4XhVfhe4jX++JZB26St2bOG0bwhMb1rNucRvELPPagpCs21Km1pI2JUcKGt/fyDuffTFgimgDs5hoFfHVPnwrBu8JTAZYO7/ZWpcCDt0ITBRl53uok/VbKqUIG3KDWA9DyfVk3bP/W7f8WG5txAFFH/qcCDvYrAx/U0V5NbYUVWlno/LMPqZjYZIyo50WWLLmFG3P4Ra1HToKd0gH6QzhjO90SUhM0HvXo7jwqOS3U6BxcluTxfFXBc3BSLMpshdHqtWkBeDVRhXOacpMrHdVAVbHROzqFBzQ9vL8gwpNmFgFUJWUYxLDa0f1G3IZSF39yvCOULf2ASavR1aVIR/omMMN18rwCvAQme1UprZinl/vKsqq0JKkOeB21HcAnfSTsPWiTw+y6pFrO1ikjaJHgLD+BDYsFoa88q7emnJN1KICtoOWWNRW44C2JfsatKKuQcNsHH5XwcfkOl/FLQ3raEOndgEmHSaoxjuLicLO4zMCelCXSHFlAfalVejznQ9QHo2gd+yUUZKcHZBNRevVanJ12LnoRA4RyDNSMyQxmKL8C3G/msAXRP5RGD2/Avnc7Ms1j8uD+Xg9KPPUVgn7IrYjV01DpeC3o0tlQMNwx96cBOq9j27vt9FuQ43IvBxlrLJHPLNyPR8ptn8RLKhv33B6T+x0ZOPvmfwpjV5HqPLEDZOYHygIs9r4Ve/bYVRHFuN5pTIfX3s5vrgg14auLuFsI2rR3J+ONkcjfYfMz/HLaHG6Saq2o2WbW3yL47ULMLlG0aZUMaeSE5RWbFwsbyx8WlblfwsUL8dT+jOA3eHW2NFmaTFfNCEXVX79zRtS8yV2RO7Ey69AVDzYb1hblC7jh06TQ8afhCNHksE5dziYU3IImSrQdhKN+A4q6pcDUFHdEG77s3M9Naj3AZGqxVZApfpdD1QKqvztoQVp8uqhtpuHAK563gM/aPrA0NU+ggkEETywGSl/nozfkIJutZjU8iDIGPHGbI9YXU4RjsfyvNwJfoxrTNVqeqV64Md0rs09HmxnM/qjO3Y5EKJsuFbUG6VD5QnEhdhGO1BOaydtF2DSxnNc0S+C0qKVH8v97/5RKupKJSmIg7pMxuCgY7O4y8cqXxYeV12WFsXfhnZv2URyzZ+XJ0Bb5enFLywtcsMbf5NtQ4dXWENlav7MEAkj00bS1cRvCjs38ePkHdlcWiYvf/agLN/4tZx/4DWSkpgWHiK3yGLyyjZ2+jiPJ37mNkGk77GzDhwQBbhPiwfIecDBbx3B88JcttNvB4iuSRyz+D8Xe4YYx6mSJrGmVcrwnIc3ahwFQQ/A8NDkShPxUkDApc84A+nydu2DQCXERfH/H17hTrAJp2PciDT4rZRvFc8rk8RodNdxKHgpIBjNzM7l6UCd9G5LS4tDNC/S4jLlnR0KoWxpzbJaTKRL2E5DS9cwNhzaUrxRHptzl9QAhNITsjFb4Ma4PGaMg7t42ARxcfjf63HYnmQgTVESrB88c9+8hw0BKed3fTifR/t4eWk+HAAFvXgWXp8mHgDKpy4fVy4bUMsFfUFABCet2OOwTZVGo09/W/7MI8pzi6uK5dUnnH5b2oMUYD3UGXThWNWstJ7y5boF8tKChzUc/R4+7i+sucivZZdfSlsmsWolECRAdzEOlKvBanobarFNyysxS1QJZxazR1y1EpyoaDryugbukGLMJGkwAjRLxKcyq28E9zXYblGCOMpBLc+V60ADv0mIJtTH+iGY4QRkKS6rhrXAR4znvl0e9fnoTK0mdqTW4GSFEk3nT2NpvfwRuRb+yWL4KZ1Hh+H1+fBOwUDr6WXs7UXUn4zr5e/oZlnuw+q1/Kpvy5a1astL3p6U1Je2v9imbHxPID5e9rbkl2+S5PhEzBLUqIC5eS/+HydVWNxXU4WhXRwPIMOFxPzW866YD4TKa2IvPCSlGApiHskXzoZFXJfcNTJ+u3IYDsHGFovyqkr10fB3fVwrx/vGE0tHcnhfVVUCu4VUwOhUupCe3yxPP8g/UCsVOMmzFvmzXpoH40V+kFAnAqit4Wce/VpfTe6lc7mzZC6CTMeQ7rPlc2RL6QYsmgOs87ESpDcd40LdTjuop/TLwdYWgAitFILS9PFpMn1cJk5wAMBr3Qk0/M+xogrAMaBHvJw2o2e4SgQUFVooLa2kyqo6GTkoSY7ZPxtyg+UNeM4svCjKM/2J+MR09bPgUwU6BvUOyCkzekHMHK8YT59zEkCTsA30TvPjicI87qVPFmg6qA9anq3gLrOCrA61SJudViczD+4tOPlWQUWr5n2YiqnZ6VXh5MkQPnFxCZqZSqJXT7U6STsT++rmFbvjX8zWFbrjebViDu0DTKw8WxDfbKA1BStUiew1PzRf1TxGU1cCYMYOmiAHjTtRz5ExIXPDGAoMrA9aR/horwlgS0lIldOnXiJpCZkohAKrtgXKpLJjaEjHtVovzjJhI9dhXVJyXLKcvNeFkpncA/uJ2OM6K4XxyBiXjkpO0mnN4QnSxtfFy4lTLpE+qQOkqq4MDxHuAQHLcWc6ITYU67ipZ8uArCFQmkq1BJ2VxtxcT0k7J0jrKw7nHGkow6mbrKPRwVAXn0KkHxVSDkWC2KBZJJsKNrj0SocTYtzs1IttR3L4OXVGb+ndEweYAUx5/EYFgGnf3bNk2rgsKa2q9WQBgFVRI2UVtcrvalhY/XrGy8kz+iETpANPGMZNxQQk7pSvAMCMGJgsJ07ri5nEWilBXnxGcOGlbYh7nkVUinQV1S4dwWBQr0Q5aUZf7TiUVuRfArrKUT7viSJMz5XwrEMZ5meKAKK9cwJy6kG9FGQYzrQ6BHPjbCmrBB3oV3PSAWAH98fpkm5GjHvWipF3KcEZtNGlUQDL67wje8h+45Mlv6TCyS4yLMdJbyVlGLSDbsq6Ahs+zi2yU5u1XQpvF2DSfkUbkMoUB8GphNixaFMiPneKVlVbJf2yhsmogRNhEVQjFrob9hja8IKGqoKA5WOdTRHsI2g+wuODyTI+dxq+E9DwRVJSUYyTFQk0sGZC+KBhq2DfMLy0sljBjMLE4djucCAnJSQ7BUIBZXheXFEolSinDmChgodya/HHZyXlJbC0amVC7p6SmpSB84mc01lrQgWAFVaKckoq8wFatTJ+yD44LL6XLtCsxh9nIEvKi6QKs5LBQALOzC6AE3svOXriWVJQlIf6oDDQVl5TJkXlBVDackKS8oplGO7oty+8BsCnQxb10Tnrr10kqJFCbLaKTUdFDeFFBc6ypAUAawd7t8qqQno0bGZqEFZorew2IkUmjUgDv2CPYoxVWxsAH2qQDqAB0OqNkzOnj0uX3H5J4DOGgbhqke/mYuebnDYqHbKTiD1+SIP0BHeu20lNDcleu6XJ0L7xeFsOLCvYr1W1QSg/Z4fd8ohayMweI1JlwvAUqa2ugtXugJ/WHReaTh2TLKP7J0tBaR2GaK49FNDYFrCOqxGPdd1zVKqMHoy2BQgVlwLkCKAoMy05JPuNyZRxg0AfgKcO1leP1DiUly0jh6ZJL5ydVIv2KwO9o/un4MUCCMNxueV4Aw3roU3u/d8I27vEo3ZxfquiKLhQccA3M0/RiiG1aJz2m8laA1CorK5wQOY0UO+ra6qkd0p/2XXkJCh2lXwNB/qW6jw8g6AANOJwct9eIw+StMRMWbRqnmwp3wKncAqAsEKyk3vKmFy80BDn03y1cp4U1RTA0krHUKtUG5JAlohjPSYP2x9T8TmybO1CWV24UtNX1VRISny6jNtlf6X/K+RdCNBQK8YDB6UPdCfCCttn+H4SxLvsPl82B0qxGR0pevFQpfRI6id7Dj8cKWpl0eqPJb8sT3pn9peRPcehF+4rYwZORdga5F0sI/uOlyE9R0Hh1siiNZ+ijm4zrYompd9MUP3tWVSgIez45riRvN6Jlw5DSCutDlp3Hq8UlcA7hpGD6ck18n8XjJC8TeVY1JosvXslyOp1lXLd3Us1XhIVG76oUw7oKacc1A9nRFXgTSBJ8tEX+XLLg+vRdnGwTuLkd5cMk9TkRBxoFy9fLy+R255YA7kIyEE4nP/iEwbiNFLIT88Emf1lvtz+yDr1bWLHDYZ1ddKvR5zccN5IlTOaSCUVVXLL/ctlfXGt7A4g+dlZuQBCdlbxkl+EYTxAVOPiouVUWRUnQ0H3z88foi8F4CxpQX4l5A1tX1EnB0zOkstP7C8r8TaZgdmJsnRtifzqvlVy+cmDJBdg17dnkgzomSa/f2i5/PL8wbLLP7KdjQAAIABJREFUgHRYwdUyuF+C3PXMKnlvQRlmibEkxB2mtBNbtX2KbhdgYlXC4KSiBiAi/Kt+mfYQuDwDjkroNbrzEcDiqS6T0f0my2n7XCrL1i9C75MjB449Xu557WZYNxWShPgz970CPREACvkcOPZEefjdO2Txxo9lVN+pcub0q2Rt/neSEEyUGWOOlXvf/I2U1Zagt0YvBcVJDCTLxQdfr+/q2ly4UQ7c7Xh55eNHZPayV2Vw1gg578CrMYQoQA9fLFNzZ0gqwI++KdZB/QQAnsyknnIBZsiqAWTFAJeJQ6ZhmNhTSmqLJTd7tFx08M9l1aYlEoRv7eBxJ8k/Xvs1FKIvhiLjkEdAjpx6hjz6/p/liPEzZcrI/WXxms9kj5HTYUEcIA+9c4cbUnjK7cCcvCMYeQCgvOWIwnUE7SNCDZdiPbyCN9qnTjsh3OsDhrH9aQXXyohBqfL50lK57t6vpG+PJLnvurEyZddMDJ+AsNB8nqS5ZlON/OIf38iXy6DcPUTuvm6c7D6yUAqKq2TEgFR5bNYGeW1uoWRn1slff7ybnDCtlzz/YZ5cdspAueXfy+W1BQUyOCdR/nndrjJv91KADyxyWtOwXn546jCZvwSA9d/VAkNKfvf94XL+MQPkN/ctl5+cO0re+WSL3PPCWslICsqvLsxFGZAbvm8Qw3pWghbxj88eLJ8vKZE7/rdSknBMzs/PHiK9ceonX0RZWFopNz3wnXz6dZGkJMXLv64bI4fsnS1/ABAN6ZMkC/FOu4dezpf0jIDM/rxQ7nx8uazOq5Vj9s2Ri44ZLHO/XOzeeOLY1jDTu8iTdgMmJ4oOhJxPyd3X87Ge42q0UrlUgHlPUzpJ8opXy99fvwU91io4rYvkQgDJvrsdKS/OfwCH4/eReUvflWcWPKD+o5OmXCjH732h3PrMIjlhr/Pl/S+fk2c/fUyCdVVy/oxrAQLnySPv3YnhVxC9cakcMu4EtaZufe4nuoRhz6GHysz9L5N5K96SI6aeKSs2LZUH3r5FZ2L2HX2MnLnv5RhquqX9ai3hTImj9z4dfoIt8q/Xb8aMY6VMyT1ULjzwJ7Dyg5JftUnufft3klewHj6MMjkd6Y+YfKrc9sJ10jN9CHrbEXL3qzdKRnq2fLbmA5n97euwtrZgEWWa/PT4W2R4v11l8bpPJUmXBdBnoXrtjA9aSh479Yv/OVSoZ+/OuGPToR3jAhxyeyacEugGp3rEEyyLePjJCkqq5eXZeZKWkir5sBS+W1cmvbKSZPl6bDhV2oN6muYFR/WTXiclyerNVRKqxsseMbRLxAkIi1eVyysf5UuPLJzTXlglj72xXvadmCWrYYWloDPaf3KOHD29D8qpwjajOJmKId97Cwv1nKm+PYIY/mXoyzpvunyEAs6A7ARJzUiVcaNSlL7HZm2SzLRUAGUVjhneID8/Z7gOAQk69HMN65coOXhJw4OvbESnSSs7JA+9tkHGDsvQ8r5bVy0XH9VXvn/0QFkL2nlIUi+8qLIMw0V42NCZwa9EecIxMxx6Xg8w5GROEYaCHMal4bVMRTDu8TIU1747oz3bscx2BSZTJtdpepoTRYl0ZEec4kfFEq0B64TvlT968slQ5D7wOxRJ77S+cHYWQTCTpLAsXz5a+hYslCw1rT9c8jrG7vvCJJ4g6UmZMnrInnLt0KlqWqcjDmcDkxMy9HcijpAd2nMk4mXLZUfdhN4uGWXVYGd9ouTmjJGeab3l0c/vluRkrLZGWZ+teFcOHXc8Fjby1UUQLChdSkKaDMgZIU/PvU+CyfCZJPbGcG2OrM9fhTSJ+p69gycdJ316DIMPazPo7CWbS9brMzqD+WLCxKRkeKHgi0jIwrDlUq17aVWhJMCaS0ngCZoEIDAHyhBSx2wDQtoRQImkKYG0iDibxVktnkPN4VNAZxRx/pxsKGOd6EsCWGFcxU0TOnmAD7FMn+EmOaFGfnPZGJn35Ra8024LfFIie4zOck5zWD180SbFJC6IISL4Wa0zbXilUUI83hBcIfO/LkHnBec7ePjRojXy3fpiGT4A7Y948XilcDUAasHiMnRSdTjqJShzF1XIqo3r1IFdq0MzxINccdKGRenBeXq5Rohn3XDL2TgClh5hC9RCUqmrqZYbvzdSCvNrdFjG+o88dbBakJxZZB21cwOjJo5Nl1+cO0z++sRKWbK+RnaHv2vCLpleJ22leUV34a92BSbzMXHyot6kr29f5ynBbzQWt6zUwLqpgRXD5qjAbN35B/xUfU//mvUbWDXlMnPvHwBUaCq7KeggpltrmQYZpOlMF3o0CAXPPX4XFhNBLAFCWIa8ymElBUkI8ubGxlou+lw9X+Z+96b6mOigr8Swjc5nAlSSYKq7DrMmoSBm5aBAGPLp5l4PPKk8/ONQkaBGBaRe8uTLyopyOWHKOZKGdUf3vHGTVNZUyjGTzoWzs6/mAV1SK6+iplz6pQ6Rs/f/kbz6yWPy6cr3JTkxXS499AYt5/+zdx4AfhXH/Z/rvZ+ku1MvSEICJDoSmN4NBjfABTC2Y3DBxu3v2MaJYye2kzhuccHBoRgwpvfeexUCAZKQUC+n6723/+c7+97d706iGomTowen3+/33r7d2dnZ2ZnZmVmfHq6mhV1GMfho7g8nUd1U197nS7CKGTW3JaGqtLC7NtaefuV1q6rvt1kVabbfnEL70f+iXqdLdRewGIRhJjIAu2+Y7vG9F4mzEMmoFCZx/UO19vKabps3I51NhVTQgnGYXbA5SCb7zs6yp1/usoyMfjvlkFJOCG6F2TTbFz463jZUtdkNj7IgZCXZZ08aB9NhUWGQyARiVXU9SLLYEdOS7X9vrXSV+dRD82wq6uFjixosHQP0sfvl29UP1WPvYqf1AxWWTT2SlrSIZiCxra3CnkR9Jy7MJ0d6HZLugH3o5PHQEruzPJ8wJsP+fFulPboE+2FZJtIXweFyCFU8IpspuZkY6Vt7bUp5LrB027WP1ICHVJs7KROmDJN2RhuW6fd5WHdI8zuMMbldSSuDuiWbiCYPf35WvG4pS6JsSxFBZuACUJgxFgLI5l4qRLCFXbB8CGqVVaLKTSiYzHbvdFu1ZQkMo98Ks4vt2L0+atc8/Udt09iJB7DL1VZvy7csstrWOpvDLt9fnvk9daXYSfM/jVG01l5Y/SSMJMNF6dfWPWcLZh9r979yg22oWWnzJx9sC2YdbVc9/ktbQ+jMifucZhc9sAqjZ5cdMe8MxPBy3zVUt9xOgR1pxeZX7Pj5p9vq6mXWzc7cYXM+gnF7vHX0d5LatJSYu0qratxgJXkYPMfOxsbR6H3vhnEW5pa60T6dbF5pEOT6upWuFs6bMoNVe0ywL4g0nTHxlvNE8BeZ5YLzXYRbF0mF3x1CQ2/aiLyxc9l5uvyOavv+OZPs0u/MJidQt82cmGP3Pllni1e2WTm+Sh47yTgHpuvUwmLRy5l1mvh95IbqsQdfrLP/On83W7auBSk23Z0XRTfp4GtTLWresRPt1IN7bFIpEjQ7eDc8XG0NGK+vvmez/edXZ9mrq1qtHBuTNlxue5LNCxYRqZJy5v3NdRvtwnOmsHNX4GrYlLIs+/0Na62FXcHfX7PJLjh9ou0/t9CykaZSUvusoYlFChFKJCAJvQcG8+tr12BXmm7zpiO18ywT4Oub29ndS7XbHqu1735mqp14cLEV5aVgF4UJM3ip6GYPPt9k554y3sYUp9tlt2y0o2GCl31/LnapPtTDZKtrx9WEBVV7w9qdHAXD+qZj/l48hA+Igt+bS5KL/kYeEV5eUR6YjzOdJLvkwZ/aK5ueQxqQeqK2oT5KSJduw3Fx4fRjUdnOxGeEics9GabvJPyitqnGpabatkokKXZFEKY2N6+2h16+1Q3LdS11MIJxrHjyuiWR/uO/JnRjM0Q8zj598DdYHaUeoBJCENc9eZE14uR53rE/tL/AfCpRuU476MuofntAEDUctTyWeq+1J1c/ZHmofJ845GswjxLE7S6rbanBea7Ybl/0Z1tXtxxH0WzWeq3yydievmpji8bjWtBmTa211FNity++HNtEh332yP+HCtoAk8FxAINrW1eTXfnEr6wsf5KdddjX8HfJATc/sT0mHmgLdz+R/mzEHtVjBaiQDy672V5e/5RlZnAuvUtnYf0Uzjq72+3zR3zfdp+wrxvk5cel5+6s+HYuxkCsQLiWd7YmwYMYe398+RpWfJjGu6SQmLQEhbyg+5O6Xf0aW5hqr21os9fWshOK5CHJtryY02nI+trNSbKCpYJdMm3J96ILlfJ9A54U/bhqHzA7l/cz7YmljUgl+Bx1M2HZqkcwYeMjxRbOzUOt77GnXm0FQSksPLLZ9GAcz7C9pueysdFtTy/D1QTJt4hz14pz+tkUkRf6AOphkh00Nxu8pdpz1F/TbEi5ci/owZ8qDTeAAsa+EymsxX9vaQBSxw24gzt1sPs2tgAVE5eAZnyQFtHOOPywqhuR6mCU83GDmDwuyxatJGUxtiWpdHXNUmP7bBYuDrlIhYtWtGFnG7BDYJBd4OwZdhDHYO+qapYTpg+6j9M7vgBUKm4TUtm3z6iwkxaWe7vJjLUvcPz7Lmp9x2C83Rd2CGOqqJCDnKwHrIAM+k3P/I89suJ2y0EC0koZEKJ/w0ope0sGvkl+aolPGghW/kv4Bsk2U4G0VNW8EamnATE3x5+lp6bh39RsE4qnedT9+jp2MVgZ05GIupFYUlj5JrL9rvzV69gZ68WzKTMlG2aQgT0CMRybUzfSUEXhFMT9YpxA18BE6thByYMJsiwSGzGxZJZP9vW1yy0dj2sxuV75RDm9pLCeYSHCTjC5eLqrdKspJ2O1bC0dXa30Nw9JbzoS3BZcGTCS8ltqXR+uD+nJWYSYlOJwV42do8vKCyfR10JbU/saq6+sJbKDdIt9D+JJ34XVHpjRBcf9zMaXTPOFIRBukEDfFiFskzHVwZjWRoxJI/AuyNYlY96LFiRtaLTh2yP7jNSfLPQiacNSUcWQ0lLdrVEzz7fwpQZqvHSqbIYMPPyv97XoZGeCFMAKJEI7iitBQmmDOchuk5sp/ze1DT6opwt/qQ73mUpCCg8qYJ8vokm0S1HZiKhXu4CiwmzshGJqiu9Lpt5uSED+TDI+Z9G2dhL13Ce1UONqqxirHDHlo2bUwZjBWNOAXf1oBzbZwtRvd5qk32luZAo+XRo7vSMVsZU6BH8OcMjG5WdhJOLybQ1sQqFBxtQDYxo/nDFF46RujJZrhzCm8eXlrJYavJDqZHnlErb5f4gxOdtVucCOhHj9r904JAL+4ungXq8MpGLXtBMmRpTGSMmm5OefMWB+sgdU2s1E1yomRpXEihnsQGJwIgrCVmhD0fiSbiR3qO0gHAc7hzMp2R5UP/YrMR+nfq4eXBYEVFq64I79WOLh1JqjcgqpUZhLP5NJxnHpXJIGYVxifsCXRr3BTUGMWq0HWPrQCxQDJ4mnC58tOfxlpJLaxBEhB8IAhxuW8NmSY2I77hHTSubZF4//Ac+1+qlsgOltr6wJjClMuBR7YFG9/Svb23+TxCRQYqLXoGh8gc1JQX965hjjP6n1UlMFP/eDQ2H8VDK18DskBWq843q84qgmqVW6JOUN1q6yapdng+0KnBgWb5SL58Pe9+ZVkcZP5Yfedzr1//gWlQtSRwx76F9cTnUw1AHSBNgitPgzXaFfob3we6h3TtjR2IbS7+BfEKIFrqm1z751ermdfHBFkJiYU4579eMdVLe9i+4QG5NWlIBPrQZ9Nrt8nn1g1vF239KbEZ8LmU7Sn8OlspIDtLIN3RRt+GgiSWU4Y3GiY6AUzqEHWqFURI6Q3h7PtLUfa+RyjMtMZ6V04g8eugoRCdRGbf6OuRQ1wMqtcv6+RtNbS+H9PAdJE8i3ikXYIsoRV7aYCcMsWwaGjMGnyTDSDBwvw4QU8WF59X6px6zcUjUFCK1lsluXbEpnEl3RJA6/gI8VuLW/1dItG7X3dPqvI5ZQw7QShypGgvXWv0X3Ual4Ry1ub+jJW1cTlwhMKYxFPIG3VgtlMwO/WjEcFwEClRuc/I7nwAhYJkKxhGkUx6npUxsZIg39E6ZaGFvRili7wxS9q28xvv0W77n8rvfjgY2Q6XDzPRQLMIffUf3+ir8IDGo/wB8W5NC30Ec9ifoZteFNhIKDMPerv95YqFPvhG4B/bthTl5XBH3i++puBG+EFof9/b52CGPS5A8Eoe5q8vXbh/b/LGJslj228k5rZdWPsSPcCX26hoYk3Av4i+8OoS4uP3Tnzb6FwXmzEm/2LB7DNyszBPnwUkMtb7sPiXUn9ikQJHWJiPgQE5MTaXnBBDvlwM8TnjHXVTidF+b4S0TimwPqT+N2h0EVUWt4tjW8b6NaAAkTWXDH/Rk+Vgl3/WtccKhUVEP0KLqfUF94K9xILJvY4vCqB0tt3V4COEOwRHAldDgUG4J1ENoh8AZLx21vVd8woAIoI7EUigwBNdhOAixv/TUaOzF/0YcYs49tzOj861DTb13hDimRKgNYilv8t98Vi/NiPoPcHhHypP3Psv2m4+FctRTjoEJDQpR/gGQUYmv7oegtak7Ehfxp0nAkHMtO4z5IcTnYqBRVHwzeQeigPP+/3ZXVpUsg0KZBtCz7uy5biJBhGEGdfndT4y06t+vx9sSAS14axyAcBJVW4ygGrbENdj1pB4kse3uC9HbqTu1Rcmeu7cmcQpc1uYZWZ636Mj6W4XCov13Xu8OAcCj7lbMu6M0Zk8snAd9vp9ZYwAo+UlpRUZnxVnY7jyqNFxTVrTbeTqW7yowKDDhT0ohhVhBFaN5lEhIj+pC66NsAsl/K72QUDayrctubOQWVNujMcd+FJG1IeHhFgtowinAzKghrJBDOgPwm5AZiZfAfdsWMIyB95Ovb/C3mk6wNB69WmwBJ7BBqqz2I/c7iIuakVXZUUfA2e7TrpmOAoRKtBKVN35SJo5+xlQTML9GKpGXspXJoHU3jOmhj6sVHJOQR2o6swdWCoSt8DxNMd4e1vB3BSABh5/iagLSRaImZetyReBF4Rx3TuEgUijYQtFiUE+2ejw8Tbju+EeEj5+On8XpHte8q/H5hQHalyI0iCb8t7fhlZyXb+DE4LYsp8Ze4cTCqVLkYZyJwMac0+ehvp+vt2jy2U/M7b7XbmRGoemc2EQPU4lmUl4EzYLq9sAqayAgLSiDy0bWy7ryDugMgDzsh4j4sOgOEc/XbtHGZ7qCqMQ4qHv/KDjXKhnWYHiBD+MgVeAegb1cT7zMGfMHgLzaMyvag7wvmEiQrG6SoRIQcDFjvM7S7mn87GAguKUOitjY2evH+PGD3XPc4V6iQj7eYkuxQo0wMHmGgwJ1Cbqe7rv9TGBhS06TSyUFQWhthEfOLrLRQSfvdA8gFqiC8DVfJ/08hayfobKRw+1jFwrbCWfKJuztsv6IgfEQi8qAqN8zI8v53chdjev/H4H2HYFCkFxm75KQFijxFRdl2woHFpJ/F/hh5lIg5yR4VnAnfd9B3AbANDMR+bD5W/MkbSLF7R+9bbJPHKgwsLD5S8cLYR2rdNup6v27tYkzvF+ZHabvxChuYk043KSNNRyp+ZsqTFID2EIZRJvqPUnS+L2C5J70bjdDCGVDlmJrIiTBnHkdomKtwEVjx5/sC5Zs3uhVjevPiu57+X8GA+zBB23k5mXbBGZORmMif4Cd2+Oac/+P/xcvysN/h2f8VXO3ofg7ifxD3YTwkHjlDCjwpxP0RU6kwMKVtKc4nxInnbzvrxI7uWEJ7WzGmXcbv93E0RkHTsQHcfZvgQoq4nzej2P7fGZOIzid7AiZI3Rf1uzexS0/8kgo4+DtSEUZBf/4eQYgl1vAp/AcJdtCIDWOSdNsPU2omFfDXTiu3/WeXeHC6MjYEdV1jN3pFph0TK/f3SB1/p31KXJjcEA4h95Dy5ah9x2KrGLD/vHojxwspBzUZGOUci59MMIuLOYlfhd/67vaLXdd7jgG38bm6lohhiUmOdE9gpzP00pByL+SAhGMOGOt5tuSM69JWgqF7tDKnXYzpPSebnbvCrQiVVTXO0X34/DKbUJJt/339BntxdacfAhBCVwKTUnISj4kJU2TnRsRohj5229A2f4xrD9Dt56w+jotCrN1jSpYfDTV3SqHnVxdTCmM7+lwDtoXqpI6OjkgjHXqcmZm5rbJvee+NMliOH1/xlu/uKjBKMeC2o3DFOa8kQT2wqNpuJzXuyg1d1q5kaGzb6VAFJVVTGpeQNmWXxLQ9RnVwwjI2/eBa/oc92JGyyWI3Y0IaecfH2jH7lrBwcJACqnhQvQMkWy082wPA96DOXYzpPUDi32sVrtbJDhHkf1cT/ORh1Dsl7pNR9ZXVrfbc8jpbtamTFLIcwY0TXx9HEcXBo1uten+vyNpB/RKr9+HgSypOk5npaaTeTfZj0vffvZgTqfM8Xe4ASQaVQ0oZY+NLTEljujMwp12MaQcR1M7dTGAvQ7aNkCEy2FGHpKJusm4q7KGXNMYhum6XxLR9xj0wlxSkU1enyZQaX2I8gSEN2frc7ucq9s4zHrtsTNuHcv6uag1ZHiU8xQbXkDFUE0CpkT0dLM/SSUdMktDoGjkJRv7+u0LRDujMSNkz+s2HJFeFEXkCQXbjlM1VYlXYKRU/isZtJxqCXYxpB5DUzt6Er7b+f7QKq0P8Fp1L0wuqQfB7kkUqaIB6IewahR26kRNrZ8fKjoVf2PNhcOYSxkPfhHv9KYWQ/9bTCNUhQaNu7JKYAnZ2/ft3hgFxn0D04kSJC69PmITe+tPoRphEw5//nSFmh3XHURqhNhHHup04BluPRzxAiaO0w8B+1w3tkpjeNep2veiG1Ghi7MLGjsPASNkzcQwCA9u5mNC2MLeLMW0LK7vuvS0MxCt3nBfcDd4+S7S0h7U7njQ7/1R5WyjZboViSSgwpaFfAb/xv38/WN7FmLYbKf0fqDieB4PqXaTm+f2hSfL3M13evzEdRLWDsK1ff19Y3ipW7v1D/a6Wd2FgFwZ2YSBgYKeSmNwHeaSC/SYjqTXEhV5tHf0tl2+9Bu3kjZqXrODwRe0ND4aOIXkPYHkH/Yid6d41LNGW8+A2z2DboT+DeFU57zh/WyFoRNl3CP87KP7Oim4T1oQu+Hjrn1Dte2VPi5tN9Ft9O4APvhcVHlLmRry9jYKJXd3qu99IvDu8vr957rydzm2jzE7FmEbuRiT2x7dIIyIKH5oskWoR9q+30f23dyv2B4npNJ57UXNeSWg+oeVhzDABlrfX5HtSatuevgmIeotWhvod+hWTbwjaHeq9l4vqSpjLEU5C39+iqW0+HjkpHO8yuNPeG42BijgsI7vJ70HY9GzE8/hn+AyFB48+Up1Rm54gb/B71Jhe0jWIhGiuD7sVO1tEzC9UMwhHIjhxdVGtg/w+xr83FUBMbDKA4BWBczr7xmMSao6Khsoo/TdOkxjc9+Rzp2JMiRJTPJBCpueYQSnVidzu9eppOUQAYSUfnKDcGznoW2GRVyO3ncFHThDRfT+dS43yN6DAyKglfcR1BwIKvxRYqaTZySKWrRoLNxIJbqsi3m7UkxiQYTUlvB1/TbzF91hiEiwKJdk2FqKXEtoY+ionSr2bEqf/HlbHYHP6QmpmsrjSXx17Hs+74X0P9TpgYZaq00LOsIqGsOXVKkCYW6pX4612VF6nywbs6AcHiOt8NP7X2wPkjxqs2ImDV/x4qqG2/KhP4VeZEniWEjM9xivOhx2jewhujamOAhccUV186Jhv9/kS/Qk+AeHZ9fwL/ybsYgpcvS76EBPh+4BCfQLkOK5GkOsBeE/oiVoaIcErV3/oVzhpPcKJXuKK6dlHAbgGVB/PQn+iyjhsVnccrYmLqhYd0TrPEm+HmrffvzsVYxIaNMSBrkiuDsLSnA6V95XpAObC1IGMfYTCyPjEdIILhBHqCQhPGJ1QswhEr6qhqDUf0HhwNEGd2KhPg6wKBIMScungQN3Xm3oFqg3nvonwvUIHaXA1c4rhmbcnGL2EN6vSg46NmiR+X2UiIhksH+rwd+N7XqfuU9aZmr4q7YWGW/fUTtRc9GUQN95wKODl1CR166RfzcIAe4xLTTav0evzskwuHaIYl1UrXuXgp35o0quw3vF/QiNeULVFTCGqV1jWgkOMqnUTq5em9/306HCfL1zKsKn+MUmVOla5gEnT4nX7FZ82HWjDUa1nwOEnEDsb1Tj5g/BoBBz+KMJpEu/ETo3RG+ElLxLTCD2Jc+jHOI0K66f65fmRvG1xogi/3EryytUiMNEfR5PjUDA7Naj3/l2Xjl7rY4xd/VSp+HX/FS614nl2HUeB7uL3iQPmUYA7HhoVj0cv0ERoK6puu37sdIwpRo2Ql8agbq7rsJufaCTKvZf0HEm2727pdtLBxZbLaaNazPzy1YcXeDnO3ieEi9h91DQZfPRCLmSf0/rln+GZr0E8SGFVveHRWlu6tsO+edo4y8pIJ7MjQ606tNpQ3omK74q2X1PZYtmZaRyZk+UEKxYTMymXtzTJaIcg8GjsY1hErnoe7gsOh9dXNL6IoAHQJcQYYAoHQYJ+OCTRRaEU4hRWbmjkcIEsK8wFZu7FK6PglpTp1avTQpwQzXcx1nXVnXbRjVX24cPySThWRCR7NI2ZnNGC77Crvw+/1Gz3P1NvX/n4OBtHW71qO1oUnOC9S6FfalC4ULsxo3JYVF4VqnPOyWF2zKqL76i2ohyzjx5eYj+/ZqNNGJNipx8xLuAAoC++Y4v1E0D8hVPG2qrNbXb9ww28n+r5pJJT+23qmFQ7hmT8woEmu2QEMdxNtR3253vrbGx+kp15/DjyGKUGmIQCjZjgEWCSesR0+F3f1G1X3Fttnb1p4bAGwOzqGbBJY9Ps8yeOsUvu3myNzQP21Y+WCav8T8iIYkV438dRbRP5i3LtAAAgAElEQVTrduNj9fbquk4rzTP7FKlv86HbhrYeu/KeWmskT/d+08m7vqDI39FrgU4D/j3+hPoI17WVaxttBoG8GanpoRwvhEVEOAw43dzQYRffVmvH719g+8/KJaZRMLCsw6saWnrtNzdW2pdPLbNxxRneTryIBhqNxiyAvt3/dSa601wanAR6Xbul0773P5X2wPPtVlaU5onMLr6r2f79L1vItiixXoPDJNXiyaTR6hTivaQYaIUNKqAmtp6JbpJ0lLK/BzFH91J5X3XEk6gL4ayDPMrU4ISrgdX7ylskBtCnicC9xSub7Tu/20jEPSsZ49oHsYifDGvLpS61L+YgAoqfa/pC0MDSr5UQuPw9wcJnP8deqC+hTxpB1aIy6pPe1EQKczuZvt+/qN7++X83O440sUKKEqUpEfwBLyLy0EbAlb6rVuG8uacPaSWQi07o9fcFK586EFMtCj/K/dMM5+pztYbFQ+W8b0NtBpUr9CvgOGTLjPvuK7rG2hlCmCCvV7bbnU8127zd8qwHFe3JpZ32ypoeb8PVNybpCyvb7ekVupdijW0Ddv/iLltd2eaZN6tr++2q+1vs+5dWWhUT1BcjVhTh4rGXWuzeF7rs5qfabfn6diqkXa02uqg/jLs3xH8Bnk6Y0MNLumzpmi7r7Oyxlo5ea+3ooq1eL9PVncz3UD41Jc1SSd7m48kletIiKrVy+bpue2xJj935bI+tgZ717uubOuyuRe32yMtdtmxTt+NBC4loRDSWCv5daBc98fsPN1TbZTDtzLR0QGQcgF0MR+2IHmnKrzYOL334pXbbUKv3iGskAFj0IAZVWphmXeD1ygfqHCeiSr/AU1j3ot/h7nb/d+eTmAJ9OPKueaDe6ttS7OfnldrMCdmOrItvrbZnlraSgqObEyGynLCWb2ixFeu7yV+dwkqRZblZSAyswktWt3DAJ4NCLuQnXmm24txUO5Bzt9IYUakCeu/lVV2eEXD+jHSbVpbLe/1IDTm22/gMn5BiaiKkxas6XUrZY1q6zZqQYy1t5CyC4LstjQnTYdkZKaSnyLTK+k57ZnmrZdLGgrlZHNec4avhi683W252suVkpdrTr7ZZWWGq7Tc7mzZSnQhb2/vsmdeaqHfAZk1Os90n5rHSt3u6kT2n51hhThoE1G8vrm23fibEvJmIFgNBqapr6oXIW5Hq0u2JV1vt0D1TbH1Vh9tIMom6fXVdhx05Lx/JLtmeWNJkNfW9VpCfDK5ygC/VivNS7dNHjrHpZToMdcCee60ZQk51on9uWbtNLE2zvWdmuQo3e3Im0uoYKwHX7SQtewHmPHtytm2s6QbWHtJypPtYhYk2YMvWNSN9dtlcJIN8guTX1fbYvjOzXUWX3KfpIAnqzseabXxZCnjPdiaQn5WCtCoJJlpsKCMciwnrXhoiVmpyn52K9HzCgaXU0muP0rd/vbLebkXC/oeTypiwqdbZ02uPvdxue07JsAYknAdeaLO9puWrVe9rEkxPTF6fA0g4Yi+qXww5DQZ42F6p9rmTJnhZJ7aIQR8+L9d6evgNL3pmRZPTyd4wVTGWF15vt076cNAeuZaenuJj3d/fA5PrsL0m58FwO60kG8mHRUP9cIkxdcBeXQOuNvRwL8n2np7OgaQ5thLJ8KU17U43i15rBfYsaDrZVmxssVfXdnOaskGvuXymO+z5lMvOSLKXof3XNnbaPrtl2dSyLGeSxx2Ya7+7qc5qGjuh1XQWFy29YQzo2A69djrGpDVI+nRLe7e9zADuPTMTQkcslYkJwjn7+BL7NH+a+JIgrrqnxq55uMVKClKtCRG5vDjNvvupMk6NyLS/Pthkq5mg05hYdS3JtqaqEzWwxc4/ZYLd/0KD/emWOpsJwTa29dofbu6073+y1A7fZ6zdhPj95Mttdt2/TGNitqFWbLGZ43OslaXnopva7btnlTGJM+zZVzstF7XpKsTyyWNZxTkG6cKLN1pmBsyIVepGVI1/+mw5WSEz7ZJ76hH9zcYX91ptc7qtr+6y047Ktc8dV2Fb6tvtx1dstuqGfk7ITbM/3NJj532IyTQjx/75sipUhxL75NFj6EOv/culW2zhnAzbZ2Y+KpcIO8lWbWyDSHsgyDS7/M4amzMpkyRvzUgXrVYIoTY19zAh0uzSu+tgOj02a2KGbajusXvKm+ynX5hklXXd9o9/2mjfPn28nXRQhl10e70fTDA2v9dqmtJtU12nnXV8vn3qyHKXPi6+o86u/N50JnC3/eyvdZyy0gQT6LPN9amoP132g7PH2b7TC+yOZxrAV4MVFyXDHBpgOJxh15Nsv/16jqVnsWbThqS2TqS151a12+F7ZbsEhVDmNsSgjkryYvq4iiQpKEg0QdLDQE0Su2CHTrGD98y3KeXNTPDOKNVsir3yegeTuNMuPHMcDKPTHl/Samce22UleTAG2nKJTJdLDmJKfIpX8GwAxlfd0m9rNreDa0m3SdBXKgtguv35ngbw1mOX/OMUFrhW+9OtzfYvnx2wvNxk+/bvNtsZR+XZgj3ykaz6LT+/z4pYLJeQFfQTR/QBX7dNn5hklQ3J1o30KRiuvr/a/nRXne0+KQ/JrN/+cm+3/deXJtozrzZbY2sy9aTa5XdvsV+cP5WxrWWMGqyiON3q2wfsirsb7N+/VOELaRpSkvCeDV1sqO+z6x9otB9+fhyLaZ7N1uLeV2PPv95mx+8Ls6STstn203c3K+zAS8vCTnMx7lrDnDhaOwesHcmgKFsEKgLSkyRWoDTLYhUS9Szf0GFXP9BixyzIsf/51kT7yRcqIJYBu/K+Orf55WSmWHdnsn3qhLH2x29NYLXJthdek6oz4FJXH6vVp48rtn/7XLldeNY4m8zKorYzmOCZ/KWx+on5tPdn2OnH5tqPP1tmF/I3YUy6TaLsxw8vhNl0w3wqWC0L7JI76v3Ukcv/cZL96TsTrak7idW7wUV1hwUiPe/UCfbHb5bb9Ip0WwyTEFHe8VQjYn6f/fhzFfbHr0+yDx2cTT96bVq5koMV2FOvdHq5V9d2clRPkp14EBICNyRpaBLvOzvPjt03D/Wzz35y3kSYcg42l2RW7XQmYTGwTEJqTLf9kbJ+/ZUJ9quvTCJPdK4tw27XDDPNYAXOwfZBQkSXFnKyklkIBuwbZ0yy3399nE+AxSu7Am4oK5uapDxJVFLl8sgP/rPzpjL5i8B3KtJrF0tGn/31oUabPiGLsZlsPzhrsu9yZoEHqXQDSHuujvK9uq7Lmlr7beK4OO9QPEmCmqlfgRHFlrWgdmiM4z0QGaGVGKQAIboN2pE6Lpw9+EKTlcIYD5tXaMfuh6TLRH4SqdLVGTE6p7i4vaGpIqaYDa0tfq3fvv6HTfadP26xr/12HbYt1DGaT09LscxM2fKwWx1TboftnWuXwlh+e2ODLZiTZ5/7YDltSOIbgGEk29xpmbapqsfWVnVZZW237QktSn0XjLJrVZRk2PfPnGC//dokO//DJdbUngIj67Azjiiz8djayooHwPEU8NSHvazRDpybaxd9Y7L9+Jyx2IxkE+vx8ehm8awoTLGfnjfJvvepcdbAYrAUyUrtFOWmWT5/qzZ20VHtBLK4c9+lxB3MJXYqiUm6ri4RDfPEdeh2cCg7RQ8TRRNRklRXXy/GxGwYUzfqS7KduE8hEyQF9SfH5qMyvIb640ZIVuQxBSmsFFArRFtalOJirIju2P0K7JV11fbVX222UqStA+dmoEZI5NVqLXI12jQ7dN8se3Zlk339d1U2Jp9yqCFTDst0GFkEVdgKslM8xWl1Iy+gmv3oio0+6DaQAiFDFGQb7INJTUBym8LZ8pL/pfPXwtRk61pV3WeTkfB2G09ubZ5++dTxwgJ/A0yoTPvdjdVILd32/MpWmE6azZyos+nDDotgTaXvmWla8fstj4mvPnRjIylEYzlojxykSwFqtsf0AbuVdLkX39ZjzajIOZnhlBSfnuqzSxAD1gP6poxLx7it91jtwY/baxxyCkl44EO2jV6pldNRL4ChBF0tPYsHqMla9ZuRNo7cO93SmZgl4G6vyRmofmGSuC1QPWRmNHdg3mXbKAeGJ9jDhBXDAIf86ztKqDrhvu4BgBiKSzhiMAEezbIu1CvZ6agKaa/bXkRVL8rPsluQgltg3AW5mfboS212wv5FzjD0rvrlk1Npg6NfojXZMffaLdk+vLAcCUz4GbBpLCgxjEKC3hdE532o1L79P1usl/P5zjlJ9DhkSBf8u0/JBIYWu+WJJmcGsydlY3dChFY/+L03dHXX0032j3/cYK1wVXiedzOVBSYFyU30JlV29ZZu8JViB6Ci6UVJQf9+3nQKB9vVQC9McAbHhLNwSP3PSpeNKfQwHSkqC9W+uS0Y+IO9FWavfrPr7F3fQdfOxZgipIgACrEHTUQ9WobxsBmrXj6SiEbqhkcbMJI2suqPx2aUwq6QBkoDJ+EQCQAiz2IAhOUBVqR+ER9ihfxjNBWkJnLije2NmvQzJKW1rGJSGe9/rg27TJf9xxemOAOUkbkTCWcOBPRjJKL1Vf22hJ26BzBarqystP/+6pQwsZhg6UgRMn5KY5eEd9JB7GzBo46Y108/1K4GndZ9BRXxB1hElPrLYiZtgBsoM6Skl9fWtlkdNqz9Z2XaQXNy2cFpoN/1wNlnR6DuaFepF+YM7TvBCl++60cbmYjyfg+GksZkHmAXq5+Zs3pTq13why128NxM+8pHyu3JZY1Im51uS/GZIjFGK4Mm+yCsgk+rqphAgFZSCXpVKOuTmVFxBiGVSgCJyJEoaFMG4AbsXzJWi8HVNMolIJTV+ARJReqobH6qUkZxpGKYSjp2Eu0kqU+yqUgybGtPQnXmC2VkExJEmRnxxkYqdq5W28h47j8nB9yk2JNLGjjeqB8prd+ue7TZd1PzspJs9eZeW7oOW9P0XPWOetQHJqj6od+OS0mjLCAFabbH1Fwvo0v91J+eJyfJEK5JnmIvvd7KQQHUAw6eWNKO6i+baNgY6GGRmDo2k4UiyR55sR21P9MqSlORbiR1BpXq+2xctLLhcgG7Zsnp/fY9JLRgT3OqpT+BbjJkZEdtbsKGJZru7um2p7AvzpiUCg2mQO/CjXCsv4jWNHjqmRZrbqXKlOi/BV/06WV2HGfaqRiT4wX8+CoEpX78sGL78eVV9oNLN6F6FFhVDTrzEy02qyINmxLG2LQebAVpdvHtdXbWcWbLNnbYS6u67bwPFjhBd8GAdNaWdGhfHZj4XfwW4f/ulnWoJ2Y/wPYwa2K6LVoBVfWIICE1Znk3K6+I/tK7q+2RxT3YlUrsY4cWkQO7izqlgmlCwwp7U+zBxS12/H6ptu+MTLt3EQZ3dkLEPH55W5Wddng+Ynwe7coHRTuJEA4roHa3ZG9RPQfMzrCHX2zDblFn8zBu/uKGKlSSJAyXk71/++2eYfc/32nZ2X12yLyxgeDUfqAvt4mIrtrZKbofWI6eL5uMttGZODwQz6lu7LI2DOtzp+b4KvzsMlSSfiZHJAn00ncXRCgv21UfxtpAp+T4BheSX5zhUV7Sn/MflYVBitodHfSLzUTwLoaBhDQ1y+5mR7W8pAqVtw/DbpeVYwiWtKVJETtDjpGkhWpU28zLAJHFzNlzaqrd+niX/fq6Stt9ci4G41ZbCdM5C7uNGuvmpJABOPPTSzusubkKyXrAHkVF0yT+8CH5jt97MHSXYUv6j38Y5/CIka/c0IZkU4WNkR1A1Klf3bCFBQ6V97gxGk6HC6c1oEAZFR3QVx3CIcYYXFHCLq0WEXgDkn0SRuZW+++bmuz4A7Nph52ve1Bh2Tw5dC9sTAx5O7Dm5STZlLEZ7Ap22uF7J1khUna3dpZpVfVvgra1yVGB7fI23FVaYagaG+FczLO6OdWeWtpo88DpbhWZdvPjbEqUNNlKNmb+cGut/eTzZTZzUq7brFSf6Fi01iM8Ca3U0QaOtLFQUSSThbfMfTHkIcO/Su6Ia6diTEKWMCYCEHIPmlNg3/10n13zYJtdfgcGVgjmYCbxOR8sQbIwfIcyMHSPscsw/v362moX9886Nt9OPbSQapBekFak0mgI9Ds/p89KkbJEgacinlfVVtk/Y0zWFC/DDvH5kzXpk9nV68PwK6Zj2HOKMRRX20/+XMVg96OSpNs5+NEI1jkTsyDAFozsjb5zdc7xpazyPfaTK1U2lQmVgYjOWfJQRgkSoFZaY7XTbloxC6poR2L+kfvkYzjuQmrrYNuf3anSTPviqeqjjD7GmW8F9tDiWpsFsU9FFVSPXALUFzEEPvedkWWPsdt3xd31MNpU1E6jzTD55Y6w1/Q8+tKK/a3aHngOdZDjf5rbWq2WXcS8vCzUXKk/VERlwlEhu25SDXEw4Lc+g6STyc5eaZEkUMiaiV4GPjIz9Z5kq2QbV4DKgYqoCf7N08da4T3VdsfTHbZgzzQ7iI0MLR7hsIPQlspJVZwwNt1V8w/RH0kqZ2Ls7+mus6eXs93+cjUSVLJ9ZGGufZTFQTMtHeY/sSQJKanX1iANSq+ciJ3my6fkoyblUlcz9phepNdcKy5gMwJVVNLy3Gm5GKWbbS12lvrWHttS12fr8JU7K8Kj5F5NaPlmjSuAoWBvE9OVRBdsY0JREup7D7SVbG1I1Tc8VI89MMnOhrk5o0KyvvnxGptPf8eByyZ2GCVazp+BKsuO517Tin3uj2U3NIvFVdLdp48ushseb7Zv/36V71rOm5Zjdbg9SMpZuGe2b/BcekeN/fL8iXbBx4rtdzfX26+ur3XXgs9/cKwdPq/Y1tV0Yl/qdzVQMGq3ubRIKqBcPZKtpqHXz6ObMyVSmTWm/El+l9Srfu6oa6c6jGBQjBbCJOHIaQ1q0MSqR6yX2lHE9rZmo+/YCK1yKOJT9pqsdIy4Mi4wuTRn5XgnA6dyVbvthN99DEC66+1hFBogXq2uYxDZtXqIefTALSTysojTpupPYmcEQuR9ifbJiO5yKxADbevsReUb8G13qS66GoFVMBWyWutT9hvZyCRhZNC2SulsMAEpNQWS8JWxtaPbDf5j8kU4yWxHo44B1qOvtNi/Xl5p3/hoqR2P4Vt+KSniaqIk/QGzPlrae4BdtgVUXEk2FJFqJynCnTS56nCzyMpmSxlbQzu2DNkitMWtQwZAE1vkfAdWcU3BqqszgjWDusRItUMlHApu9UPF0pi5KGLuhCimIZxpd1MuEofPz3NH1Qsv3WxV9d32h69PdCkA65hAd5uQnFrvYCfxT/9vivcpwMtJs/RJkm8WkkhulsaIF/i/D0YjiULMRlCq/7K16aEYWx92FZXJ0CDq8lkHxDSo5530VxP4YYzjr7CpcMHHJ3BfeBS2RHOU8b4FA7+/q9r9HyQpnkllEvlJ5c9Kl/of1F6NtxhWpuva2Hj4nQkcoi3hR+q6autkIMUAtYGgaINm7Kca22LoppdVsZs+yI4p2qiDvtOoIxca1ykpkixrMXhn8DsPvLgqDcy4dPkCreO2QnvBn0+L3K2P18Iwm+1335wcdrU1zEKeD1fon1C1I66dSmJy1Gie8Z/bEPhfDEg+R6X5gcBEyHougtQVnrMyyEkm+i0a1GDq3K2hS7/DO15Ok5n/tFMRXx6Tp/c0Q6NL7ekq9HKhbGgzMDExQjd/cblERJ2FqF+JvyUhpAf7cyjIvyLO+NJrqlP+V7nYNAORDbAzw3b8Vets6cYk1Ncs335WWXXdVzp1VDf41EcevizxBb0OXmEu6V+kKHytdKmv2dphiC75DMUXPGTwUo8yE2AValCKht6LGxLugEk+NMG2kWRb2Gi45pZ2jLrNwNtvq7b02z98sNAnezgPLeBLsB+D1HjT4w326MvNrP5Fzli1dsg/x4IL2+CYqduyzUgQSbyEN9UlBiGe4AQ0vITPQe1e5WKPEeNfj13q1MMkAQujupx4fPHJlqEs4XJo/R82ZxJwkhsB4uMP3Wp8tAkRXzGFCe6soQNP3BAdXxoP7yuXvqeC6JgMVW0JvniJZSUxlyIJenkxVNqUl3ti/aE9waFNgT67jXE4YQGLhM6jgzmLfjzExTsexmKwke38ZaeUmAKmhKihS7+2bNliy5YutdWrV9vmzYQENDbilcsWElcGh3gWFRZaRUWFTZs2zebMmWNlZQoXeOvr7Q7JG5V7o/tv1LLoYHjvhko6cTutQEzYsh54tgFCNTsQpjRWKolW6Td7n2dhgm279beCNRG2N4NzZO1uf4oYg55pUmhVfxGj8ArUJsE8c3I6KkqeS616HP4NaoQ2G57DwbQHSWPBHkXUFfdC+Bi+mr8TuEbCqd/OhKhTEkaQnIOqH5f9W+vfVpt/671tjdu27g1vJ/RRDKgRE8OjL9bbMUjcWbEUqcJ0Vsw2MYPE3wrr23l/1DKmWG0b2QmfsP5PTNxmTz/1lD32+OP2+qpVbzrpRtY1ffp0O+SQQ2zhggVeZTyQ2yS86GYstWnpjctH4AyvfrD8GzOZwU6I2ag/EQwjvw+vOPzSK0EojCdomFAxTImVxfUO9U/q2zah3lZTf/O9kf1KoPbQ6YQWglQZI0PYBlIq8P4GbhYxjnAvEbhtjltUwJ9ts8Dwm4m4ErMU0xcundmr/Yi56us2q0sEKLHtEfejng27m3hv28+H09LI9rd6Z2SBbcAW3xIjDleQKofDMoKG1XeQmZgW5k2qflePRjFj0sALSaAo0IN3cBB/fH/hhcV22223IR1teledj18aP368nXzyybb33nv7LRdK4kH18eKGi7TRdHZidRY1yJziugYZQ/Rl8PeIskPl4sa2riuuc6tGogeqQ2K6Lqk1Q8Q1+KZ/SYRh+JNtP3uz8iPfT/yt90Jkf0zk2y49yNKjSR56EPA+GPuXCET0fbCvdHZbMI68lziOYfgo4cQEXEHnCtjxh4JVkIVxDb+i21E3Ykkq7tXI9gaBSqyf74PCnZoNLfq/cUtxPYmt+/dBuEKLI9vT7/gK9UZ1DlU4ogMBAD0eOU7CVWyqGERRQv3DIPA+bQ3fVsX/hhujljEFiWSIb/tuCIryeiLda/B9efTe62z5kmeEYse2iFaGVvf69mvkMCZiaetnIrr5+y+0L37+7GGMMLwlwvXRCPTrVDA4vbyl+AqyyFD5xFYTYRoqp4miugJRyW6kVgrwlhaxDE0g1RTglte1ItDHFMjyGd32D7aNMXjmYNfJJdRk8KIibfxWNXR73Jvv5nnpYPepw3AvtMl4PDQ5huNI28wyNMd2i4TKo6+yIPEO8PRhAZeNrxlfK/3Ox5g+/BLQumLMhU74FjZX2AEK+B7CWQxPKCMcyZlTn21sq3d29vmOqHo6XJkNYxFWeCBEPQutxwpveO7IjhiBDP0teLyXCr+DF20xY+tbuglB6XTP/lI2IYb6wFeeD7NFJbydWI+QEihbo8K3qGvqTVzfEOUPvRk/DZ9DeIixGBPD4BhGNDtYQ1wBfZVd021P0UofYzfQRYCwhc0Pqc7FbhMNWPO6HGURBSdKCkOg/s3fRlr//uYK36sKHNnRhNJ3MZ1fXLPBfnzJMvv+D35il159L17CBMlqh4hLk24ZAazhNYZGdKYJ739+e/DeUJnwXL9riRe7+Ip77D//8z+trh67jbbdIHMZAd1YGwDyiRv+4xYDq8GN21FQbNig0o5heEXDqfv601DKbuGwBYjcJyo4toU7v795kz2zjDAVniv3UNwPvSfhSPUtIuD319dvDDWoHe8gPigwq2//dhXBzTWUU/kAn3Z0bsGj+6u/XG/V7HqprBv3BRf//Qa8vrqWLXXu96kDOGwphEN9Uzld9y+qI5VHkEyFE8eP6uex/uSh3gtDuu7BzbZ2S7sTvHzBnnyl3vugHS2viR+eo0gI0kWHYvwpkPn2J6r9tozfatuL6VPtqCH/GXayhDvBfMtj1WzJbxl8ry9CflyvGlZJz8igimIYQm3ehurWGOnx/dhaLrljk+PacRhegUY6iUXcYFeA36WkGVH92oX0yvkTPM5k9E7cX/+p3xqPQBSO1wh/Xgcv678gBzpQ/jv0F18z3B8chlC19URw+vgJYH8h4FU06QX1vmgromOHJwyZ9+m6hzd7ahjxFR8b1UOBPvzO9FvXDQ9W202P1Ph39/fztlQuwJvIq7zQe3iNXsYUMWghVLaFhxY32Yp1jTau/VabXFBnB+yejwOaHOJIYcGl7fy5U9meAW+aFOFP38OfyqjKeIUI90M5PVMsVlZmqq3CTvW73/7WWlqaGYg+32KWS8KwK6IFpZzwPwyz+tNukrsEQJ2+TU0jmld+nzp6qE87QqE+ra4Kj5DLQ/CClh/UljryBpHFQNKDtrLjun2rOdC1rcCfp6xE4TFhhXbJge+biOBv7UnF2U6Ew0X9aqsG58k7nmqxsWWp+K0oZCJasQFVvkXnf7ycaPU8vy/3BBwvvF/anQr4IvRlfgE7ZuMdh8KJ3CS06nqaFPzHtDNaibT24AsdNn5sjrs/bG5Isanl2d4HV9EEEn+qW+/65XQe8HULcYN9qRmON+FLO2fyblYCvmScM7ULrjnjuHa8h/dPXlBipx+t2LPgJZ4KLEZ5H4OoHY23EuV57JzGS5WrbcGjtrwxtUPoBvgdPy4vqGCSDCL4lhBInJ+bYb/60gxCgUoCHBIGVRX+ZxpLZaGU57vjLvTQ4RC+1ITa8DGPXACS9ds7ksCWIhpWHdQa3lcRv7TVH/Xd8RqQoMVHdQZ6DIup2hQqcG5xeFRUfa3DBeYBHHLHlWbB/II7iGCTu0oq4UlyNRG+Xt/cR9aHHP8umH0jwPXSAIyrmtvpGiljb6dm3nm1sXjrnwyGJKalT/7FZo+t98miXZq5UzM9540uZQYYS3yZmMCaSpwC8dWpxCmxD7+QGROzPV5NeFzLszqko0zUnbFM0haCHhVIKo9XqTm6Xn1trX3ySz+3/Y75DJGokQQAACAASURBVMGR2Xb2sePCNjfEEyZ1WGWuur+SAMpMW/J6iztOnnVCGcyTCHUi5cU4Pnv8WMvFf0kSxPUPNRBE2+nBv5/G0a6sIBOiGbCn2f6+67lay0F123c2MVRsU5eXBD+o6x+tsWVr2lgV+4jdK7VDiI7XorV2Sxfe4DlhlQvocSanKPnJBLpKlVK+qEzioERU1z9aZ/l5Aza+KNPjqcJKrBU6CeJrt8dfabSzjxnvuYT+cn8tDI7UKcTxnXhQIe0UUD7JrnuklkDgQmuwLrvrqTqbUpZNbp86xiXF/uFD5Xhj99j/3FxtLd0p7BTW2jyCixG/PPD2srtq7Ij5+QRBE0PI+Nz7TJ17nZ+4cCyrsxhGEvipthWVWpmb7FBCRrQDpy3555Y2EX+WYicsHG+X31WJn1W7dbPlfuIBxY4PqV3XPlxN8rixtpGMDE8QZlJWKk/5RstgYp7zwTJSeKS59Hn1g7W2AWfLPuo9dWExDo75zjw2kiju6vvwPm/rsqP3GYOpoBPnXaWNCRKTFpsnXq4Hjy144/fbg4uqiWXMILC6yxoa+2HALfaPn5xu1z1WY8tJTdKH1/dCYDt2fznypthdT9YAs9w7em3JinYS7rHzhV/TnU/W+/1zjhtH1gN5W4u+wqLSC71f90g1Cy8Bz3Dj4xiLhTgUazwfo4/qXweq1oK5BXbywlLbUNNhT7/SAH2l2+Mv1tl3zpyCFNxm95GHS/nBxkOPZ58whnf67bc3b7Y2FrC7nqix048aR2qfFruNMK42wrVmkqLmU0eNRTXutY6eDjJaZNmvrt3I4tYL8y/F4z7P4RGTE6RhufFp855eg3z4Pa31PaxMK6smWu1rd1p74wYGpcXWwYTkx6KodTEjif2V5PERgSsH0CoIppVUJbvh25OF3WQVk08j+hpJwBTWsPvkHA+SXbKqDSe2wNg6iDhX/J2cCpUPJ713s020p1w1u/LeyrDCa4XVH3UphcrtT7d62oxTPzDGxhXl4iW+wdIIU/kiGQJeXtVBKAKECxw//fNGm030+Jc+PMmKIehfX1PtcVlPL8Vb9+5aiKMcD+RS2qmxgjyc5HA2ufTOKluOY9+XPlxBSpEJeLfXEaAZXB9qcIKcQrCoVtnAKMWABpCkupB8yByAhFHTGMJiXiJUQ9HqM8FFoeZaJAEEaT2ZINY2bCaEw0AJP78aF4tW4P/QBDvhoDH2RxjN5voOnDr77LHFHWQVSAP33Xbto222paGLMJ8Jnt/n+odrfCzk9T1/eqodMKfQVhHaoZxJOTDiFXhzryA0QpiubepigjfablOQCr0HgXlOKsffC0Z62tHF2KRgXovb7N7nG+1gJLVD9iwl9GSN5eQk2wWnTyFrwzi7/PZqGEkPNp8emAawwXBfo41rqbuNyfcPJ44n1CPZ7ibFhySW3964yZSX6vyPTcQvaQwpRCo980MLns7/TlD17Ck59sWTJ5GArpm4R1wXwFeQsgIxK6g2LbXXjt4/1+aTKWLRig6cPputYlyqfYLx+987Kz331Gc/WGGfOnasXf1Inb2wPKhKDyzpgEG02n4zc+1EslH+F+O/ZHWbZ8vMwoHtDoJ1g/SrBU9Sjdndz9WTn6nXvv2JCTClUtLDVBLn2Y1q3GxX3VtrH6MPnzm+wq5CrVScYzXjceUjre6UefZx4wm9arUbGJczjxln3z5jCulZyObwYL3b+/LwHJ07OQkpuIgMEi2E3VTbEfsUMO7jYWot9tCLDcyDfvCQTKhSD970Y213tJGrH6p1nAR99T2c5NuoatRKTDGsItyXlrxkzz79FDmGckil2+2TYx1R1ArpGMNEb4W7y71ejmx6VgTyJQWJ7DPTcXUlxEMOZNW43B80Nw8HSaUZybD1hA3IC1peurJL5CNVvYydSmk98pgcjzz0iC08bqK9UjPRGZJmkov1fF9FQG9xXpKdS1BlJpbjlLRG1MtcHAHHIDr3IikhkSH53IK0Mne3XDvpwBIqYOIdWUxYwQZyJ3XZ7TgMnnFsqc2BUapyMcwKQjZkZH6AmLZvnF5mHRh10TBZCVNcbVVEeA+wTkIqCKurnP0IRMaLeQO4OWEBMYNN7VYJQSlNy1/vryNNSiHBxS2k21A74XJlDma2ZnOPSwevbWyHCfXgdT3JC4xBmryTVfw11JoJYzBgk/pVTqSvrmmA+WXYRw4b5zCXwODlMS9nVUkvB6Fijyki5gu1bILCY2CEU8rSXXrV5Lv6/hrbf262B7FqQRGlq0wf8Stj6Psek/LdcbSJZHXfOoM4RRKnSRn5NGln5UFeywTsZPFIZnIptfLSym4kTLIx4m0oD+2D9yS05kAABteSgAtR8TfVdpKepMMuPKfcF4pSQnH6B8h5Bb5WbURtI2j25AXhnSOZrNXYGItw2HW7i89EOadiAEZy/MDcfCvGWXc5CdtOPgipCEl2C3a7p5e12q++PDlyYk22BbOKSODWiVSWa/UwwG9+vIxxzqVvTZ4B4jNISTpkIDernvAmOeOqncCk1Ww+g17FAvT8ijYS++WRzWGSpTLON5DD68wTSj0+UOV/+BmlrEmzx15psgOJo/z4oRoX8nqRFmXSOOJFWaQqa7ssWxse0IjGqRumsw8Sdxl5wC6GwR9DSpwFSGMKcv8BqVXSkeZeJqXKhOJk1HfhhdjT9eCS+eXzwBdnnw7b7RrVjCnwgiS74uqbPJxCO03jmZDjS9ORgroQVbvs0HnphGootCCsv43oz6VFqTZr1mz7xje+MQxx5379X4mY3OCGR61KMuYVICU1QaweBkAVihVSkrnXUYuE+cbb77Qzz/0WY6EdJqlBvIve/xoqm1ZRMSWFNqwmlcpHDitxMXcdTKuHOClJcys2tLNCl7iEJybbii0rA8mgnhWsnRQDinmS0djDPlAndyOT5GtIGOmspE+QdK2TZ9pgU86dmRMyPfWrJlw2hOt2TREzE7QKUVtMbAapWXKWIOaT7lUruOrdh8lx2Z219uljxjgzUkfdXACD20wysw8fWowEQIwWxK46FVojVVehHgXEE64CF2NJgKbJsxJGdVCkUoJBd448/oBCcNkPDD2oJPI2HkCtaiegWDFfA+QDSrPNSG1VSEtLUS9+9sVpjifB4pIbsLxK/FgZEfW6r4ygRYVJrlb0YrDexMS64k6kTIAuY2zrsNMrbi8HT/il6+p9AuoS3s/AS1tjJAPuGlToDy4ssldXt1sWDP0+1BVJyBlIdnMmpTM+qRjbG3BOzWMM5OlsMJFe8nZrWmhcA6MQrazGBCB0S9JWaFBHZ5ct2KvUy7y0upl3yNwJPEqFIjWtjSDbydj0lI5GsYEzJ8meM4CU3kGKE3AEk5EmsIbA40PmFjr8oj+nYvBy2N5FXve1qJ83IC1/9+wyD0dqY4HdfTK51EUzwDWbTKYaBwXrnoDqqDZk8L4bL+7FbCaUkZqmlLTTr6xrt3NPUiZPbH8sEqdVFDvd1pIW/WNHgmcFWzMWk7AJ6rqObBX7kPlSi7pUtqUkr5P6Lgj1O1jQhBFB/N5fo1aVE70KyU8//bQtfmU9K5SSoQ0hYQLMSc/FXFpJ2p4XbY/LtpKPFCS/pJHXP5z1Eb8l0b4GQ62M5zlE6TdiZ4q315XxcAb5jJTyYi8COq2bANGWV0B/CDFxN33+1ld3wASU5XDAk6kpVYqIU882MAmLCM7MIAoe+o2M4sEA+gjMZgyTRDmexEgU6pFK+ITsGmuxkcyE2bXAKCeS3OtrqB3fQXU56/hym4GtZioSzPJ1XUShh+hvuu9EIoaxHgLPpi9ylygn2f4Gcjjd9gRZFcjmubFG7gBkV2TiC95A/NqJBG7wNZEA2a4OdrpI0yHjqNLtyma3BdvLHPL5iAkrXbCM89oun+7MByaO2tyKS8DuZMSUfSeHCTkdwu7GftSM9qxywofqbyQB25/vqkYtKXZXCN8VdAYZ8LkRG8neeH2r/TXkqJowhjawJSm18FX3N9jEigwyX07CnjXBE/FNdOZBvyvJuEn7YqZdMIOJMAPV28CYygA/hbL1jI8CnM//+GRUoykw4jHktkp3JtdKuQxix4IxnZQky5qQthPiQoBTUoLsSeNwR1Cq2/XVxBMybmVI68EgrNg49YdEdzD01q4eVKlmJOhsW7aezYASJRWUEZvoBPqpzAKqs55x7mFxmoga69KvrxnJMFKpYdV25L7FJIabZrOwpV5ChgzNCUVG58HotAGxHBPFxXdsdmbYjtYwGXyrjddhoveSHeGfzp5sF5w22T78gRLCZ1BP0SKUbVTxlbsp66sWoX7GjbAp0WAT9Pjf16/HttSLdsE4g3Nvk6u6EXqfIPNBoJ9wd/swJdU9aiUmdVlE+9hjjyEtpFnl8l435ilIVlH9a0iJKxFexu6MnCL70XfOtunTJltpiVSmbV/77T3H9vvjH/3h5i01tuL19XbvnTeQ4mMtGQKDr4ZS8L5KDuXpnDghW04Dk/fFF561Uz94BG+F3acuBk4r6CkLSyAkdgbJyCj1agyZAUVgL5MUfwxisAZ1H1SbP2MTyEAKW13VbveRsvc72A2KYE4yeF+KJLCQ3M83PVzvq2ghauhe2In+eh8rJcbvMvp4JelODkT9EQN6BdhOWFDo7fo+Dve0y/QiSeLkY6QyE8pT7SeXVdpJqHW7VeTaFRh2C5xREgMlFwTgUqyhDnNQMjjBtj9ZFX/+180Y7huZdClsl2+2Uz5QiOSWjIrUSqjCeBhchycpG0+mBE1+Sa2S+qROP7qkHmKWHa/VJQvZ6jRuYoSTyLT5+ro6T6H79Y8X+4ISJDZNRPnTILmRIH/lJmxkM3qYzMq7LRuUqIBsBmRC2IjvkFKbaGPjhodr7eNHjYEOiPxngZg9uYy8XG0utY1h/FTncmxcUn0U2HoAGTzvfXq9222kEl9FCtoTkaSUJXP3GdkY3uvocwZR/032KrnbP0XdYsISLt34Rn0vYkucADMUfmUfKkRqFTMT7PNR1WU3uw0j99TyHPC9iTzbmST+y7ZLYMZi1mI6SmK4iZTFMnSrzhXAKMlMErBv83OPpdZxfj2bDdmoTlNQxxuau3wzpQRVOodXr3qgyeZjs/z9rVsw4pegwnd69tNxqN+SgmWKSKHB5zC052Z02C2P16EVCI+p9iyScXUjUh7S1Dz6PhlYrr2vxo5bUGxX3FMF/Gye0CctZlO0WQFMm8kwUY19Tgui4wWcuLTLQIsOt8eVcuGFF/5wZMUKEHw3l4gw/pOYqkmgKOh8GSjexVVVtcVuvPEm9GKCcAuU57uf3S92nBgETY5pGCiLikvs97/8kU2dMol8RFE059toKy83x6ZMqrCFCxfas889YzlpvZ4fu5jBk+2jtgEpg3aVn6ijrcn23X9/toqV60epWfGHsU7STxR5FH1zK+kkSpUoP/SzobUNwsnzhO5zpso2MUCunGaP7P7cSUrqj+2FnZs9Ia7FbEHXs0t48B7ZZNhMd3FZzGI2GQ2fxy6yDongOBjMqey8dEEJHcT+HTQrD/UgBF8Gwhgg1qmVHZMsT4kitTY5qctOPrTUo9YbWtpdqpkwVu4UIv2wq6kEYso7qVSv2rmaXJ4CYyKZGpP9g0g2R+9XQl/JotnXjUG7AIdJcmGTzGzulNDPJhL0KR3M9IoczyfUqkwMZOMcj9pXRJE55KcWfBlIcbezk3fmMaUuVWoOeniJ/sJ8dMl1zSbymJMDiRh4jOi51Cm7iA5fQAJkc+Ml1KBprOIfgEkrHa47/pFX/ECOlKpr6UQy0RiwW0mfGlrbUfFwVxiX7RN/N957kvzYG0nTe9rhxWTOLHGVR2qRJNSXyX8+h3xZcxkv9U9401i7RAc9Nbe1kB5Z9qVU0qHADJGqy0ijIoYj+9OeSDXPLWtBikHFw2b3iSPLnGm1gqP52EaVEUB0k5IK3WB/UmxzY2sXzBv8lbPTRRtqS/V58jnsRYuWd2CcbkZazbaPYg5A6CUnU6a9ymEGyzARnHigxqiAdCVIc8Wo+ixCck5V8sGxLGgyZLchvR1HmfKiAbc5KlOo+tvCDtycKdksglnO3F+Gie2LhPepo8ugJSRC5oNS8gimFlTXnMweTqiRyikJVx8BL2Jc7/klmujoQIYfcWUS8PpuLnci409MqRs9qZuZqCDa8eMr3nF1YnAPPfigXXPttc7sQv+HI0FqzJe/9GWbN2+erVy5wi699FKrq6tzYvdrEGmsxqxO8usQM1M6jE0Nmfarf/2yzdl9lr300kv2+9//LkgS4UX+VSVqL4jYp59xuh11+JFsNcvGFOxRcirUChr7JWml0Rshs4Gc36gB2P3wxcErOAdKnpLYHXxC9JY89cKhhcqWGILThzRt2QOkTsrvRZcIWKtt0PjV1QhWJvKgjxBtyAFPBK2+BLtO2OVEard/uWyzHbV3DjaiEt++T/MFKcaxnAdVlyYM7alvDrBWSn1KegxtApr70IS+qK2AO0Xn9/LejdgrpApdeOZ4t5skk4tqaEzVoiOK94QnfaqPakfEHyTC8CyuW2Vi1Uew8fogbKpLPmShrPqsK+A6rp9DD5SxTtZClwBUOP5T1UqHo1tqPYyBJARdoa3QvvCgsY5tlqH/zmLoZ1R/NIShTMBRnF0hZFVVP5VhNdCI10wj8lsLNBHRjhxYgYa1U4BFf9rFiwONwRqCgMZe7wea807wF2CS+hzSxYQ6PQdVJBGqVl1yQg30Sz0gISxi8TPRqBhTNNa0E/Aev/3efGpeD1H+e1Pne1rLqtWrvT7hQRNx6C8iSpjCzJkzvcwlYkq1wcs4jJsGKIibel6CuuG7HBxx8wLHJ1lvk115xWX+7oQJE6Kp5FPE3xPDCZ9qP8lWr1rtbgLxCuE5np1BacJD6JrEwKnfmtA6V03IFfGF/D/hzDVNFOXYCTtpUVkISuXlqSvDeprXCYi6789EUIEZwvN9VQyTABicUAOB6h0BoUkleASXHCiV21w5f4J1gNM3kBq+d9FqDlXotw+w4yOClfOh2vH2JOmqTYhc/6lNN/zTWHxenPql+pXXSMQZ2mRCS1JWPRB9N2mN/+3y9fgktdoXPjjOcRqwIkjCRBfs+qV65XWsMfY+ku/XJw3/i1ELF8rzFOPWT1oWA6BsfO5agDMyy3pfAj7CGKiNIXzq6CY5EipBmudmomw8Tlp6NI6CNUJvBFOEX8/lFMoEBqsxFtwszKqHT8EuXh36EuhGTE3PApMNDM1/a2yFCMc2vYpoRlkw4/EQnGIng3Th/RNdCD9RXwM3BnallA7P3Uvf+ycWA00wBsLl4CLFvQC36CykoA5wMhBO73Gbou/QjwBneO5gv8eX1oB3p7O9x4BsqzohYTO5s8MVEDRULiYX8tdkhR2Z+jrZaOKhjd6KECvCl9h/0O557p+hvEtKBl+nd7hKsEsFkojeH6x+qJ3KzfgygTGfWNyOk77pfQ3eEAnLSzaGNLzvJ8/7EjBUn6alqzMJl+7Fd/RsW6tGSEw39FKYGGJAvBm9rIENEkxgRu6hHbFerYFlnLT6/TPxqeIgBhlRnWH466GOmPnGrXjeb2cfej4Ec/gafuuZFnmHx8sp+VmqffljFa4+pCvfNJPFJQNJKSPqErOOkOSSrS7HRwSb98eRFj8J2BnExxBY/u5WfRiB61BZOJghEe+J370lbmjc3TM8voBl6JfeYMxhJuFb3IuohUFaUL/Ds5gpB4kpVBr66o1F9elzsMNRy2Gc5K6iusIVUa63M4QEnfEHLxu8E7/iWNY4eWnRBdcgjINVDt7yGh3uobp1axgI0Wvv1YcoaNQyJhF4YwN7me/ykr3ppJNOsvnz53sNL774ol1zzTXoyhHRawJtRayhMRGjxiFxKBoaiV/T/Zj89G644S8FET96T9KWuIOXj67E7298a9grCW+/wddAqMKVAzuyvcF7QcIUs/DVCJVNW/ghRk8MMlQfdTuqRuQRuihpKDDRuIFQcXxfE2149/jl7yRzzlqww2il10R0OdPxE1XOx0jQEzvr9SZW7i9GAKs2niUOhYQs9dFfo5iynKqC+H5gmxG8CWMktVt48LqiNuOWAnqH91FlYjoJvdJLGo8I1w7BcNCjW67iB9tVtHAIPpWlcan+Afwg+caZRfVu6En8ZfBXXO3Wn1QUocKfJX7f1u+tK3jzO6rvjebQm7/5Fk/B4ahlTOpwe3sIyn2LbmzzsdwFjjzyyMFnRx11lCNRzMknsl9DQxUIPCb0eND1Ga444dzgjagOL6EJzyrqOyuQj5PWSCoYfDHxC2+PZGDbLPdGNxMmwbbac3AES1DL5ETqBlZuy+YhfDhTiiaEWtFk9kBXfQ+PXPUMgcxMHCa+1AOPL/P7isTS2puAs8EJFlS80ER4HpdKxM+2QHcA1H4ER/w7RqzuO94FA3gPNiR1NfTPy3u/pTrJ1UNvhtoCUwzPvRrqcIkN/ISuR+W8fLj8ffouacX3NakktrE5boQYCkWoi17i/ZhLqjn+hG8X/oQ33nFGFJoL71NKdXh8Ic/9ePhoIKToq/X4BR8nPVTbjInO5XsjugtNaJRUfqhfgx0cTV/U/9EEz7uB5dxzzzX9jbwWkPxt5LXHnnu5F248LvHapHJDfiRGrFinx87pcoLUn5cRoYVB1T3xIf0p3/Kdz9a4oTfxnbCaaPKGOkI7VKH/NHk1saDKUC4uM0Q08X29ERP8sDqjCkNdek9kF7UXTyrByH8NLST5B9gwOaO+eJmIpUT9iudR6POA1RBRf9Njm3zDwPBzqsdjXa1oh+7OZys9/3fAhWPI+x9PJMHlkhZ/sb0ugDzU5wBzAn4pkNhXZ5RRvQGPQ5N/C46CdxOXpyae52y/RStaHDaNgsZF0LxIHOOzy5v8uxiK4JBK6Z8R7pVL+85nt+C/E4zeIYreGw7j5LXyHxX72qO66eQjL+Nywgko3gfHrfhD+BRQTlP65IHsbiqwvqaNE1hCBoXByvSiXwEm1VeNX9vdz1WFxc7xp7aD3dDxA2wayy7sQk2MrY+r7quZ6M8xF/Uh2EcDPHFro/YT+Ec1Y3on2/9vB8laTddU6pTRMGCKj5u67+k2/9BP+mBqEOUoJ38aqQDhnlZlbFnsVErK0E2fcJIYtILyqfPNbnqEYEmt1jzXPS1ewYkw/h0mo9MnNpYwUSkP1caGSDc2i1k5UauuINXIdyQ8i4yYlPE2VEYrpQjWqZX7wBqeafcvvL+ImK1L767CthAM3BShZOiX+ubtRP3yWTRYlw4e6LV1bIHLy/h1PNJ/e9Mm6ue4cxjTjQ8SsAq+hAePchcIel8T0qsRbGHFDziJcCALcdQeCov3Q39uoI1wq0/HCziVf1J833eMeFdNVRJCc/NjOlU5iRORW+2pV1v8uzMJleH782x0PMGx324gl7HYx027acAiLFBRE1EF6oscMkO2BCQsH6hQjxiaZwjwcY3Ha4Bg5SZS7YSYxOA5Tt0gIx4XRetLklFaE0xs3uZ6vNHv4oixYF9SzWE0fEQoHtogIwThU7c+0uR7tQJFdTpssm8Bg/Au2+FtHCBw5zOkuQE+bXgI90O4FqzqhvCosRCTFOZG+QVKRq0qJ9QVFRW9a3XuSdLtHpWgyqm+xx5/gtMvgioi4pT3dzm2FmUuaEVCkj+KwlMUjqHsBCIZnZahhGdT8scw4MpJw3lh7LX3cNCavL3l9a1Jo0T/nm+beeMR8BwkWU74TCcuEzovTXXtwZFIMrq7YKUb+oBgREjyhVpGuMdk4spysYNphc3Gu7ilo8snksIt5MOTi5eu0pisrpSDaQZ+QVm+mxK2l/vdObGFU24r8GeaUJLuHtFL8ZqvbUgjpqsj5AWPmq9pIvQFePJw6hSzrMd3KwfHz0y4kEIe6gkhGUuaj89wnLVmjY4Mr2pMIYwFL3zMo4UEHPfATJbgV5ODM+B04t+cKYCPMNHEdGCQ5BNazgTuwv9M4RjKcKAz01rxpcnBV2np+mYcAfE14v1GpJdVxAROKk/nNBgdq6Tt61SYUId7l+cSiiPP/DR21ZQaRWEpYl46Fy4+lNKbd9yG+37+GvNR4WJ1SIBanBQzNhO/sXCQQgp+V8T6gasX8ecpwFF2KqlbNAaqS31QALiOD98dfyUFJmt+ZzIW8mPTxPdz7zhcYTWxe2X4U/m4wFWkZaWQEmUJ5w3qEJd0fLqy6LPel2oW29ucQTPOy3FQ1anGSm2Sw3l2KiOGpHFctq7D4xKnghudaiy/qNc3EmIDvUpqLya+Ty4DS6lDJ7PIQVIOp77IxmMSjX3A0Oj8V4v1qGZMOjhg06aQnOyNUPjHyJN7pDp3LbYk0Wds/H7yySft7rtu92oUD5dPkG0dhywqXEIe3nVNfc6YdAyUnxXGf5vZVld4RB6n57am5thFeNqe9yFO3cUh7aLbtkCMhFwwcT52FF7EMJtsCORlovV/e9NmO/8jRI4Tk/UrDmTUCSg9TI7Lb++2b396EgcKhkMDpFyIKb1ECMLFt1UHj2oIdh3OhKcfWmIH7JnFGXQb2NYHxtpe+/5nym0RyfGuvLfOZuKhu7G2z4NWTztiDA6F3faLa0mWBhw5eHm/trbWPnlsMWe15eAxjxNnw4A9+VKjffjwMp9w8ph/6KVm20D/vnlGhTPYCy5aZ588coydQEqRF19XdH89KV/G2i+u22z/RLDoq6THaCL7wKOLau3gvYs5xXbAfnM9J8Li0LmWyX7k/Bz7JA56MeOFTZNdstd+f30NMX8ARnzbn27tsW9+soywkjT7j6s34bTKKPWTtYBcUgfMyXYH2mbCRKqQGL5xegXBvpnEi1Xb40g9EznIdGMlp98Sgvf9T03QzPZtenGdSJgNEpuEAv0hWWhcgtvAgN3+TL3d/WSDTYbBb6knFAXV9PufmQxzwdkRd77fXFcD7jhckmwLR+6bT+hKiQd//4rMBDXgnNTzQwAAEYhJREFUr5hg27/c22nnfkRwKf2H/LTEvDhIdFGNXYv0Nm1cjlXiNX0wweKnHVXs5xb++obN0BXnxBEnu55nBXkK1QFUMXFgFNOEh9pFt2wk5rKXmEForwHa4MBR7a6tI8rh14xBEalyYD2kqulkzMo8Jk+xdkn042Xi9eYS6/izv27wkJ8Udp7Xrt/CWYjjPNtDkLoivESM2yfDKLy0oIxqxqTTTJ577rl3jToZuvWnS6uaVp4cmMWUqbPsWxd83qPhr7rycnvkyVdw08flnnIep8aJqPIReR3v2t0JjdA5bqd8eF+7mfPbnl3e4tHhGzkS/IefLca7OcdWkgkwlcBchYtcfNdmO/eUcXju5jux1sD8fvc11Uymgce2MPG6raIYB1YoReK5xO/LSHFyyiFFRHnrQMxO++qvNxDiksK5YwSBkkDwsyflkc+oiBW52/5yFzFQ50wEhmzrwO/nG79eTU6ePOwMrNR4x3/5oxO9v/c830AeoDqyHRTbMaQOeW4lQcZHjIt8XzQrBmx/QikeeXGLr6hrWOl7yKX0+kZSdZAJ4QWi2nfDczsLpqxz8YqQnI4nbKGhs46MCONh2h1+cu9xnGp8IHmkXlrdAgOqIpCZIOXINUDb0qvIWvAqKuCl35nmUtY9z1cTYtHNqp9J6pQBDrossFMOHmOPkGPoV9dW2W++Ohn8Z9m/X7XWnn61CQaQDmyt9l0yA5QXZFsXnuXn/mwt588p8NqVMXob+uNiiC9HfPrkC88Zdh//1wlp+gpJ8WYTJwa7svP+a5WtJEB5BsHRrfTlhBPybOHcIiZ7u/3LJRvtqH3y7BHGvLGl335+3jRVaA8QUqSUND/7AonkqF9MTXFqf3mg3v4Z5j0Z7/oOTq/55i/X2MHz8kj3QtYGwm1++ZXJDs9/owrrEM5wSV0PKp7UbZ0S/YvzJ3smgKsfqLIHX2p1tW3pmkYyMuTbJ45QEG4yJ+tWcuRVi33r9PGE8LR6jq/D55c6buXJffaxMG2uy+/fYvctbiacSQsnHBp6EwMc5XwJ+EY5Y9IRS2914bnuvkyyR73RLp7INR4OZRO44PzPu++Srs+ec469uOQ7JNoinQbqBZKy+93I7iBxX0xJNo595u9lG1khXyFSvaK0gFUtxbMLSOLJwh23oTnJPak/QGjJPoQuyF4yn6yQdz7TbF/5zWrbk3w/xxKFPxXxWqqXO9UhtWxhgvdwxPZCVjW9U5SXaXvPynJVUTYrJXhT3JgnwNvSwbHTfXbfc60Yahsth3ZbOpJtCVkEPnjwOFTfFLuJ+LpachQp20EWqUE0Id0Z1G1RokrZa4L6MZmo/GwY6jqCUl/jaOpj98smkp/TWEkrsBYJ5riDOL8NpuQ7jrzbi6Oe7GyaTJK6CpEA9pyqjAT9hDykE7VPQj9MeDpE0w2/MLypeNpPITzivF+stj0ImTl6nyLCQLIjNY4867uFxGN5pJyRijZRISvUPaYYD30PjE2xC86YZE+Rh+ieLQ0c940DJ91wJ1MxnGiaaZXVreGX3tfN0OfzT6sgLrLNLru3ytpQnTu65FvEwaH0cVzpgO03S+OGqgReysckobp2Ia2gtnelETtY5TaoNhazjVXCRberkmn0dR0xhN3dqfbgcy2MTwPjkmxNjMtKmPLr/O03O8TKCdpD98ojsV1wg3F7GMgUPl8mu8JehONkI+mo/wfvWUjKk3Y/XPWEg8ptVWUb+ZRqPSWM8jTNmiQ3DDmy+pD69+P2K7INqPzXkjepsb0TSbnbmbzbmFwskyYQM+2RuBo9v/3Y+tEDztaQ6Ny3GTNmbP0g4c6KFSv81xe/+MVBZjPyhUCvgT0VE0eUmzMUUyfClRSllLKbELMzEY8VnOkqQnRNnzaDM+jGBWRp+RVH1+SQKM6gq2gfhPq1T4whWVmbPbm82Y2USpHx718gupsjyQmZsgv/dzPZKutdUoqN1WrC84A7wwgNqs5o1nk+Hf2MGYzSncyamAJhpttUpInzP1Lkq+kLK5rsR3+qQvLr8tQnCsqVnUj1uOE4qtyZE8Qp2GXTmEUOqCfJErmerJVHQ9gKcr2fVVZpYKbAJJQhVCqZswAIRjYTv4DJJT7qUf0hX7brVdFECAwhD9vTP31ugp1DyhX16idXbSBotsozgiqQ2O21FMVG7lcwdOO5Tr2ECsOckEz/tNYeXtyKipJqh+5diGotL/Awwbw3mtyRPhRwJ4Tpvj8UBpwx//TPW0hz0og9K8kOnV/I+MC0YTaSHpURlWIUD3Bzx3/3wYjKYFozJ6TatAk46c7KsG98osgZZh/e6YK9BxgVxTVzEvFq8bh8rIi4tizskeCJTKWCIXjYB7wJNmcSgjHqg+t0flfwKARJjryckPtUjf38qirPIqBFau40skEAly7HnVczwC5ek/30ikqPbZvLuO7DsfAKC/L6vWY+vY3RfWmRGdWMSejTuW9vdklVk9Sk0JSf/OQnJpvTyD9/P5qYuRD3Ny/8hVVuqbXa2jq77LLL/JGi+jcgJcgIqksTSkbxBk4QOeywQ90wumg5OZgI+tRsEqk5IfHRC2XkYjQ+hDS0px0x1i65GdcByjxG2tyLWWmPmj/GvsFqfdi8LBKWKauhSESMTZJGqjODhxaRShZGUdnQDpPp9sBX7ef0Mz1jpqJI8+7uLtJy5NjRe5d6BsJHyPQoIB7GfjQHQjyXtCBS+xqwmWHeoS1WVUpo5VW7vnI67IGYF8xBnWPSt3ekkJaXaHPSq/z1vkakQSLJIQ8lvvfiKg8D7SGVrsPPXzISkXsE+/8+nQLh88xXcpi4MmT+4trN5HAqtK9+eIJ95PBSdsrY3obyhAX3l9YXr9+xyh//UncaC4ZUxrXVSog2kfQd49zgXluHJzmLh1pUrm1nPBIb+B4gEUBhAqrGNBYbbSIsXtuCTamC7I9jyemdQQoQjkBnAUlFwtlCiKUMz/q+AXeRKiTHOUhw48koIPvQIeT4PmbfEjZF0u2xl4i7ZKzUHoItwcKomGRZmIrd6ei9x8D0ijg8sg2mgEQ5I8cW+W5hMCU8t1wbI7yqjoqKfEySbC+kSWUt6ISRqO7nyZDZRjp7Gd4feKaNgOxiO4f0NwuQrDeDD8e845lx1kRmxbjvmRb7wIGF9rkTKwgKLyL0SIdKqC1xrsC8Hbej/QLEUW1jEv7kj3Tfffe9oRFcQbs//vGP7fTTT7eJEydacbGSk219aThE+LIzvbp0mR1xylftA/OUWiMQhxjSKoyKSq+rSztzykezpj7HXqycaDdic1BE+QKSZy0nxYbp5ArK+Ta7vIuZiS1Ech+GXeHRl5rsj7dsxvhcymkUtfajy1c7Qa8nZce5H1LMmKawpAUl+0ol71I5J8BstmdhWnns7mSz+mrSa5sZ0cGJU3BOJEfRyR8oth/870YSzGF7IYunkoApen4Bydsuv63Ofn/zRp8QrRhzJct1Q+i7kYb3ivs67Q+3rMd4L/uD+uwI8Rw9WvFL2YkSD1Ifm9uryI4AnPyXIhVJRl4YrRL0NRDJ/ovrN9ipBxeQvykEMWtn0aU+dKyIZftkkCqnoOn6pia7EKlnHKqm0v9+6kQi+9m11G6duigc+ikybCS4EO8Tqd+PZKooKYY5JIPDTUTdp2DPwXiMClnZ0GEFbFIMoAZr0mP/dQbsUp0kWbErquqnja4upGIMwnuT8fTfSAczkRxNbeicxRihK8k+OaWC48Qzeu3GhxvtoRdacBdpxe6FZMZic9wBRfbKqvX2vYvX4C2fjh2xxT52RLHjqre/h+Rt/SxqafbRQ4rth5dsIDtCBulkusnimerjouyTz5JC+Qd/WscOMJsSZIsoItOA3hfr1DhIktqHjBF7kef8B5esY0cvDWZM+pJMcEpfjtg/z90ClLW1i61glHw2Hug3OJpFn/7n5jp2YNPsJGD+C6l2m+mTfLIUfqXgPQUse+C02hNx7wTXqM0ukIi7xYsX20UXXfS3o1PEAOHqjDRNNG1b69JgiQl0kGgsm1U60sR9RfrIGWdbetHuxJelkTpEWQiTEKl7fHt2fIlsTLgUQJzaei/n4AKpBPLN3MROykyMrB1wiRfZTleCwNmsiqUQpdQXaQ7SGqRurSPyXon6N2HnklH4h5evxRZRhEGzkARwLUzOHE9Q5h7OgLweyU5nm42F+HfHziXpRAx3A4ndlHmznJSpYjBrsUnJ0K5UqWK67RDrHhNJrxvpY672AMOWejI8IqEVsD3dA26qGjhBg74ouVwnkkAtScOUDyiNXTVJldo5UxqRGvIElXPft7N5T8nEyoFV8XeaefJa1jPhejGSUxuMZjaMsAyYehE1NuEgOZYDEnRogBiO0t6OB3bhvZb0wGJSchlQznHlUJdUtA82qdY2UrHQB+UdqkV1ncBpH7WMh65Syqt/Pglpvw57myTTMexoSbpYRMrYXsZr3gxsW+C+g2R3hYxJPW4E6enKA9+OARu1jRQisvlFXUHyayXndq/NBX9S0WVLroJJK3dVgVwWUNfWM36rNuOSAQOeOyk3Yj6uxPkup7QqpZ9ppq9lRUikEEAsPauwhkU5p5pI77MXObaV47uskJ046l5FplClTp5GbqcJ7NophbRcEhR6qER+Sv42g0VgFW4kShootxPZM9dtaWMHNMfHIWZLg206xkbntVMwJqHuqquusv/f3rXjqBEE0T4CkgMHnILUMlzAvgGkpETeyKFvQIp8CXMDhOTIKRFC2gSRGfkErlef6Z6BYYfx7JoeVW+wMz31fV1d/WE+m83mTVEcj8dhNpsVOvmGSfwVww6NzOjbsYLOMRsRgvTYhCDY8Ykd7Hmg42Lz/Ov35/CeAvDThwG/5H7z60/4Nh+GdzSic9YkmehoKNAHHiuypyJnpYATw/gC7C72mHTcjM9kRfvL9t72rTCA5NlDwFKnsxUdBKCu2hFkfyv1ATQqkR1lJq64hmHUrRqvYl62X+SAPuqtyknP2UayQbwBW+STG2LLuMFswxhypF248URjwp9e5+qkfatYgb8aY1ohMZH4nraz6Ihm2yCEZNgQAoj4byWbxASE8DHK/X7fCVgIpGqIJn2ZN92fvjzRWKeBAXqKIl6iYHmDgMM51aPRRZ6eK48FNuRK4HKY8YyMty45qOgeGpoB/KA7x4/0zuwB3YX3+eOAf03BqIwCmpjsRAbbWtgk8tkO7dPSJZSG6LBXjMJJDXRqOzh1H5l1lHwRUvFVdfGmveoofGZMxAZL3IyPImx2Mb35wvSW6BN+7qlUIFB1Gr+cm55IBp8kEQhOlhQgqlqvYtmOtIgvghPbiD8sKel/ar9NPHBdBirTKf6U20V8YGzkkPXiUJKY+I1KmCN05rf5KYZau9iYZDIKHiKTuKqJAVXMy15tlzICj3WWVWI6n89huVzW7jd1BS1u7FwsFmEwkJfEdyWX5XAE2gEWkPaLmfWUGMwFecHT1JIXGNARKKK1rzQV2pyO5UtHbc7UISVnHTagpryATw1X0ni1FLcvXOott/pt7uZXNdFVAVD1l7Oy5pLfijKrxARQkJxWq1VnM6cq0Jgpzefz10lKUIb+QgGCOZcEuoyUNvpyLV3nkREzM4xwmUy/q1j6uSPQFoHsEpM5+hp7TpPJJEyn07ZYNuLj5cutwfxCCrJYHtPvC9O9whFoiUC2iQn+4te69Xr9z0u74XDIn3sajUYtYbyPzfZW4mIKU2+pxZTKJvw2IbeZ1X1anNoRyBeBrBOTwf6T3iSw3W7vXt5h2YYbOK+9uynfJnXLHYH8EehFYrJmOJ1OYbfbhcPhEI7HI90M+Ju/0oKCL7/gNSrY2MbDwXgOD4+8eHEEHIHHQ6BXienx4HWLHAFHoA0CD/+sXBunnMcRcATyRsATU97t59Y7Ar1EwBNTL5vVnXIE8kbAE1Pe7efWOwK9RMATUy+b1Z1yBPJGwBNT3u3n1jsCvUTAE1Mvm9WdcgTyRsATU97t59Y7Ar1E4C/0QPCJyCGviwAAAABJRU5ErkJggg==;" vertex="1" parent="1">
          <mxGeometry x="160" y="20" width="294" height="243" as="geometry" />
        </mxCell>
        <mxCell id="I8u54NmZ8nvwyBFgocyv-5" value="&lt;a class=&quot;CID0ebdc111-d519-44ac-9e85-290978b4b5ef&quot; data-sessionid=&quot;d9c9ff16-a5b2-84dd-0eb9-c4e067802bce&quot; data-shapeids=&quot;58&quot; data-slideid=&quot;&quot;&gt;&amp;nbsp;&lt;/a&gt;&lt;img src=&quot;data:image/jpg;base64, /9j/4AAQSkZJRgABAQEAYABgAAD/2wBDAAUDBAQEAwUEBAQFBQUGBwwIBwcHBw8LCwkMEQ8SEhEPERETFhwXExQaFRERGCEYGh0dHx8fExciJCIeJBweHx7/2wBDAQUFBQcGBw4ICA4eFBEUHh4eHh4eHh4eHh4eHh4eHh4eHh4eHh4eHh4eHh4eHh4eHh4eHh4eHh4eHh4eHh4eHh7/wAARCAAuAC0DASIAAhEBAxEB/8QAHwAAAQUBAQEBAQEAAAAAAAAAAAECAwQFBgcICQoL/8QAtRAAAgEDAwIEAwUFBAQAAAF9AQIDAAQRBRIhMUEGE1FhByJxFDKBkaEII0KxwRVS0fAkM2JyggkKFhcYGRolJicoKSo0NTY3ODk6Q0RFRkdISUpTVFVWV1hZWmNkZWZnaGlqc3R1dnd4eXqDhIWGh4iJipKTlJWWl5iZmqKjpKWmp6ipqrKztLW2t7i5usLDxMXGx8jJytLT1NXW19jZ2uHi4+Tl5ufo6erx8vP09fb3+Pn6/8QAHwEAAwEBAQEBAQEBAQAAAAAAAAECAwQFBgcICQoL/8QAtREAAgECBAQDBAcFBAQAAQJ3AAECAxEEBSExBhJBUQdhcRMiMoEIFEKRobHBCSMzUvAVYnLRChYkNOEl8RcYGRomJygpKjU2Nzg5OkNERUZHSElKU1RVVldYWVpjZGVmZ2hpanN0dXZ3eHl6goOEhYaHiImKkpOUlZaXmJmaoqOkpaanqKmqsrO0tba3uLm6wsPExcbHyMnK0tPU1dbX2Nna4uPk5ebn6Onq8vP09fb3+Pn6/9oADAMBAAIRAxEAPwD5cL6nfa9JZ293P5ktwyrmUgD5jyeele36d4N0LT9Nso7qN7+Yp++mllfLNn2bp6V494YVW8YXCtjGZc/99V6vorMFjjEkhiB6FicV5OYSrc8VCVkt/M9bLqdN+9NXOt07wj4Qm2+Zo0TZ/wCmsn/xVdFbfD/wLJECdChz/wBdZP8A4qsTR3jyimTHtXW2M7I2A3y149WrWvpJ/ee8qFFr4F9yOX+IXwi0XUvDEy+GY/7M1WIeZA0c77ZSB/q2y3Q9j2NfNOnSana3d5a3k13FPC4SSN3YMjAkEEV9raYZLwySFCYIsbmHrXyZ8SwF+LPiwdR9u6/hXpZPi5VXKm3ex4ubYaFO0o6MwfDWB4wnJO0bpcn/AIFXsHh61XzI5H/1e4cHvXjGjyLH4qmZ+nmSf+hV6zpet2jweWJk3Lg7c810Y9PoTlnLdc3c9nsbOOW2gkaFMOPlIxkjOOfyqydO8zcsKYPTOcVh+GdSjFsjSfOuAQNxrstDngkKNnnuCepr52SakfQ1J8t2Z+namljYXelzSwxz4/dl2ADn/e6Z/GvlDx+5k+JvieRuCbzP6V9ga9o1nKY7ia2V1fJC5wPY/h6Gvj7x8MfE3xOPS8/pXfkWFVCrOz0a27a3/U8XN60atOLW99fuOUEqw69NI2CPPfg9D8xq9dSzXEomDbGX7uzjFVNR024OoXJ3RY85/wCI/wB4+1Ojhv0UKHhOO+T/AIV9HKF3c8OM7HX6F8QNa0mBbeaFLqNOAxbDEe5712eg/GxLZwLzTZkX1jcN/hXjvkXv96LP++f8KT7PeZ58g/if8K5J4GlU+KJ2RzGtFWvf1Po2L41eH7lPmuHiP/TSMivCdb1KHWPGGt6pbsTFc3G9CR1HNYkljdOMboVHfDH/AAq9omnXCmb5ov4e59/atMNg4UG3HqZV8VKskmj/2Q==&quot; alt=&quot;A blurry image of a person&amp;amp;#39;s face&#xa;&#xa;Description automatically generated&quot; data-image-width-mu=&quot;0.961538461538462&quot; data-image-height-mu=&quot;0.982905982905983&quot; data-from-ppt-online=&quot;true&quot; class=&quot;CID0ebdc111-d519-44ac-9e85-290978b4b5ef&quot;&gt;" style="text;whiteSpace=wrap;html=1;" vertex="1" parent="1">
          <mxGeometry x="390" y="319.0158415841584" width="47.49999999999999" height="79.20792079207921" as="geometry" />
        </mxCell>
        <mxCell id="I8u54NmZ8nvwyBFgocyv-6" value="" style="shape=image;verticalLabelPosition=bottom;labelBackgroundColor=default;verticalAlign=top;aspect=fixed;imageAspect=0;image=data:image/jpeg,/9j/4AAQSkZJRgABAQAAAQABAAD/2wBDAAIBAQEBAQIBAQECAgICAgQDAgICAgUEBAMEBgUGBgYFBgYGBwkIBgcJBwYGCAsICQoKCgoKBggLDAsKDAkKCgr/2wBDAQICAgICAgUDAwUKBwYHCgoKCgoKCgoKCgoKCgoKCgoKCgoKCgoKCgoKCgoKCgoKCgoKCgoKCgoKCgoKCgoKCgr/wAARCAIQAmkDASIAAhEBAxEB/8QAHwAAAQUBAQEBAQEAAAAAAAAAAAECAwQFBgcICQoL/8QAtRAAAgEDAwIEAwUFBAQAAAF9AQIDAAQRBRIhMUEGE1FhByJxFDKBkaEII0KxwRVS0fAkM2JyggkKFhcYGRolJicoKSo0NTY3ODk6Q0RFRkdISUpTVFVWV1hZWmNkZWZnaGlqc3R1dnd4eXqDhIWGh4iJipKTlJWWl5iZmqKjpKWmp6ipqrKztLW2t7i5usLDxMXGx8jJytLT1NXW19jZ2uHi4+Tl5ufo6erx8vP09fb3+Pn6/8QAHwEAAwEBAQEBAQEBAQAAAAAAAAECAwQFBgcICQoL/8QAtREAAgECBAQDBAcFBAQAAQJ3AAECAxEEBSExBhJBUQdhcRMiMoEIFEKRobHBCSMzUvAVYnLRChYkNOEl8RcYGRomJygpKjU2Nzg5OkNERUZHSElKU1RVVldYWVpjZGVmZ2hpanN0dXZ3eHl6goOEhYaHiImKkpOUlZaXmJmaoqOkpaanqKmqsrO0tba3uLm6wsPExcbHyMnK0tPU1dbX2Nna4uPk5ebn6Onq8vP09fb3+Pn6/9oADAMBAAIRAxEAPwD+f+iiigAooooAKKKKACiiigAooooAKKKKACiiigAooooAKKKKACiiigAooooAKKKKACiiigAooooAKKKKACiiigAooooAKKKKACiiigAooooAKKKKACiiigAooooAKKKKACiiigAooooAKKKKACiiigAooooAKKKKACiiigAooooAKKKKACiiigAooooAKKKKACiiigAooooAKKKKACiiigAooooAKKKKACiiigAooooAKKKKACiiigAooooAKKKKACiiigAooooAKKKKACiiigAooooAKKKKACiiigAooooAKKKKACiiigAooooAKKKKACiiigAooooAKKKKACiiigAooooAKKKKACiiigAooooAKKKKACiiigAooooAKKKKACiiigAooooAKKKKACiiigAooooAKKKKACiiigAooooAKKKKACiiigAooooAKKKKACiiigAooooAKKKKACiiigAooooAKKKKACiiigAooooAKKKKACiiigAooooAKKKKACiiigAooooAKKKKACiiigAooooAKKKKACiiigAooooAKKKKACiiigAooooAKKKKACiiigAooooAKKKKACiiigAooooAKKKKACiiigAooooAKKKKACiiigAooooAKKKKACiiigAooooAKKKKACiiigAooooAKKKKACiiigAooooAKKKKACiiigAooooAKKKKACiiigAooooAKKKKACiiigAooooAKKKKACiiigAooooAKKKKACiiigAooooAKKKKACiiigAooooAKKKKACiiigAooooAKKKKACiiigAooooAKKKKACiiigAooooAKKKKACiiigAooooAKKKKACiiigAooooAKKKKACiiigAooooAKKKKACiiigAooooAKKKKACiiigAooooAKKKKACiiigAooooAKKKKACiiigAooooAKKKKACiiigAooooAKKKKACiiigAooooAKKKKACiiigAooooAKKKKACiiigAooooAKKKKACiiigAooooAKKKKACiiigAooooAKKKKACiiigAooooAKKKKACiiigAooooAKKKKACiiigAooooAKKKKACiiigAooooAKKKKACiiigAooooAKKKKACiiigAooooAKKKKACiiigAooooAKKKKACiiigAooooAKKKKACiiigAooooAKKKKACiiigAooooAKKKKACiiigAooooAKKKKACiiigAooooAKKKKACiiigAooooAKKKKACiiigAooooAKKKKACiiigAooooAKKKKACiiigAooooAKKKKACiiigAooooAKKKKACiiigAooooAKKKKACiiigAooooAKKKKACiiigAooooAKKKKACiiigAooooAKKKKACiiigAooooAKKKKACiiigAooooAKKKKACiiigAooooAKKKKACiiigAooooAKKKKACiiigAooooAKKKKACiiigAooooAKKKKACiiigAooooAKKKKACiiigAooooAKKKKACiiigAooooAKKKKACiiigAooooAKKKKACiiigAooooAKKKKACiiigAooooAKKKKACiiigAooooAKKKKACiiigAooooAKKKKACiiigAooooAKKKKACiiigAooooAKKKKACiiigAooooAKKKKACiiigAooooAKKKKACiiigAooooAKKKKACiiigAooooAKKKKACiiigAooooAKKKKACiiigAooooAKKKKACiiigAooooAKKKKACiiigAooooAKKKKACiiigAooooAKKKKACiiigAooooAKKKKACiiigAooooAKKKKACiiigAooooAKKKKACiiigAooooAKKKKACiiigAooooAKKKKACiiigAooooAKKKKACiiigAooooAKKKKACiiigAooooAKKKKACiiigAooooAKKKKACiiigAooooAKKKKACiiigAooooAKKKKACiiigAooooAKKKKACiiigAooooAKKKKACiiv0//AODb3/gip+yx/wAFg/8Ahcv/AA0v4++IGh/8K7/4R3+xP+EF1WxtvP8At/8Aafnef9qs7ndj7FFt27MbnzuyNoB+YFFewft0/sLftHf8E6P2jtZ/Zf8A2oPBn9leINKxNZXtqzSWGtWDswh1CxmKr59tLsbDYVkZJIpEjlikjTx+gAooooAKKKKACiiigAooooAKKKKACiiigAooooAKKKKACiiigAooooAKKKKACiiigAooooAKKKKACiiigAooooAKKKKACiiigAooooAKKKKACiiigAooooAKKKKACiiigAooooAKKKKACiiigAooooAKKKKACiiigAooooAKKKKACiiigAooooAKKKKACiiigAooooAK/oO/4Ma/Cfiqz8K/tLeOrzwzqEWiajqHhKw0/WZLJ1tbq6tk1eS4t45SNjyxJdWruiksi3MJYASLn8cP+CYv/BPT4p/8FQf2yfC/7I3wt1P+yP7X8688R+KZtKnu7bw/pVum+4vZkhH+5DErtEklxcW8LSxeaHH9lv7F/wCyH8Gv2C/2X/CH7I/wAstQh8KeC9Pe309tWvzc3VzJLNJcXFzNIQAZZriaaZgipGrSFY0jQKigHyB/wcM/8EWvCv8AwVN/ZfvPHXwi+H+nyfH/AMEaerfD7WW1FLBtWtVmEk+jXUroUlidGne3EpRYbplPnQRTXXmfyReLPCfirwF4q1PwL468M6hout6LqE1hrOjatZPbXVhdQuY5beaKQB4pUdWRkYBlZSCARX99lfz4/wDB29/wRa8K+C9Om/4KsfstfD/T9JtJtQ2/HiwtdRSCN7q6uIILPWYLUoAZZriZorsxvueSW3n8ks15cEA/BGiiigAooooAKKKKACiiigAooooAKKKKACiiigAooooAKKKKACiiigAooooAKKKKACiiigAooooAKKKKACiiigAooooAKKKKACiiigAooooAKKKKACiiigAooooAKKKKACiiigAooooAKKKKACiiigAooooAKKKKACiiigAooooAKKKKACiiigAooooAKKKKACiivv8A/wCDbr/gmj/w8b/4KO6D/wAJ/wCE/wC0Phl8L/K8VfED7ZYebZ3vlSD7DpUvmW01vL9quQvmW02zzrO3vtjBoxQB+13/AAan/wDBLzwr+x1+wZpH7W/xB8E6f/wtL41aeusDWZIEe603wvMI5NO0+OVJ5U8qdEj1B9ghdmuoYp0LWce39T6KKACs/wAWeE/Cvj3wrqfgXx14Z0/WtE1rT5rDWdG1ayS5tb+1mQxy280UgKSxOjMjIwKsrEEEGtCigD+PL/gv5/wR98Vf8Em/2uJIvDw0+b4T/ErUNT1T4UT2V27SWFrFLG02kTpPLJP5tmLm3jE7s63EbxSbxIZoYfhCv7jP+Civ7Bvwa/4KR/sj+LP2VPjNounvFrWnyv4a129043MnhvWVikWz1WBUkifzYHfJRZEEsbSwOTFNIrfxh/tofsh/GX9gv9qDxf8Asj/H+y0+HxX4L1BLfUG0m/Fza3McsMdxb3MMgAJimt5oZlDqkirIFkSNwyKAeX0UUUAFFFFABRRRQAUUUUAFFFFABRRRQAUUUUAFFFFABRRRQAUUUUAFFFFABRRRQAUUUUAFFFFABRRRQAUUUUAFFFFABRRRQAUUUUAFFFFABRRRQAUUUUAFFFFABRRRQAUUUUAFFFFABRRRQAUUUUAFFFFABRRRQAUUUUAFFFFABRRRQAUUUUAFFFFABX9Xv/Bo7+zR8LPg/wD8EhfDfx08J6TnxP8AFvxBq2q+LdUuIIPOf7DqV1plraJKkayG2jitDKkcjSbJry6ZSol2j+UKv7Pf+CA/wL/4Z3/4I2/s9+AP+Ep/tj+0Ph/D4n+1/Yfs/l/23NLrP2fbvfPk/b/I35HmeVv2pu2KAfX9FFFABRRRQAV8gf8ABVz/AIIo/sbf8FaPAkv/AAuTwx/YnxG03w/Npvgr4paQr/b9G3SrNGk0SyJHqFsJQ2befO1bi58h7eSZph9f0UAfxJf8FMP+CVn7XH/BKH4y2Pwg/al8Oae8WtaeL3wz4v8ADc8tzo2uRqE89baeWKJ/Ngd1jlhkjSRCyPtMU0MknzhX95nx++APwa/al+DXiH9nz9oP4e6f4q8G+KtPNlruhamhMdxHkMrBlIeKVHVJI5o2WSKSNJI2R0Vh/Ll/wXs/4NzfHf8AwSu8j9oj9m/VfEHjn4GXf2e11HVtYEU2q+FL99sYTUDbxRxvbTykeTdJGiq8gt5VVzBJdAH5gUUUUAFFFFABRRRQAUUUUAFFFFABRRRQAUUUUAFFFFABRRRQAUUUUAFFFFABRRRQAUUUUAFFFFABRRRQAUUUUAFFFFABRRRQAUUUUAFFFFABRRRQAUUUUAFFFFABRRRQAUUUUAFFFFABRRRQAUUUUAFFFFABRRRQAUUUUAFFFFABRRRQAUUV+13/AAZu/sG/sj/tH/GX4gftV/F/RdQ8R+O/g1qGkP4Q0LU9Oi/sbTJL0XLQaqG8xnur6N7OYRo8aR2pCToZpnjazAOg+AP/AAZG/GXxz8GvD3jH9oP9ubT/AAB4y1PTxca74L0z4eDW49GkYkrbG9XU4EnlVNgkMaeWsm9Y3mRVlf8Ae79k74F/8Mv/ALLHw0/Zo/4Sn+3P+Fd/D/RvDH9t/Yfs39ofYLGG1+0eTvk8rzPK37N77d2NzYyfQKKACiiigAooooAKKKKACs/xZ4T8K+PfCup+BfHXhnT9a0TWtPmsNZ0bVrJLm1v7WZDHLbzRSApLE6MyMjAqysQQQa0KKAP5of8Agvn/AMGvn/DF3gTUP2zP+CeNv4g8QfDnTPtN54/8C6jc/bb/AMKWxleUXtnIFElzpsMTLHIspkuLdYhPJLPG08lt+MNf3+V/IF/wcQ/8Ehv+HU37ZI/4Vbov2b4N/En7RqPwu87XvttzZ+Qlv9v02beFmX7PNcJ5TP5m+3mt9080yz7AD4AooooAKKKKACiiigAooooAKKKKACiiigAooooAKKKKACiiigAooooAKKKKACiiigAooooAKKKKACiiigAooooAKKKKACiiigAooooAKKKKACiiigAooooAKKKKACiiigAooooAKKKKACiiigAooooAKKKKACiiigAooooAKKKKACv2O/4MsPj9qPgb/goX8Qf2fNR+IWn6Zonj/wCF8l7DoV69vHJrOs6beQNarAzjzXlis7rVpDDE2GjEsjqwhDJ+ONff/wDwa4/8p1/gZ/3M3/qMatQB/X7RXP8A/C2PhZ/wtP8A4UX/AMLL8P8A/Cbf8I//AG7/AMId/bMH9q/2V5/2f7f9k3+d9m8791523Zv+Xdu4roKACiiigAooooAKKKKACiiigArw/wD4KK/sG/Br/gpH+yP4s/ZU+M2i6e8WtafK/hrXb3TjcyeG9ZWKRbPVYFSSJ/Ngd8lFkQSxtLA5MU0it7hRQB/CH+1V+zR8U/2N/wBo7xp+y58a9J+yeJ/A3iC40rU9kE8cN15bfu7u38+OOR7aeIxzwyMi+ZDNG4GHFef1/T9/wdk/8Ehv+Gu/2cT/AMFBPgpovm/Eb4QeH5P+EsS417yIdQ8G2y3d5cbIZAY2ubSWSS4Ta8ReF7pD58gtYh/MDQAUUUUAFFFFABRRRQAUUUUAFFFFABRRRQAUUUUAFFFFABRRRQAUUUUAFFFFABRRRQAUUUUAFFFFABRRRQAUUUUAFFFFABRRRQAUUUUAFFFFABRRRQAUUUUAFFFFABRRRQAUUUUAFFFFABRRRQAUUUUAFFFFABRRRQAUUUUAFegfsufC39o744/HbQvgp+yXoXiDVPHvjD7VomkaZ4aumgubuG7tZYLyF5AyLHbPaSXC3DSMsK25mMxEQc1n/AH4A/GX9qX4y+Hv2fP2fPh7qHirxl4q1AWWhaFpiAyXEmCzMWYhIokRXkkmkZY4o43kkZERmH9bv/BDj/ghx8Gv+CQvwafVNUl0/wAVfGjxVp6J488eRQkxwR5WT+ytN8xQ8VijqpZyFkupI1llChIILcA9A/4I7/8ABKz4Nf8ABKH9kfR/hB4O8Oae/jvWtPs734r+L7ec3MmuaysX7xY53iif7DA7yx2sJjQJGxdlM008kn1fRRQAUUUUAFFFFABRRRQAUUUUAFFFFAHH/tC/Gvwr+zX8AvHH7RnjrT9Qu9E8AeD9T8Saza6TEkl1Na2NrJdSpCsjojSlImChnRSxALKOR/BnX9/lfkD/AMFLv+DQj9jb9pn+1vil+wx4h/4Ut42ufPuv+Ec8p7rwrqVy32qbZ9nz52l+ZNLbx77Znt7eCDbFYsxzQB/MDRXsH7Yv7Af7ZP8AwT/8dw/Dr9sP9nvxB4G1C73f2ZcajCk1hqeyKCWT7HfQNJa3nlrcwiTyJX8ppAj7XBUeP0AFFFfT/wDwTY/4I/8A7cX/AAVS8dnwz+zN8Nvs3h+2+1Lq3xH8UxXNr4b02aCKOQ20t5HDLvuW8+3C20SSTYnWQosSySoAfOHhPwn4q8e+KtM8C+BfDOoa1retahDYaNo2k2T3N1f3UziOK3hijBeWV3ZUVFBZmYAAk1+93/BIb/gz8/48vjp/wVvT/n/hi+Bujat/uxW91f6tp91/12lW2tW/59me4/19pX6f/wDBKP8A4Io/sbf8El/AkX/Cm/DH9t/EbUvD8Om+Nfilq6v9v1nbK00iQxNI8en2xlK4t4Mblt7bz3uJIVmP1/QB/Dn/AMFNvCfhXwF/wUk/aD8C+BfDOn6Lomi/HDxZYaNo2k2SW1rYWsOsXUcVvDFGAkUSIqoqKAqqoAAArw+vf/8AgrF/ylN/aW/7OA8Zf+ny8rwCgAooooAKKKKACiiigAooooAKKKKACiiigAooooAKKKKACiiigAooooAKKKKACiiigAooooAKKKKACiiigAooooAKKKKACiiigAooooAKKKKACiiigAooooAKKKKACiiigAooooAKKKKACuw+APwB+Mv7Uvxl8Pfs+fs+fD3UPFXjLxVqAstC0LTEBkuJMFmYsxCRRIivJJNIyxxRxvJIyIjMM/4T/C3x38cfin4a+Cnwt0L+1PE/jDxBZaJ4c0z7VFB9rv7udILeHzJmSOPfLIi7nZVXOWIAJr+u3/ghx/wQ4+DX/BIX4NPqmqS6f4q+NHirT0Tx548ihJjgjysn9lab5ih4rFHVSzkLJdSRrLKFCQQW4Af8EOP+CHHwa/4JC/Bp9U1SXT/FXxo8VaeiePPHkUJMcEeVk/srTfMUPFYo6qWchZLqSNZZQoSCC3+76KKACiiigAooooAKKKKACiiigAooooAKKKKACiiigDj/AI/fAH4NftS/BrxD+z5+0H8PdP8AFXg3xVp5std0LU0JjuI8hlYMpDxSo6pJHNGyyRSRpJGyOisPwx/4KXf8GZX/ACFviz/wS4+K3/Pe7/4VJ4/vf+vqb7PpuqY/69LaGC9X+/LNf9q/f6igD+eH/glH/wAGdfjvxBrEXxb/AOCs+o/2FpEHky6Z8KfB/iSKW/u5o7xvMj1S9gWSGK2khiGI7KZpnW8DefayQFH/AH++Fvwn+FnwO8CWPwt+Cnw08P8Ag/wxpfm/2Z4c8LaNBp9haeZK80nlW8CJHHvlkkkbao3M7Mckk10FFABRRWf4s8WeFfAXhXU/HXjrxNp+i6JounzX+s6zq16lta2FrChkluJpZCEiiRFZ2diFVVJJAFAH8SX/AAVi/wCUpv7S3/ZwHjL/ANPl5XgFdh+0L8a/FX7Snx98cftGeOtP0+01vx/4w1PxJrNrpMTx2sN1fXUl1KkKyO7rEHlYKGd2CgAsx5PH0AFFFFABRRRQAUUUUAFFFFABRRRQAUUUUAFFFFABRRRQAUUUUAFFFFABRRRQAUUUUAFFFFABRRRQAUUUUAFFFFABRRRQAUUUUAFFFFABRRRQAUUUUAFFFFABRRRQAUUUUAFFFFABRRRQB7//AMEnf+Upv7NP/ZwHg3/0+Wdf2+1/IF/wa4/8p1/gZ/3M3/qMatX9ftABRRRQAUUUUAFFFFABRRRQAUUUUAFFFFABRRRQAUUUUAFFFFABRRRQAV8If8HJ/wC15p37IP8AwR++Kl8l7p6638R9PHgDw5Z6nYXE8d5JqqPFeIDAR5UqaYuozxySMsYkt0B3llik+76/AH/g95/aj/5If+xT4e8c/wDQR8beLvDP9mfSw0i7+0NF/wBhuPyo5P8AalT/AFDUAfgDRRRQAUUUUAFFFFABRRRQAUUUUAFFFFABRRRQAUUUUAFFFFABRRRQAUUUUAFFFFABRRRQAUUUUAFFFFABRRRQAUUUUAFFFFABRRRQAUUUUAFFFFABRRRQAUUUUAFFFFABRRRQAUUUUAFFFFAH6H/8GrHibUdB/wCC43wi0uxttPeLWtP8SWV417pNvcyRxroF/cBoJJY2e1l3wIDNCUkMbSxFjFNKj/121/DH/wAE9vil4E+B37fXwP8AjX8Utd/svwx4P+MHhnW/Eep/ZZZ/slhaarbT3E3lwq8kmyKN22orM2MKCSBX9zlABRRRQAUUUUAFFFFABRRRQAUUUUAFFFFABRRRQAUUUUAFFFFABRRRQBn+LPFnhXwF4V1Px1468TafouiaLp81/rOs6tepbWthawoZJbiaWQhIokRWdnYhVVSSQBX8Of7fn7Yvjv8A4KAftk/EL9sP4i2f2TUPHPiB7u30zzIpP7MsI0WCxsfMihhWb7PaRW8HnGNWl8nzHG92J/ot/wCDwD/goF4q/Za/YM0L9lL4cz6hY638etQvLDUtZtGeJbfQNPFvJqFussU8bpLcPdWduUZJYpbWS9jcKWTP8uVABRRRQAUUUUAFFFFABRRRQAUUUUAFFFFABRRRQAUUUUAFFFFABRRRQAUUUUAFFFFABRRRQAUUUUAFFFFABRRRQAUUUUAFFFFABRRRQAUUUUAFFFFABRRRQAUUUUAFFFFABRRRQAUUUUAFFFFABX9/lfwB1/e58J/il4E+OPws8NfGv4W67/anhjxh4fstb8Oan9llg+12F3Ak9vN5cypJHvikRtrqrLnDAEEUAdBRRRQAUUUUAFFFFABRRRQAUUUUAFFFFABRRRQAUUUUAFFFFABXH/H74/fBr9lr4NeIf2g/2g/iFp/hXwb4V083uu67qbkR28eQqqFUF5ZXdkjjhjVpJZJEjjV3dVPgHw4/4Lpf8Efvip4q8T+DvDH/AAUS+F9rd+EdQFlqs3iTxEmjWs8m+VN1ldagIYNSizC5860eaPaY23bZYy/4of8AB1l/wW10f9qzx3Zf8E/f2Qvir/aXwy8NeTf+PvEnhbxJZ3mkeNr+WK2ubSCKW0L+dbWWSWBl2vds26ENZQSsAfnB/wAFOv8AgoX8U/8AgqD+2T4o/a5+KWmf2R/a/k2fhzwtDqs93beH9Kt02W9lC8x/35pWRYkkuLi4mWKLzSg8AoooAKKKKACiiigAooooAKKKKACiiigAooooAKKKKACiiigAooooAKKKKACiiigAooooAKKKKACiiigAooooAKKKKACiiigAooooAKKKKACiiigAooooAKKKKACiiigAooooAKKKKACiiigAooooAK/t9/4JO/8AKLL9mn/s3/wb/wCmOzr+IKv7jP8AgmTo2neHP+Cbf7Pnh7R/Fmn6/aWHwP8ACdva67pMdwlrqMaaPaqtzCt1FDOsUgAdRLFHIFYb0RsqAD3CiiigAooooAKKKKACiiigAooooAKKKKACiiigAooooAK+AP8Ag5F/4KXf8O5P+Ccevf8ACAeLP7P+JvxQ83wr8P8A7Hf+VeWXmxn7dqsXl3MNxF9lti3l3MO/yby4sd6lZDX2f8fvj98Gv2Wvg14h/aD/AGg/iFp/hXwb4V083uu67qbkR28eQqqFUF5ZXdkjjhjVpJZJEjjV3dVP8gX/AAXH/wCCuvir/gr5+1wnxXsfDuoeG/h74S099H+HPha+1B5JIrUytJLqFzGJGgjvrk7DL5ICrHBbQl5vs4mkAPjCiiigAooooAKKKKACiiigAooooAKKKKACiiigAooooAKKKKACiiigAooooAKKKKACiiigAooooAKKKKACiiigAooooAKKKKACiiigAooooAKKKKACiiigAooooAKKKKACiiigAooooAKKKKACiiigAooooAK/rd/4NTP2l/8Ahoj/AII2+CvDuoat4g1DV/hf4g1Xwbq99r8/m+Z5UwvrOO2cyOxtodPv7G2RWCeX9naNUEcaM38kVfs9/wAGZX7dOsfC39snxX+wb4u8Z+X4Y+KPh+bV/C2k3K3k2PEmnoJHFuEYwW3nact488kiAy/2baIJAUSOQA/peooooAKKKKACiiigAooooAKKKKACiiigAoor5g/bp/4LJ/8ABOP/AIJ26PrP/DRv7TXh9PE+i4jk+HXhy9j1LxJLcvZtdwQGwhYyW3nRKuye58m3Bmh3zIJEJAPp+vH/ANun9un9nH/gnR+zjrP7UH7UHjP+yvD+lYhsrK1VZL/Wr91Yw6fYwll8+5l2NhcqqKkksjxxRSSJ+CP7eX/B59+0/wDFTTr3wL+wF8ENP+FVodQuEh8c+J5odb1me1W4ia1litHi+x2MrxRypNFIL5cXGI5EaISt+OPxS+LHxT+OPju++KXxr+JfiDxh4n1Tyv7T8R+KdZn1C/u/LiSGPzbid3kk2RRxxruY7VRVGAAKAPf/APgq5/wVc/aO/wCCtX7R0vxr+Nd1/ZXh/SvOtfAHgCxu2ksPDNg7KSiEhfPuZdkbT3TKrTMigLHFFBBF8wUUUAFFFFABRRRQAUUUUAFFFFABRRRQAUUUUAFFFFABRRRQAUUUUAFFFFABRRRQAUUUUAFFFFABRRRQAUUUUAFFFFABRRRQAUUUUAFFFFABRRRQAUUUUAFFFFABRRRQAUUUUAFFFFABRRRQAUUUUAFFFFABRRRQAV6h+xT+1B4q/Yr/AGuPhx+1f4OTUJrvwD4wsdYm0/TNafTpNTtYpVN1p5uEVjHFc2/m20mUdTHO6sjqSp8vooA/vs8J+LPCvj3wrpnjrwL4m0/WtE1rT4b/AEbWdJvUubW/tZkEkVxDLGSksToyurqSrKwIJBrQr+PL/gj7/wAF/P2uP+CTfioeHop9Q+JXwnm0+W3n+FGu+JZYLWwkLzTpc6ZMyTDTZftE0jyiOJo7hZZPMQyCGaH+q39hb9un9nH/AIKL/s46N+1B+y/4z/tXw/quYb2yulWO/wBFv0VTNp99CGbyLmLeuVyyurxyxvJFLHI4B7BRRRQAUUUUAFFFZ/izxZ4V8BeFdT8deOvE2n6Lomi6fNf6zrOrXqW1rYWsKGSW4mlkISKJEVnZ2IVVUkkAUAaFZ/izxZ4V8BeFdT8deOvE2n6Lomi6fNf6zrOrXqW1rYWsKGSW4mlkISKJEVnZ2IVVUkkAV+MP/BUP/g8Q+DXwB8Va38D/APgnT8MtP+JniLR9QeyuviN4kuT/AMIuJIntyzWUVrKs+qxMDdw+cJbWMPHHLE13C4Lfhh+2t/wVO/4KCf8ABRL+z7b9sX9qHxB4w0/S/Kax0Hy7fT9Kimj88Jc/YLGOG1a5C3M6faTGZij7C5QKoAP6Tv28v+DrD/glz+xxqN74F+Gfi3UPjb4rh0+4eG3+GUlvPo0N0LeKa1iuNWeQQGKYzBGlsxeNCYphJGHQRv8AIHhn/g+U8K3WoyReMf8AgmpqFhaDT7t4Z9M+LSXcjXS28jWsRR9LhCxSXAijklDFoo3eRY5mQQv/AD40UAfo/wDt0/8AB0v/AMFV/wBsDWNZ0b4cfFr/AIUx4J1DEVl4a+G4FvfxQx3jXEMkmsFft32nZ5UMsltJbQyrFjyEWSRX/OCiigAooooAKKKKACiiigAooooAKKKKACiiigAooooAKKKKACiiigAooooAKKKKACiiigAooooAKKKKACiiigAooooAKKKKACiiigAooooAKKKKACiiigAooooAKKKKACiiigAooooAKKKKACiiigAooooAKKKKACiiigAooooAKKKKACvcP2Dv+Civ7XH/AATc+Mtl8Zv2VPixqGiypqFvca74alupX0bxJHCJUW21KzV1S6i2TzqpOJIjM0kLxShZF8PooA/pu8J/8Hr/APwTbvPCumXnjr9mr44adrcunwvrOn6TpGj3tra3RQGWKG4k1KB54lfcqytDEzqAxjQnaPT/AIF/8HeX/BG34t/2p/wn/jX4gfC/+z/I+yf8J14EmuP7T8zzN3kf2M9/t8vYu7zvKz5qbN+H2fyhUUAf2G+Gf+Dmj/ghz4s1GTS9L/bu0+KWLT7u9ZtT8Ea/ZRmO2t5LiRRJcWCI0pSJhHCCZJpCkUSvLIiN4/8AGv8A4PC/+CP3wr8VW/h7wLc/FD4lWk2npcSa74K8EJBawSF5FNs66vcWM5lUIrkrE0e2VMOWDqn8qVFAH7nfGv8A4Pgvj7r3hW3s/wBnP9gbwf4V1tdQR7rUPGvjS61+1ktdkgaJLe1g090lLmJhKZmUKjr5ZLhk/ND/AIKT/wDBYD9uL/gql47Hib9pn4k/ZvD9t9lbSfhx4WlubXw3ps0EUkYuYrOSaXfct59wWuZXkmxO0YdYljiT5gooAKKKKACiiigAooooAKKKKACiiigAooooAKKKKACiiigAooooAKKKKACiiigAooooAKKKKACiiigAooooAKKKKACiiigAooooAKKKKACiiigAooooAKKKKACiiigAooooAKKKKACiiigAooooAKKKKACiiigAooooAKKKKACiiigAooooAKKKKACiiigAooooAKKKKACiiigAooooAKKKKACiiigAooooAKKKKACiiigAooooAKKKKACiiigAooooAKKKKACiiigAooooAKKKKACiiigAooooAKKKKACiiigAooooAKKKKACiiigAooooAKKKKACiiigAooooAKKKKACiiigAooooAKKKKACiiigAooooAKKKKACiiigAooooAKKKKACiiigAooooAKKKKACiiigAooooAKKKKACiiigAooooAKKKKACiiigAooooAKKKKACiiigAooooAKKKKACiiigAooooAKKKKACiiigAooooAKKKKACiiigAooooAKKKKACiiigAooooAKKKKACiiigAooooAKKKKACiiigAooooAKKKKACiiigAooooAKKKKACiiigAooooAKKKKACiiigAooooAKKKKACiiigAooooAKKKKACiiigAooooAKKKKACiiigAooooAKKKKACiiigAooooAKKKKACiiigAooooAKKKKACiiigAooooAKKKKACiiigAooooAKKKKACiiigAooooAKKKKACiiigAooooAKKKKACiiigAooooAKKKKACiiigAooooAKKKKACiiigAooooAKKKKACiiigAooooAKKKKACiiigAooooAKKKKACiiigAooooAKKKKACiiigAooooAKKKKACiiigAooooAKKKKACiiigAooooAKKKKACiiigAooooAKKKKACiiigAooooAKKKKACiiigAooooAKKKKACiiigAooooAKKKKACiiigAooooAKKKKACiiigAooooAKKKKACiiigAooooAKKKKACiiigAooooAKKKKACiiigAooooAKKKKACiiigAooooAKKKKACiiigAooooAKKKKACiiigAooooAKKKKACiiigAooooAKKKKACiiigAooooAKKKKACiiigAooooAKKKKACiiigAooooAKKKKACiiigAooooAKKKKACiiigAooooAKKKKACiiigAooooAKKKKACiiigAooooAKKKKACiiigAooooAKKKKACiiigAooooAKKKKACiiigAooooAKKKKACiiigAooooAKKKKACiiigAooooAKKKKACiiigAooooAKKKKACiiigAooooAKKKKACiiigAooooAKKKKACiiigAooooAKKKKACiiigAooooAKKKKACiiigAooooAKKKKACiiigAooooAKKKKACiiigAooooAKKKKACiiigAooooAKKKKACiiigAooooAKKKKACiiigAooooAKKKKACiiigAooooAKKKKACiiigAooooAKKKKACiiigAooooAKKKKACiiigAooooAKKKKACiiigAooooAKKKKACiiigAooooAKKKKACiiigAooooAKKKKACiiigAooooAKKKKACiiigAooooAKKKKACiiigAooooAKKKKACiiigAooooAKKKKACiiigAooooAKKKKACiiigAooooAKKKKACiiigAooooAKKKKACiiigAooooAKKKKACiiigAooooAKKKKACiiigAooooAKKKKACiiigAooooAKKKKACiiigAooooAKKKKACiiigAooooAKKKKACiiigAooooAKKKKACiiigAooooAKKKKACiiigAooooAKKKKACiiigAooooAKKKKACiiigAooooAKKKKACiiigAooooAKKKKACiiigAooooAKKKKACiiigAooooAKKKKACiiigAooooAKKKKACiiigAooooAKKKKAP/2Q==;" vertex="1" parent="1">
          <mxGeometry x="390" y="398.22" width="48.83" height="41.78" as="geometry" />
        </mxCell>
        <mxCell id="I8u54NmZ8nvwyBFgocyv-7" value="labeled data" style="text;strokeColor=none;align=center;fillColor=none;html=1;verticalAlign=middle;whiteSpace=wrap;rounded=0;" vertex="1" parent="1">
          <mxGeometry x="378.83" y="450" width="60" height="30" as="geometry" />
        </mxCell>
        <mxCell id="I8u54NmZ8nvwyBFgocyv-8" value="Segmentation Model (M)" style="rounded=1;whiteSpace=wrap;html=1;" vertex="1" parent="1">
          <mxGeometry x="480" y="360" width="120" height="60" as="geometry" />
        </mxCell>
        <mxCell id="I8u54NmZ8nvwyBFgocyv-9" value="" style="shape=flexArrow;endArrow=classic;html=1;rounded=0;" edge="1" parent="1">
          <mxGeometry width="50" height="50" relative="1" as="geometry">
            <mxPoint x="437.5" y="390" as="sourcePoint" />
            <mxPoint x="477.5" y="390" as="targetPoint" />
          </mxGeometry>
        </mxCell>
        <mxCell id="I8u54NmZ8nvwyBFgocyv-10" value="" style="shape=flexArrow;endArrow=classic;html=1;rounded=0;" edge="1" parent="1">
          <mxGeometry width="50" height="50" relative="1" as="geometry">
            <mxPoint x="610" y="389.5" as="sourcePoint" />
            <mxPoint x="650" y="389.5" as="targetPoint" />
          </mxGeometry>
        </mxCell>
        <mxCell id="I8u54NmZ8nvwyBFgocyv-11" value="Loss" style="text;strokeColor=none;align=center;fillColor=none;html=1;verticalAlign=middle;whiteSpace=wrap;rounded=0;" vertex="1" parent="1">
          <mxGeometry x="660" y="375" width="60" height="30" as="geometry" />
        </mxCell>
        <mxCell id="I8u54NmZ8nvwyBFgocyv-12" value="&lt;a class=&quot;CID0ebdc111-d519-44ac-9e85-290978b4b5ef&quot; data-sessionid=&quot;d9c9ff16-a5b2-84dd-0eb9-c4e067802bce&quot; data-shapeids=&quot;58&quot; data-slideid=&quot;&quot;&gt;&amp;nbsp;&lt;/a&gt;&lt;img src=&quot;data:image/jpg;base64, /9j/4AAQSkZJRgABAQEAYABgAAD/2wBDAAUDBAQEAwUEBAQFBQUGBwwIBwcHBw8LCwkMEQ8SEhEPERETFhwXExQaFRERGCEYGh0dHx8fExciJCIeJBweHx7/2wBDAQUFBQcGBw4ICA4eFBEUHh4eHh4eHh4eHh4eHh4eHh4eHh4eHh4eHh4eHh4eHh4eHh4eHh4eHh4eHh4eHh4eHh7/wAARCAAuAC0DASIAAhEBAxEB/8QAHwAAAQUBAQEBAQEAAAAAAAAAAAECAwQFBgcICQoL/8QAtRAAAgEDAwIEAwUFBAQAAAF9AQIDAAQRBRIhMUEGE1FhByJxFDKBkaEII0KxwRVS0fAkM2JyggkKFhcYGRolJicoKSo0NTY3ODk6Q0RFRkdISUpTVFVWV1hZWmNkZWZnaGlqc3R1dnd4eXqDhIWGh4iJipKTlJWWl5iZmqKjpKWmp6ipqrKztLW2t7i5usLDxMXGx8jJytLT1NXW19jZ2uHi4+Tl5ufo6erx8vP09fb3+Pn6/8QAHwEAAwEBAQEBAQEBAQAAAAAAAAECAwQFBgcICQoL/8QAtREAAgECBAQDBAcFBAQAAQJ3AAECAxEEBSExBhJBUQdhcRMiMoEIFEKRobHBCSMzUvAVYnLRChYkNOEl8RcYGRomJygpKjU2Nzg5OkNERUZHSElKU1RVVldYWVpjZGVmZ2hpanN0dXZ3eHl6goOEhYaHiImKkpOUlZaXmJmaoqOkpaanqKmqsrO0tba3uLm6wsPExcbHyMnK0tPU1dbX2Nna4uPk5ebn6Onq8vP09fb3+Pn6/9oADAMBAAIRAxEAPwD5cL6nfa9JZ293P5ktwyrmUgD5jyeele36d4N0LT9Nso7qN7+Yp++mllfLNn2bp6V494YVW8YXCtjGZc/99V6vorMFjjEkhiB6FicV5OYSrc8VCVkt/M9bLqdN+9NXOt07wj4Qm2+Zo0TZ/wCmsn/xVdFbfD/wLJECdChz/wBdZP8A4qsTR3jyimTHtXW2M7I2A3y149WrWvpJ/ee8qFFr4F9yOX+IXwi0XUvDEy+GY/7M1WIeZA0c77ZSB/q2y3Q9j2NfNOnSana3d5a3k13FPC4SSN3YMjAkEEV9raYZLwySFCYIsbmHrXyZ8SwF+LPiwdR9u6/hXpZPi5VXKm3ex4ubYaFO0o6MwfDWB4wnJO0bpcn/AIFXsHh61XzI5H/1e4cHvXjGjyLH4qmZ+nmSf+hV6zpet2jweWJk3Lg7c810Y9PoTlnLdc3c9nsbOOW2gkaFMOPlIxkjOOfyqydO8zcsKYPTOcVh+GdSjFsjSfOuAQNxrstDngkKNnnuCepr52SakfQ1J8t2Z+namljYXelzSwxz4/dl2ADn/e6Z/GvlDx+5k+JvieRuCbzP6V9ga9o1nKY7ia2V1fJC5wPY/h6Gvj7x8MfE3xOPS8/pXfkWFVCrOz0a27a3/U8XN60atOLW99fuOUEqw69NI2CPPfg9D8xq9dSzXEomDbGX7uzjFVNR024OoXJ3RY85/wCI/wB4+1Ojhv0UKHhOO+T/AIV9HKF3c8OM7HX6F8QNa0mBbeaFLqNOAxbDEe5712eg/GxLZwLzTZkX1jcN/hXjvkXv96LP++f8KT7PeZ58g/if8K5J4GlU+KJ2RzGtFWvf1Po2L41eH7lPmuHiP/TSMivCdb1KHWPGGt6pbsTFc3G9CR1HNYkljdOMboVHfDH/AAq9omnXCmb5ov4e59/atMNg4UG3HqZV8VKskmj/2Q==&quot; alt=&quot;A blurry image of a person&amp;amp;#39;s face&#xa;&#xa;Description automatically generated&quot; data-image-width-mu=&quot;0.961538461538462&quot; data-image-height-mu=&quot;0.982905982905983&quot; data-from-ppt-online=&quot;true&quot; class=&quot;CID0ebdc111-d519-44ac-9e85-290978b4b5ef&quot;&gt;" style="text;whiteSpace=wrap;html=1;" vertex="1" parent="1">
          <mxGeometry x="385.08" y="509.99584158415837" width="47.49999999999999" height="79.20792079207921" as="geometry" />
        </mxCell>
        <mxCell id="I8u54NmZ8nvwyBFgocyv-13" value="&lt;a class=&quot;CID0ebdc111-d519-44ac-9e85-290978b4b5ef&quot; data-sessionid=&quot;d9c9ff16-a5b2-84dd-0eb9-c4e067802bce&quot; data-shapeids=&quot;58&quot; data-slideid=&quot;&quot;&gt;&amp;nbsp;&lt;/a&gt;&lt;img src=&quot;data:image/jpg;base64, /9j/4AAQSkZJRgABAQEAYABgAAD/2wBDAAUDBAQEAwUEBAQFBQUGBwwIBwcHBw8LCwkMEQ8SEhEPERETFhwXExQaFRERGCEYGh0dHx8fExciJCIeJBweHx7/2wBDAQUFBQcGBw4ICA4eFBEUHh4eHh4eHh4eHh4eHh4eHh4eHh4eHh4eHh4eHh4eHh4eHh4eHh4eHh4eHh4eHh4eHh7/wAARCAAuAC0DASIAAhEBAxEB/8QAHwAAAQUBAQEBAQEAAAAAAAAAAAECAwQFBgcICQoL/8QAtRAAAgEDAwIEAwUFBAQAAAF9AQIDAAQRBRIhMUEGE1FhByJxFDKBkaEII0KxwRVS0fAkM2JyggkKFhcYGRolJicoKSo0NTY3ODk6Q0RFRkdISUpTVFVWV1hZWmNkZWZnaGlqc3R1dnd4eXqDhIWGh4iJipKTlJWWl5iZmqKjpKWmp6ipqrKztLW2t7i5usLDxMXGx8jJytLT1NXW19jZ2uHi4+Tl5ufo6erx8vP09fb3+Pn6/8QAHwEAAwEBAQEBAQEBAQAAAAAAAAECAwQFBgcICQoL/8QAtREAAgECBAQDBAcFBAQAAQJ3AAECAxEEBSExBhJBUQdhcRMiMoEIFEKRobHBCSMzUvAVYnLRChYkNOEl8RcYGRomJygpKjU2Nzg5OkNERUZHSElKU1RVVldYWVpjZGVmZ2hpanN0dXZ3eHl6goOEhYaHiImKkpOUlZaXmJmaoqOkpaanqKmqsrO0tba3uLm6wsPExcbHyMnK0tPU1dbX2Nna4uPk5ebn6Onq8vP09fb3+Pn6/9oADAMBAAIRAxEAPwD5cL6nfa9JZ293P5ktwyrmUgD5jyeele36d4N0LT9Nso7qN7+Yp++mllfLNn2bp6V494YVW8YXCtjGZc/99V6vorMFjjEkhiB6FicV5OYSrc8VCVkt/M9bLqdN+9NXOt07wj4Qm2+Zo0TZ/wCmsn/xVdFbfD/wLJECdChz/wBdZP8A4qsTR3jyimTHtXW2M7I2A3y149WrWvpJ/ee8qFFr4F9yOX+IXwi0XUvDEy+GY/7M1WIeZA0c77ZSB/q2y3Q9j2NfNOnSana3d5a3k13FPC4SSN3YMjAkEEV9raYZLwySFCYIsbmHrXyZ8SwF+LPiwdR9u6/hXpZPi5VXKm3ex4ubYaFO0o6MwfDWB4wnJO0bpcn/AIFXsHh61XzI5H/1e4cHvXjGjyLH4qmZ+nmSf+hV6zpet2jweWJk3Lg7c810Y9PoTlnLdc3c9nsbOOW2gkaFMOPlIxkjOOfyqydO8zcsKYPTOcVh+GdSjFsjSfOuAQNxrstDngkKNnnuCepr52SakfQ1J8t2Z+namljYXelzSwxz4/dl2ADn/e6Z/GvlDx+5k+JvieRuCbzP6V9ga9o1nKY7ia2V1fJC5wPY/h6Gvj7x8MfE3xOPS8/pXfkWFVCrOz0a27a3/U8XN60atOLW99fuOUEqw69NI2CPPfg9D8xq9dSzXEomDbGX7uzjFVNR024OoXJ3RY85/wCI/wB4+1Ojhv0UKHhOO+T/AIV9HKF3c8OM7HX6F8QNa0mBbeaFLqNOAxbDEe5712eg/GxLZwLzTZkX1jcN/hXjvkXv96LP++f8KT7PeZ58g/if8K5J4GlU+KJ2RzGtFWvf1Po2L41eH7lPmuHiP/TSMivCdb1KHWPGGt6pbsTFc3G9CR1HNYkljdOMboVHfDH/AAq9omnXCmb5ov4e59/atMNg4UG3HqZV8VKskmj/2Q==&quot; alt=&quot;A blurry image of a person&amp;amp;#39;s face&#xa;&#xa;Description automatically generated&quot; data-image-width-mu=&quot;0.961538461538462&quot; data-image-height-mu=&quot;0.982905982905983&quot; data-from-ppt-online=&quot;true&quot; class=&quot;CID0ebdc111-d519-44ac-9e85-290978b4b5ef&quot;&gt;" style="text;whiteSpace=wrap;html=1;" vertex="1" parent="1">
          <mxGeometry x="395.08" y="519.9958415841584" width="47.49999999999999" height="79.20792079207921" as="geometry" />
        </mxCell>
        <mxCell id="I8u54NmZ8nvwyBFgocyv-14" value="&lt;a class=&quot;CID0ebdc111-d519-44ac-9e85-290978b4b5ef&quot; data-sessionid=&quot;d9c9ff16-a5b2-84dd-0eb9-c4e067802bce&quot; data-shapeids=&quot;58&quot; data-slideid=&quot;&quot;&gt;&amp;nbsp;&lt;/a&gt;&lt;img src=&quot;data:image/jpg;base64, /9j/4AAQSkZJRgABAQEAYABgAAD/2wBDAAUDBAQEAwUEBAQFBQUGBwwIBwcHBw8LCwkMEQ8SEhEPERETFhwXExQaFRERGCEYGh0dHx8fExciJCIeJBweHx7/2wBDAQUFBQcGBw4ICA4eFBEUHh4eHh4eHh4eHh4eHh4eHh4eHh4eHh4eHh4eHh4eHh4eHh4eHh4eHh4eHh4eHh4eHh7/wAARCAAuAC0DASIAAhEBAxEB/8QAHwAAAQUBAQEBAQEAAAAAAAAAAAECAwQFBgcICQoL/8QAtRAAAgEDAwIEAwUFBAQAAAF9AQIDAAQRBRIhMUEGE1FhByJxFDKBkaEII0KxwRVS0fAkM2JyggkKFhcYGRolJicoKSo0NTY3ODk6Q0RFRkdISUpTVFVWV1hZWmNkZWZnaGlqc3R1dnd4eXqDhIWGh4iJipKTlJWWl5iZmqKjpKWmp6ipqrKztLW2t7i5usLDxMXGx8jJytLT1NXW19jZ2uHi4+Tl5ufo6erx8vP09fb3+Pn6/8QAHwEAAwEBAQEBAQEBAQAAAAAAAAECAwQFBgcICQoL/8QAtREAAgECBAQDBAcFBAQAAQJ3AAECAxEEBSExBhJBUQdhcRMiMoEIFEKRobHBCSMzUvAVYnLRChYkNOEl8RcYGRomJygpKjU2Nzg5OkNERUZHSElKU1RVVldYWVpjZGVmZ2hpanN0dXZ3eHl6goOEhYaHiImKkpOUlZaXmJmaoqOkpaanqKmqsrO0tba3uLm6wsPExcbHyMnK0tPU1dbX2Nna4uPk5ebn6Onq8vP09fb3+Pn6/9oADAMBAAIRAxEAPwD5cL6nfa9JZ293P5ktwyrmUgD5jyeele36d4N0LT9Nso7qN7+Yp++mllfLNn2bp6V494YVW8YXCtjGZc/99V6vorMFjjEkhiB6FicV5OYSrc8VCVkt/M9bLqdN+9NXOt07wj4Qm2+Zo0TZ/wCmsn/xVdFbfD/wLJECdChz/wBdZP8A4qsTR3jyimTHtXW2M7I2A3y149WrWvpJ/ee8qFFr4F9yOX+IXwi0XUvDEy+GY/7M1WIeZA0c77ZSB/q2y3Q9j2NfNOnSana3d5a3k13FPC4SSN3YMjAkEEV9raYZLwySFCYIsbmHrXyZ8SwF+LPiwdR9u6/hXpZPi5VXKm3ex4ubYaFO0o6MwfDWB4wnJO0bpcn/AIFXsHh61XzI5H/1e4cHvXjGjyLH4qmZ+nmSf+hV6zpet2jweWJk3Lg7c810Y9PoTlnLdc3c9nsbOOW2gkaFMOPlIxkjOOfyqydO8zcsKYPTOcVh+GdSjFsjSfOuAQNxrstDngkKNnnuCepr52SakfQ1J8t2Z+namljYXelzSwxz4/dl2ADn/e6Z/GvlDx+5k+JvieRuCbzP6V9ga9o1nKY7ia2V1fJC5wPY/h6Gvj7x8MfE3xOPS8/pXfkWFVCrOz0a27a3/U8XN60atOLW99fuOUEqw69NI2CPPfg9D8xq9dSzXEomDbGX7uzjFVNR024OoXJ3RY85/wCI/wB4+1Ojhv0UKHhOO+T/AIV9HKF3c8OM7HX6F8QNa0mBbeaFLqNOAxbDEe5712eg/GxLZwLzTZkX1jcN/hXjvkXv96LP++f8KT7PeZ58g/if8K5J4GlU+KJ2RzGtFWvf1Po2L41eH7lPmuHiP/TSMivCdb1KHWPGGt6pbsTFc3G9CR1HNYkljdOMboVHfDH/AAq9omnXCmb5ov4e59/atMNg4UG3HqZV8VKskmj/2Q==&quot; alt=&quot;A blurry image of a person&amp;amp;#39;s face&#xa;&#xa;Description automatically generated&quot; data-image-width-mu=&quot;0.961538461538462&quot; data-image-height-mu=&quot;0.982905982905983&quot; data-from-ppt-online=&quot;true&quot; class=&quot;CID0ebdc111-d519-44ac-9e85-290978b4b5ef&quot;&gt;" style="text;whiteSpace=wrap;html=1;" vertex="1" parent="1">
          <mxGeometry x="405.08" y="529.9958415841584" width="47.49999999999999" height="79.20792079207921" as="geometry" />
        </mxCell>
        <mxCell id="I8u54NmZ8nvwyBFgocyv-15" value="&lt;a class=&quot;CID0ebdc111-d519-44ac-9e85-290978b4b5ef&quot; data-sessionid=&quot;d9c9ff16-a5b2-84dd-0eb9-c4e067802bce&quot; data-shapeids=&quot;58&quot; data-slideid=&quot;&quot;&gt;&amp;nbsp;&lt;/a&gt;&lt;img src=&quot;data:image/jpg;base64, /9j/4AAQSkZJRgABAQEAYABgAAD/2wBDAAUDBAQEAwUEBAQFBQUGBwwIBwcHBw8LCwkMEQ8SEhEPERETFhwXExQaFRERGCEYGh0dHx8fExciJCIeJBweHx7/2wBDAQUFBQcGBw4ICA4eFBEUHh4eHh4eHh4eHh4eHh4eHh4eHh4eHh4eHh4eHh4eHh4eHh4eHh4eHh4eHh4eHh4eHh7/wAARCAAuAC0DASIAAhEBAxEB/8QAHwAAAQUBAQEBAQEAAAAAAAAAAAECAwQFBgcICQoL/8QAtRAAAgEDAwIEAwUFBAQAAAF9AQIDAAQRBRIhMUEGE1FhByJxFDKBkaEII0KxwRVS0fAkM2JyggkKFhcYGRolJicoKSo0NTY3ODk6Q0RFRkdISUpTVFVWV1hZWmNkZWZnaGlqc3R1dnd4eXqDhIWGh4iJipKTlJWWl5iZmqKjpKWmp6ipqrKztLW2t7i5usLDxMXGx8jJytLT1NXW19jZ2uHi4+Tl5ufo6erx8vP09fb3+Pn6/8QAHwEAAwEBAQEBAQEBAQAAAAAAAAECAwQFBgcICQoL/8QAtREAAgECBAQDBAcFBAQAAQJ3AAECAxEEBSExBhJBUQdhcRMiMoEIFEKRobHBCSMzUvAVYnLRChYkNOEl8RcYGRomJygpKjU2Nzg5OkNERUZHSElKU1RVVldYWVpjZGVmZ2hpanN0dXZ3eHl6goOEhYaHiImKkpOUlZaXmJmaoqOkpaanqKmqsrO0tba3uLm6wsPExcbHyMnK0tPU1dbX2Nna4uPk5ebn6Onq8vP09fb3+Pn6/9oADAMBAAIRAxEAPwD5cL6nfa9JZ293P5ktwyrmUgD5jyeele36d4N0LT9Nso7qN7+Yp++mllfLNn2bp6V494YVW8YXCtjGZc/99V6vorMFjjEkhiB6FicV5OYSrc8VCVkt/M9bLqdN+9NXOt07wj4Qm2+Zo0TZ/wCmsn/xVdFbfD/wLJECdChz/wBdZP8A4qsTR3jyimTHtXW2M7I2A3y149WrWvpJ/ee8qFFr4F9yOX+IXwi0XUvDEy+GY/7M1WIeZA0c77ZSB/q2y3Q9j2NfNOnSana3d5a3k13FPC4SSN3YMjAkEEV9raYZLwySFCYIsbmHrXyZ8SwF+LPiwdR9u6/hXpZPi5VXKm3ex4ubYaFO0o6MwfDWB4wnJO0bpcn/AIFXsHh61XzI5H/1e4cHvXjGjyLH4qmZ+nmSf+hV6zpet2jweWJk3Lg7c810Y9PoTlnLdc3c9nsbOOW2gkaFMOPlIxkjOOfyqydO8zcsKYPTOcVh+GdSjFsjSfOuAQNxrstDngkKNnnuCepr52SakfQ1J8t2Z+namljYXelzSwxz4/dl2ADn/e6Z/GvlDx+5k+JvieRuCbzP6V9ga9o1nKY7ia2V1fJC5wPY/h6Gvj7x8MfE3xOPS8/pXfkWFVCrOz0a27a3/U8XN60atOLW99fuOUEqw69NI2CPPfg9D8xq9dSzXEomDbGX7uzjFVNR024OoXJ3RY85/wCI/wB4+1Ojhv0UKHhOO+T/AIV9HKF3c8OM7HX6F8QNa0mBbeaFLqNOAxbDEe5712eg/GxLZwLzTZkX1jcN/hXjvkXv96LP++f8KT7PeZ58g/if8K5J4GlU+KJ2RzGtFWvf1Po2L41eH7lPmuHiP/TSMivCdb1KHWPGGt6pbsTFc3G9CR1HNYkljdOMboVHfDH/AAq9omnXCmb5ov4e59/atMNg4UG3HqZV8VKskmj/2Q==&quot; alt=&quot;A blurry image of a person&amp;amp;#39;s face&#xa;&#xa;Description automatically generated&quot; data-image-width-mu=&quot;0.961538461538462&quot; data-image-height-mu=&quot;0.982905982905983&quot; data-from-ppt-online=&quot;true&quot; class=&quot;CID0ebdc111-d519-44ac-9e85-290978b4b5ef&quot;&gt;" style="text;whiteSpace=wrap;html=1;" vertex="1" parent="1">
          <mxGeometry x="415.08" y="539.9958415841584" width="47.49999999999999" height="79.20792079207921" as="geometry" />
        </mxCell>
        <mxCell id="I8u54NmZ8nvwyBFgocyv-16" value="Segmentation Model (M)" style="rounded=1;whiteSpace=wrap;html=1;" vertex="1" parent="1">
          <mxGeometry x="540" y="500" width="120" height="60" as="geometry" />
        </mxCell>
        <mxCell id="I8u54NmZ8nvwyBFgocyv-17" value="Segmentation Model (M)" style="rounded=1;whiteSpace=wrap;html=1;" vertex="1" parent="1">
          <mxGeometry x="540" y="589.2" width="120" height="60" as="geometry" />
        </mxCell>
        <mxCell id="I8u54NmZ8nvwyBFgocyv-18" value="" style="curved=1;endArrow=classic;html=1;rounded=0;entryX=0;entryY=0.5;entryDx=0;entryDy=0;" edge="1" parent="1" target="I8u54NmZ8nvwyBFgocyv-16">
          <mxGeometry width="50" height="50" relative="1" as="geometry">
            <mxPoint x="462.58000000000004" y="580" as="sourcePoint" />
            <mxPoint x="512.58" y="530" as="targetPoint" />
            <Array as="points">
              <mxPoint x="512.58" y="580" />
              <mxPoint x="462.58000000000004" y="530" />
            </Array>
          </mxGeometry>
        </mxCell>
        <mxCell id="I8u54NmZ8nvwyBFgocyv-20" value="" style="curved=1;endArrow=classic;html=1;rounded=0;entryX=0;entryY=0.5;entryDx=0;entryDy=0;" edge="1" parent="1" target="I8u54NmZ8nvwyBFgocyv-17">
          <mxGeometry width="50" height="50" relative="1" as="geometry">
            <mxPoint x="462.58000000000004" y="584.6" as="sourcePoint" />
            <mxPoint x="512.58" y="534.6" as="targetPoint" />
            <Array as="points">
              <mxPoint x="490" y="640" />
              <mxPoint x="540" y="610" />
            </Array>
          </mxGeometry>
        </mxCell>
        <mxCell id="I8u54NmZ8nvwyBFgocyv-21" value="Weak augmentation" style="text;strokeColor=none;align=center;fillColor=none;html=1;verticalAlign=middle;whiteSpace=wrap;rounded=0;" vertex="1" parent="1">
          <mxGeometry x="454" y="500" width="60" height="30" as="geometry" />
        </mxCell>
        <mxCell id="I8u54NmZ8nvwyBFgocyv-22" value="Strong augmentation" style="text;strokeColor=none;align=center;fillColor=none;html=1;verticalAlign=middle;whiteSpace=wrap;rounded=0;" vertex="1" parent="1">
          <mxGeometry x="452.58" y="630" width="60" height="30" as="geometry" />
        </mxCell>
        <mxCell id="I8u54NmZ8nvwyBFgocyv-23" value="" style="shape=flexArrow;endArrow=classic;startArrow=classic;html=1;rounded=0;" edge="1" parent="1">
          <mxGeometry width="100" height="100" relative="1" as="geometry">
            <mxPoint x="709.5" y="609.2" as="sourcePoint" />
            <mxPoint x="709.5" y="549.2" as="targetPoint" />
          </mxGeometry>
        </mxCell>
        <mxCell id="I8u54NmZ8nvwyBFgocyv-24" value="Loss" style="text;strokeColor=none;align=center;fillColor=none;html=1;verticalAlign=middle;whiteSpace=wrap;rounded=0;" vertex="1" parent="1">
          <mxGeometry x="680" y="520" width="60" height="30" as="geometry" />
        </mxCell>
        <mxCell id="I8u54NmZ8nvwyBFgocyv-25" value="Loss" style="text;strokeColor=none;align=center;fillColor=none;html=1;verticalAlign=middle;whiteSpace=wrap;rounded=0;" vertex="1" parent="1">
          <mxGeometry x="680" y="609.2" width="60" height="30" as="geometry" />
        </mxCell>
        <mxCell id="I8u54NmZ8nvwyBFgocyv-26" value="Cross-consistency" style="text;strokeColor=none;align=center;fillColor=none;html=1;verticalAlign=middle;whiteSpace=wrap;rounded=0;" vertex="1" parent="1">
          <mxGeometry x="740" y="559.2" width="120" height="30" as="geometry" />
        </mxCell>
      </root>
    </mxGraphModel>
  </diagram>
</mxfile>
